999
"DXF R12 Output" (www.mydxf.blogspot.com)
 0 
SECTION
 2 
HEADER
 9 
$ACADVER
 1 
AC1009
 9 
$EXTMIN
 10 
 0 
 20 
 0 
 9 
$EXTMAX
 10 
 8.5 
 20 
 11 
 0 
ENDSEC
 0 
SECTION
 2 
ENTITIES
0
LINE
8
Ebene 1
10
33.123660
20
49.230750
11
31.604210
21
49.184648
0
LINE
8
Ebene 1
10
31.604210
20
49.184648
11
30.114936
21
48.976765
0
LINE
8
Ebene 1
10
30.114936
20
48.976765
11
28.677737
21
48.594762
0
LINE
8
Ebene 1
10
28.677737
20
48.594762
11
27.314510
21
48.026300
0
LINE
8
Ebene 1
10
27.314510
20
48.026300
11
25.159292
21
46.716842
0
LINE
8
Ebene 1
10
25.159292
20
46.716842
11
23.232604
21
45.080357
0
LINE
8
Ebene 1
10
23.232604
20
45.080357
11
21.593861
21
43.161074
0
LINE
8
Ebene 1
10
21.593861
20
43.161074
11
20.302480
21
41.003220
0
LINE
8
Ebene 1
10
20.302480
20
41.003220
11
18.966845
21
37.661620
0
LINE
8
Ebene 1
10
18.966845
20
37.661620
11
18.479837
21
35.898563
0
LINE
8
Ebene 1
10
18.479837
20
35.898563
11
18.155610
21
34.147460
0
LINE
8
Ebene 1
10
18.155610
20
34.147460
11
18.013101
21
32.377208
0
LINE
8
Ebene 1
10
18.013101
20
32.377208
11
18.059240
21
30.600657
0
LINE
8
Ebene 1
10
18.059240
20
30.600657
11
18.286166
21
28.838188
0
LINE
8
Ebene 1
10
18.286166
20
28.838188
11
18.686020
21
27.110180
0
LINE
8
Ebene 1
10
18.686020
20
27.110180
11
19.204583
21
25.695045
0
LINE
8
Ebene 1
10
19.204583
20
25.695045
11
19.858616
21
24.453385
0
LINE
8
Ebene 1
10
19.858616
20
24.453385
11
21.435890
21
22.035060
0
LINE
8
Ebene 1
10
21.435890
20
22.035060
11
21.604155
21
21.642499
0
LINE
8
Ebene 1
10
21.604155
20
21.642499
11
21.524275
21
21.417681
0
LINE
8
Ebene 1
10
21.524275
20
21.417681
11
21.242345
21
21.355533
0
LINE
8
Ebene 1
10
21.242345
20
21.355533
11
20.804460
21
21.450980
0
LINE
8
Ebene 1
10
20.804460
20
21.450980
11
19.540020
21
22.047690
0
LINE
8
Ebene 1
10
19.540020
20
22.047690
11
18.193402
21
22.817304
0
LINE
8
Ebene 1
10
18.193402
20
22.817304
11
16.970100
21
23.741500
0
LINE
8
Ebene 1
10
16.970100
20
23.741500
11
15.770196
21
25.103150
0
LINE
8
Ebene 1
10
15.770196
20
25.103150
11
14.816930
21
26.739210
0
LINE
8
Ebene 1
10
14.816930
20
26.739210
11
14.508581
21
27.655178
0
LINE
8
Ebene 1
10
14.508581
20
27.655178
11
14.320256
21
28.687215
0
LINE
8
Ebene 1
10
14.320256
20
28.687215
11
14.398018
21
30.112298
0
LINE
8
Ebene 1
10
14.398018
20
30.112298
11
14.887930
21
32.207400
0
LINE
8
Ebene 1
10
14.887930
20
32.207400
11
15.655120
21
35.498720
0
LINE
8
Ebene 1
10
15.655120
20
35.498720
11
15.713520
21
36.984160
0
LINE
8
Ebene 1
10
15.713520
20
36.984160
11
15.497250
21
38.925810
0
LINE
8
Ebene 1
10
15.497250
20
38.925810
11
15.026260
21
40.664666
0
LINE
8
Ebene 1
10
15.026260
20
40.664666
11
14.613442
21
41.376838
0
LINE
8
Ebene 1
10
14.613442
20
41.376838
11
13.986560
21
41.801970
0
LINE
8
Ebene 1
10
13.986560
20
41.801970
11
13.036260
21
41.793970
0
LINE
8
Ebene 1
10
13.036260
20
41.793970
11
13.107260
21
41.885570
0
LINE
8
Ebene 1
10
13.107260
20
41.885570
11
13.291950
21
42.168140
0
LINE
8
Ebene 1
10
13.291950
20
42.168140
11
13.841300
21
42.605400
0
LINE
8
Ebene 1
10
13.841300
20
42.605400
11
14.115970
21
42.943220
0
LINE
8
Ebene 1
10
14.115970
20
42.943220
11
14.396960
21
43.448360
0
LINE
8
Ebene 1
10
14.396960
20
43.448360
11
14.796675
21
43.565158
0
LINE
8
Ebene 1
10
14.796675
20
43.565158
11
15.064690
21
43.850900
0
LINE
8
Ebene 1
10
15.064690
20
43.850900
11
15.111436
21
44.345238
0
LINE
8
Ebene 1
10
15.111436
20
44.345238
11
14.846850
21
44.831190
0
LINE
8
Ebene 1
10
14.846850
20
44.831190
11
14.868950
21
44.861190
0
LINE
8
Ebene 1
10
14.868950
20
44.861190
11
15.007860
21
44.906990
0
LINE
8
Ebene 1
10
15.007860
20
44.906990
11
16.022755
21
46.120745
0
LINE
8
Ebene 1
10
16.022755
20
46.120745
11
16.813760
21
47.199080
0
LINE
8
Ebene 1
10
16.813760
20
47.199080
11
17.120315
21
47.984113
0
LINE
8
Ebene 1
10
17.120315
20
47.984113
11
17.517214
21
48.590650
0
LINE
8
Ebene 1
10
17.517214
20
48.590650
11
17.816536
21
49.005757
0
LINE
8
Ebene 1
10
17.816536
20
49.005757
11
17.830360
21
49.216500
0
LINE
8
Ebene 1
10
17.830360
20
49.216500
11
17.605211
21
49.144089
0
LINE
8
Ebene 1
10
17.605211
20
49.144089
11
17.300731
21
48.777473
0
LINE
8
Ebene 1
10
17.300731
20
48.777473
11
16.837614
21
48.237699
0
LINE
8
Ebene 1
10
16.837614
20
48.237699
11
16.136550
21
47.645820
0
LINE
8
Ebene 1
10
16.136550
20
47.645820
11
15.198945
21
46.546163
0
LINE
8
Ebene 1
10
15.198945
20
46.546163
11
14.633809
21
45.763523
0
LINE
8
Ebene 1
10
14.633809
20
45.763523
11
14.390640
21
45.246390
0
LINE
8
Ebene 1
10
14.390640
20
45.246390
11
14.395640
21
45.216390
0
LINE
8
Ebene 1
10
14.395640
20
45.216390
11
14.362440
21
45.172190
0
LINE
8
Ebene 1
10
14.362440
20
45.172190
11
13.631636
21
45.247153
0
LINE
8
Ebene 1
10
13.631636
20
45.247153
11
13.134300
21
44.869130
0
LINE
8
Ebene 1
10
13.134300
20
44.869130
11
13.090100
21
44.360830
0
LINE
8
Ebene 1
10
13.090100
20
44.360830
11
12.742820
21
44.040380
0
LINE
8
Ebene 1
10
12.742820
20
44.040380
11
12.468150
21
43.704140
0
LINE
8
Ebene 1
10
12.468150
20
43.704140
11
12.158750
21
43.101120
0
LINE
8
Ebene 1
10
12.158750
20
43.101120
11
11.953530
21
42.872230
0
LINE
8
Ebene 1
10
11.953530
20
42.872230
11
9.620400
21
39.855570
0
LINE
8
Ebene 1
10
9.620400
20
39.855570
11
9.312190
21
39.308234
0
LINE
8
Ebene 1
10
9.312190
20
39.308234
11
9.214700
21
38.788460
0
LINE
8
Ebene 1
10
9.214700
20
38.788460
11
8.474350
21
37.531910
0
LINE
8
Ebene 1
10
8.474350
20
37.531910
11
8.444350
21
37.484510
0
LINE
8
Ebene 1
10
8.444350
20
37.484510
11
8.435350
21
37.460810
0
LINE
8
Ebene 1
10
8.435350
20
37.460810
11
8.424350
21
37.434010
0
LINE
8
Ebene 1
10
8.424350
20
37.434010
11
8.418350
21
37.400810
0
LINE
8
Ebene 1
10
8.418350
20
37.400810
11
8.415350
21
37.381910
0
LINE
8
Ebene 1
10
8.415350
20
37.381910
11
8.415350
21
37.339310
0
LINE
8
Ebene 1
10
8.415350
20
37.339310
11
8.415350
21
37.330310
0
LINE
8
Ebene 1
10
8.415350
20
37.330310
11
8.424350
21
37.284510
0
LINE
8
Ebene 1
10
8.424350
20
37.284510
11
8.426350
21
37.281510
0
LINE
8
Ebene 1
10
8.426350
20
37.281510
11
8.510050
21
37.145750
0
LINE
8
Ebene 1
10
8.510050
20
37.145750
11
7.597234
21
35.977829
0
LINE
8
Ebene 1
10
7.597234
20
35.977829
11
6.925109
21
35.264979
0
LINE
8
Ebene 1
10
6.925109
20
35.264979
11
6.225860
21
34.706850
0
LINE
8
Ebene 1
10
6.225860
20
34.706850
11
5.621917
21
34.258502
0
LINE
8
Ebene 1
10
5.621917
20
34.258502
11
4.621777
21
33.192801
0
LINE
8
Ebene 1
10
4.621777
20
33.192801
11
4.133612
21
32.423458
0
LINE
8
Ebene 1
10
4.133612
20
32.423458
11
3.738972
21
31.493795
0
LINE
8
Ebene 1
10
3.738972
20
31.493795
11
3.502047
21
30.401817
0
LINE
8
Ebene 1
10
3.502047
20
30.401817
11
3.487030
21
29.145530
0
LINE
8
Ebene 1
10
3.487030
20
29.145530
11
3.678040
21
29.161330
0
LINE
8
Ebene 1
10
3.678040
20
29.161330
11
3.692399
21
30.377117
0
LINE
8
Ebene 1
10
3.692399
20
30.377117
11
3.921534
21
31.433843
0
LINE
8
Ebene 1
10
3.921534
20
31.433843
11
4.303307
21
32.333448
0
LINE
8
Ebene 1
10
4.303307
20
32.333448
11
4.775577
21
33.077878
0
LINE
8
Ebene 1
10
4.775577
20
33.077878
11
5.743062
21
34.108979
0
LINE
8
Ebene 1
10
5.743062
20
34.108979
11
6.326880
21
34.542690
0
LINE
8
Ebene 1
10
6.326880
20
34.542690
11
7.069199
21
35.135438
0
LINE
8
Ebene 1
10
7.069199
20
35.135438
11
7.770459
21
35.881673
0
LINE
8
Ebene 1
10
7.770459
20
35.881673
11
8.688430
21
37.063680
0
LINE
8
Ebene 1
10
8.688430
20
37.063680
11
8.754730
21
37.065680
0
LINE
8
Ebene 1
10
8.754730
20
37.065680
11
8.768930
21
37.068680
0
LINE
8
Ebene 1
10
8.768930
20
37.068680
11
8.817830
21
37.082880
0
LINE
8
Ebene 1
10
8.817830
20
37.082880
11
8.836730
21
37.090880
0
LINE
8
Ebene 1
10
8.836730
20
37.090880
11
8.876230
21
37.112980
0
LINE
8
Ebene 1
10
8.876230
20
37.112980
11
8.892030
21
37.124080
0
LINE
8
Ebene 1
10
8.892030
20
37.124080
11
8.939430
21
37.169880
0
LINE
8
Ebene 1
10
8.939430
20
37.169880
11
10.053900
21
38.292240
0
LINE
8
Ebene 1
10
10.053900
20
38.292240
11
10.770580
21
38.868420
0
LINE
8
Ebene 1
10
10.770580
20
38.868420
11
11.927670
21
40.364910
0
LINE
8
Ebene 1
10
11.927670
20
40.364910
11
12.016070
21
39.897650
0
LINE
8
Ebene 1
10
12.016070
20
39.897650
11
12.169924
21
38.806286
0
LINE
8
Ebene 1
10
12.169924
20
38.806286
11
12.050770
21
37.711330
0
LINE
8
Ebene 1
10
12.050770
20
37.711330
11
11.707608
21
36.605770
0
LINE
8
Ebene 1
10
11.707608
20
36.605770
11
11.226760
21
35.526580
0
LINE
8
Ebene 1
10
11.226760
20
35.526580
11
10.498049
21
33.960576
0
LINE
8
Ebene 1
10
10.498049
20
33.960576
11
9.870186
21
32.223554
0
LINE
8
Ebene 1
10
9.870186
20
32.223554
11
8.970970
21
28.732390
0
LINE
8
Ebene 1
10
8.970970
20
28.732390
11
9.179048
21
26.278916
0
LINE
8
Ebene 1
10
9.179048
20
26.278916
11
9.666130
21
24.435323
0
LINE
8
Ebene 1
10
9.666130
20
24.435323
11
10.348662
21
22.953316
0
LINE
8
Ebene 1
10
10.348662
20
22.953316
11
11.143090
21
21.584600
0
LINE
8
Ebene 1
10
11.143090
20
21.584600
11
12.498032
21
19.908152
0
LINE
8
Ebene 1
10
12.498032
20
19.908152
11
14.038349
21
18.294111
0
LINE
8
Ebene 1
10
14.038349
20
18.294111
11
16.280266
21
16.620455
0
LINE
8
Ebene 1
10
16.280266
20
16.620455
11
19.740010
21
14.765160
0
LINE
8
Ebene 1
10
19.740010
20
14.765160
11
18.927395
21
14.008745
0
LINE
8
Ebene 1
10
18.927395
20
14.008745
11
18.087240
21
13.429690
0
LINE
8
Ebene 1
10
18.087240
20
13.429690
11
17.483241
21
13.195403
0
LINE
8
Ebene 1
10
17.483241
20
13.195403
11
16.823825
21
13.096247
0
LINE
8
Ebene 1
10
16.823825
20
13.096247
11
15.393870
21
13.237194
0
LINE
8
Ebene 1
10
15.393870
20
13.237194
11
13.907643
21
13.720251
0
LINE
8
Ebene 1
10
13.907643
20
13.720251
11
12.475410
21
14.413140
0
LINE
8
Ebene 1
10
12.475410
20
14.413140
11
10.832110
21
15.336600
0
LINE
8
Ebene 1
10
10.832110
20
15.336600
11
10.838110
21
15.342600
0
LINE
8
Ebene 1
10
10.838110
20
15.342600
11
10.626580
21
15.438900
0
LINE
8
Ebene 1
10
10.626580
20
15.438900
11
8.443410
21
16.591250
0
LINE
8
Ebene 1
10
8.443410
20
16.591250
11
7.690430
21
17.195850
0
LINE
8
Ebene 1
10
7.690430
20
17.195850
11
8.156110
21
17.183250
0
LINE
8
Ebene 1
10
8.156110
20
17.183250
11
8.179810
21
17.180250
0
LINE
8
Ebene 1
10
8.179810
20
17.180250
11
8.320300
21
17.164450
0
LINE
8
Ebene 1
10
8.320300
20
17.164450
11
8.422910
21
17.151850
0
LINE
8
Ebene 1
10
8.422910
20
17.151850
11
8.431910
21
17.156850
0
LINE
8
Ebene 1
10
8.431910
20
17.156850
11
8.659220
21
17.426790
0
LINE
8
Ebene 1
10
8.659220
20
17.426790
11
8.577120
21
17.794600
0
LINE
8
Ebene 1
10
8.577120
20
17.794600
11
7.871500
21
18.080320
0
LINE
8
Ebene 1
10
7.871500
20
18.080320
11
7.846200
21
18.672280
0
LINE
8
Ebene 1
10
7.846200
20
18.672280
11
7.855200
21
18.678280
0
LINE
8
Ebene 1
10
7.855200
20
18.678280
11
8.011480
21
18.776180
0
LINE
8
Ebene 1
10
8.011480
20
18.776180
11
8.013480
21
18.778180
0
LINE
8
Ebene 1
10
8.013480
20
18.778180
11
8.218690
21
18.861880
0
LINE
8
Ebene 1
10
8.218690
20
18.861880
11
8.227690
21
18.866880
0
LINE
8
Ebene 1
10
8.227690
20
18.866880
11
8.240290
21
18.871880
0
LINE
8
Ebene 1
10
8.240290
20
18.871880
11
8.409200
21
18.947680
0
LINE
8
Ebene 1
10
8.409200
20
18.947680
11
8.411200
21
18.949680
0
LINE
8
Ebene 1
10
8.411200
20
18.949680
11
8.562740
21
19.075970
0
LINE
8
Ebene 1
10
8.562740
20
19.075970
11
8.510640
21
19.424830
0
LINE
8
Ebene 1
10
8.510640
20
19.424830
11
8.325950
21
19.636370
0
LINE
8
Ebene 1
10
8.325950
20
19.636370
11
7.805020
21
19.525860
0
LINE
8
Ebene 1
10
7.805020
20
19.525860
11
7.726120
21
19.506960
0
LINE
8
Ebene 1
10
7.726120
20
19.506960
11
7.639320
21
19.495860
0
LINE
8
Ebene 1
10
7.639320
20
19.495860
11
7.568320
21
19.514760
0
LINE
8
Ebene 1
10
7.568320
20
19.514760
11
7.559320
21
19.523760
0
LINE
8
Ebene 1
10
7.559320
20
19.523760
11
7.264120
21
19.954710
0
LINE
8
Ebene 1
10
7.264120
20
19.954710
11
7.289420
21
20.006810
0
LINE
8
Ebene 1
10
7.289420
20
20.006810
11
7.445700
21
20.243590
0
LINE
8
Ebene 1
10
7.445700
20
20.243590
11
7.673020
21
20.647710
0
LINE
8
Ebene 1
10
7.673020
20
20.647710
11
7.480430
21
20.895550
0
LINE
8
Ebene 1
10
7.480430
20
20.895550
11
7.212070
21
21.013940
0
LINE
8
Ebene 1
10
7.212070
20
21.013940
11
7.203070
21
21.008940
0
LINE
8
Ebene 1
10
7.203070
20
21.008940
11
7.064150
21
20.928440
0
LINE
8
Ebene 1
10
7.064150
20
20.928440
11
7.059150
21
20.925440
0
LINE
8
Ebene 1
10
7.059150
20
20.925440
11
7.008650
21
20.879640
0
LINE
8
Ebene 1
10
7.008650
20
20.879640
11
6.962850
21
20.832240
0
LINE
8
Ebene 1
10
6.962850
20
20.832240
11
6.621880
21
20.503900
0
LINE
8
Ebene 1
10
6.621880
20
20.503900
11
6.451390
21
20.573400
0
LINE
8
Ebene 1
10
6.451390
20
20.573400
11
6.064640
21
20.795980
0
LINE
8
Ebene 1
10
6.064640
20
20.795980
11
6.055640
21
20.884380
0
LINE
8
Ebene 1
10
6.055640
20
20.884380
11
6.134540
21
21.624730
0
LINE
8
Ebene 1
10
6.134540
20
21.624730
11
5.858290
21
21.790480
0
LINE
8
Ebene 1
10
5.858290
20
21.790480
11
5.531530
21
21.776280
0
LINE
8
Ebene 1
10
5.531530
20
21.776280
11
5.529530
21
21.774280
0
LINE
8
Ebene 1
10
5.529530
20
21.774280
11
5.521530
21
21.771280
0
LINE
8
Ebene 1
10
5.521530
20
21.771280
11
5.494730
21
21.719180
0
LINE
8
Ebene 1
10
5.494730
20
21.719180
11
5.471030
21
21.671780
0
LINE
8
Ebene 1
10
5.471030
20
21.671780
11
5.207410
21
20.997730
0
LINE
8
Ebene 1
10
5.207410
20
20.997730
11
4.678590
21
20.980330
0
LINE
8
Ebene 1
10
4.678590
20
20.980330
11
4.255530
21
21.720680
0
LINE
8
Ebene 1
10
4.255530
20
21.720680
11
3.917720
21
21.695480
0
LINE
8
Ebene 1
10
3.917720
20
21.695480
11
3.909720
21
21.690480
0
LINE
8
Ebene 1
10
3.909720
20
21.690480
11
3.907720
21
21.690480
0
LINE
8
Ebene 1
10
3.907720
20
21.690480
11
3.902720
21
21.687480
0
LINE
8
Ebene 1
10
3.902720
20
21.687480
11
3.778010
21
21.605380
0
LINE
8
Ebene 1
10
3.778010
20
21.605380
11
3.724310
21
21.554880
0
LINE
8
Ebene 1
10
3.724310
20
21.554880
11
3.695910
21
21.521680
0
LINE
8
Ebene 1
10
3.695910
20
21.521680
11
3.665910
21
21.486980
0
LINE
8
Ebene 1
10
3.665910
20
21.486980
11
3.668910
21
21.417480
0
LINE
8
Ebene 1
10
3.668910
20
21.417480
11
3.861500
21
20.677130
0
LINE
8
Ebene 1
10
3.861500
20
20.677130
11
3.788900
21
20.621830
0
LINE
8
Ebene 1
10
3.788900
20
20.621830
11
3.460550
21
20.367680
0
LINE
8
Ebene 1
10
3.460550
20
20.367680
11
3.413250
21
20.331380
0
LINE
8
Ebene 1
10
3.413250
20
20.331380
11
3.326450
21
20.328380
0
LINE
8
Ebene 1
10
3.326450
20
20.328380
11
2.758160
21
20.708820
0
LINE
8
Ebene 1
10
2.758160
20
20.708820
11
2.575040
21
20.691420
0
LINE
8
Ebene 1
10
2.575040
20
20.691420
11
2.572040
21
20.689420
0
LINE
8
Ebene 1
10
2.572040
20
20.689420
11
2.542040
21
20.664220
0
LINE
8
Ebene 1
10
2.542040
20
20.664220
11
2.453640
21
20.588420
0
LINE
8
Ebene 1
10
2.453640
20
20.588420
11
2.415740
21
20.555220
0
LINE
8
Ebene 1
10
2.415740
20
20.555220
11
2.403140
21
20.531520
0
LINE
8
Ebene 1
10
2.403140
20
20.531520
11
2.325840
21
20.376820
0
LINE
8
Ebene 1
10
2.325840
20
20.376820
11
2.336940
21
20.160560
0
LINE
8
Ebene 1
10
2.336940
20
20.160560
11
2.433240
21
20.076860
0
LINE
8
Ebene 1
10
2.433240
20
20.076860
11
2.524840
21
19.996360
0
LINE
8
Ebene 1
10
2.524840
20
19.996360
11
2.851600
21
19.644340
0
LINE
8
Ebene 1
10
2.851600
20
19.644340
11
2.616390
21
19.140770
0
LINE
8
Ebene 1
10
2.616390
20
19.140770
11
2.551690
21
19.134770
0
LINE
8
Ebene 1
10
2.551690
20
19.134770
11
2.467990
21
19.132770
0
LINE
8
Ebene 1
10
2.467990
20
19.132770
11
1.718160
21
19.194370
0
LINE
8
Ebene 1
10
1.718160
20
19.194370
11
1.709160
21
19.189370
0
LINE
8
Ebene 1
10
1.709160
20
19.189370
11
1.630260
21
19.110470
0
LINE
8
Ebene 1
10
1.630260
20
19.110470
11
1.582960
21
19.012570
0
LINE
8
Ebene 1
10
1.582960
20
19.012570
11
1.580960
21
19.009570
0
LINE
8
Ebene 1
10
1.580960
20
19.009570
11
1.547760
21
18.917970
0
LINE
8
Ebene 1
10
1.547760
20
18.917970
11
1.566660
21
18.655930
0
LINE
8
Ebene 1
10
1.566660
20
18.655930
11
1.584060
21
18.611730
0
LINE
8
Ebene 1
10
1.584060
20
18.611730
11
1.595060
21
18.583330
0
LINE
8
Ebene 1
10
1.595060
20
18.583330
11
1.658260
21
18.551730
0
LINE
8
Ebene 1
10
1.658260
20
18.551730
11
1.696160
21
18.532830
0
LINE
8
Ebene 1
10
1.696160
20
18.532830
11
2.427040
21
18.311830
0
LINE
8
Ebene 1
10
2.427040
20
18.311830
11
2.404940
21
17.743550
0
LINE
8
Ebene 1
10
2.404940
20
17.743550
11
2.311840
21
17.680450
0
LINE
8
Ebene 1
10
2.311840
20
17.680450
11
1.680410
21
17.453130
0
LINE
8
Ebene 1
10
1.680410
20
17.453130
11
1.677410
21
17.451130
0
LINE
8
Ebene 1
10
1.677410
20
17.451130
11
1.671410
21
17.448130
0
LINE
8
Ebene 1
10
1.671410
20
17.448130
11
1.662410
21
17.437030
0
LINE
8
Ebene 1
10
1.662410
20
17.437030
11
1.640310
21
17.414930
0
LINE
8
Ebene 1
10
1.640310
20
17.414930
11
1.596110
21
17.247600
0
LINE
8
Ebene 1
10
1.596110
20
17.247600
11
1.596110
21
17.245600
0
LINE
8
Ebene 1
10
1.596110
20
17.245600
11
1.610310
21
17.135100
0
LINE
8
Ebene 1
10
1.610310
20
17.135100
11
1.612310
21
17.130100
0
LINE
8
Ebene 1
10
1.612310
20
17.130100
11
1.620310
21
17.068500
0
LINE
8
Ebene 1
10
1.620310
20
17.068500
11
1.749760
21
16.861710
0
LINE
8
Ebene 1
10
1.749760
20
16.861710
11
1.789260
21
16.825410
0
LINE
8
Ebene 1
10
1.789260
20
16.825410
11
1.791260
21
16.825410
0
LINE
8
Ebene 1
10
1.791260
20
16.825410
11
1.808660
21
16.809610
0
LINE
8
Ebene 1
10
1.808660
20
16.809610
11
1.900160
21
16.809610
0
LINE
8
Ebene 1
10
1.900160
20
16.809610
11
1.953860
21
16.809610
0
LINE
8
Ebene 1
10
1.953860
20
16.809610
11
2.105400
21
16.827010
0
LINE
8
Ebene 1
10
2.105400
20
16.827010
11
2.171700
21
16.839610
0
LINE
8
Ebene 1
10
2.171700
20
16.839610
11
2.645270
21
16.923310
0
LINE
8
Ebene 1
10
2.645270
20
16.923310
11
2.938890
21
16.479730
0
LINE
8
Ebene 1
10
2.938890
20
16.479730
11
2.676850
21
16.116660
0
LINE
8
Ebene 1
10
2.676850
20
16.116660
11
2.487420
21
15.853040
0
LINE
8
Ebene 1
10
2.487420
20
15.853040
11
2.433720
21
15.778840
0
LINE
8
Ebene 1
10
2.433720
20
15.778840
11
2.436720
21
15.759940
0
LINE
8
Ebene 1
10
2.436720
20
15.759940
11
2.449320
21
15.682640
0
LINE
8
Ebene 1
10
2.449320
20
15.682640
11
2.559820
21
15.504260
0
LINE
8
Ebene 1
10
2.559820
20
15.504260
11
2.645120
21
15.441060
0
LINE
8
Ebene 1
10
2.645120
20
15.441060
11
2.713020
21
15.390560
0
LINE
8
Ebene 1
10
2.713020
20
15.390560
11
2.881930
21
15.333760
0
LINE
8
Ebene 1
10
2.881930
20
15.333760
11
2.929230
21
15.342760
0
LINE
8
Ebene 1
10
2.929230
20
15.342760
11
2.934230
21
15.344760
0
LINE
8
Ebene 1
10
2.934230
20
15.344760
11
2.936230
21
15.346760
0
LINE
8
Ebene 1
10
2.936230
20
15.346760
11
2.944230
21
15.349760
0
LINE
8
Ebene 1
10
2.944230
20
15.349760
11
3.337290
21
15.690740
0
LINE
8
Ebene 1
10
3.337290
20
15.690740
11
3.559870
21
15.875430
0
LINE
8
Ebene 1
10
3.559870
20
15.875430
11
3.562870
21
15.878430
0
LINE
8
Ebene 1
10
3.562870
20
15.878430
11
3.659170
21
15.832630
0
LINE
8
Ebene 1
10
3.659170
20
15.832630
11
3.886480
21
15.725290
0
LINE
8
Ebene 1
10
3.886480
20
15.725290
11
4.093280
21
15.625890
0
LINE
8
Ebene 1
10
4.093280
20
15.625890
11
4.088280
21
15.016560
0
LINE
8
Ebene 1
10
4.088280
20
15.016560
11
4.085280
21
14.902900
0
LINE
8
Ebene 1
10
4.085280
20
14.902900
11
4.083280
21
14.808200
0
LINE
8
Ebene 1
10
4.083280
20
14.808200
11
4.102180
21
14.787700
0
LINE
8
Ebene 1
10
4.102180
20
14.787700
11
4.154280
21
14.732400
0
LINE
8
Ebene 1
10
4.154280
20
14.732400
11
4.361080
21
14.651900
0
LINE
8
Ebene 1
10
4.361080
20
14.651900
11
4.436880
21
14.646900
0
LINE
8
Ebene 1
10
4.436880
20
14.646900
11
4.523680
21
14.641900
0
LINE
8
Ebene 1
10
4.523680
20
14.641900
11
4.578880
21
14.643900
0
LINE
8
Ebene 1
10
4.578880
20
14.643900
11
4.580880
21
14.643900
0
LINE
8
Ebene 1
10
4.580880
20
14.643900
11
4.705580
21
14.721200
0
LINE
8
Ebene 1
10
4.705580
20
14.721200
11
4.891850
21
15.420510
0
LINE
8
Ebene 1
10
4.891850
20
15.420510
11
4.937650
21
15.483710
0
LINE
8
Ebene 1
10
4.937650
20
15.483710
11
5.510680
21
15.520010
0
LINE
8
Ebene 1
10
5.510680
20
15.520010
11
5.897430
21
14.771770
0
LINE
8
Ebene 1
10
5.897430
20
14.771770
11
5.921130
21
14.762770
0
LINE
8
Ebene 1
10
5.921130
20
14.762770
11
6.007930
21
14.728070
0
LINE
8
Ebene 1
10
6.007930
20
14.728070
11
6.078930
21
14.725070
0
LINE
8
Ebene 1
10
6.078930
20
14.725070
11
6.221000
21
14.743970
0
LINE
8
Ebene 1
10
6.221000
20
14.743970
11
6.255700
21
14.748970
0
LINE
8
Ebene 1
10
6.255700
20
14.748970
11
6.261700
21
14.753970
0
LINE
8
Ebene 1
10
6.261700
20
14.753970
11
6.264700
21
14.753970
0
LINE
8
Ebene 1
10
6.264700
20
14.753970
11
6.488860
21
14.965500
0
LINE
8
Ebene 1
10
6.488860
20
14.965500
11
6.425760
21
15.390140
0
LINE
8
Ebene 1
10
6.425760
20
15.390140
11
6.416760
21
15.461140
0
LINE
8
Ebene 1
10
6.416760
20
15.461140
11
6.419760
21
15.511640
0
LINE
8
Ebene 1
10
6.419760
20
15.511640
11
7.804170
21
14.248780
0
LINE
8
Ebene 1
10
7.804170
20
14.248780
11
8.356670
21
13.737320
0
LINE
8
Ebene 1
10
8.356670
20
13.737320
11
9.708635
21
12.635383
0
LINE
8
Ebene 1
10
9.708635
20
12.635383
11
11.005520
21
11.483120
0
LINE
8
Ebene 1
10
11.005520
20
11.483120
11
12.788476
21
9.665898
0
LINE
8
Ebene 1
10
12.788476
20
9.665898
11
13.768558
21
8.883003
0
LINE
8
Ebene 1
10
13.768558
20
8.883003
11
14.898290
21
8.289660
0
LINE
8
Ebene 1
10
14.898290
20
8.289660
11
16.021332
21
7.974194
0
LINE
8
Ebene 1
10
16.021332
20
7.974194
11
17.095811
21
7.886157
0
LINE
8
Ebene 1
10
17.095811
20
7.886157
11
18.131478
21
7.988360
0
LINE
8
Ebene 1
10
18.131478
20
7.988360
11
19.138088
21
8.243614
0
LINE
8
Ebene 1
10
19.138088
20
8.243614
11
21.103140
21
9.064516
0
LINE
8
Ebene 1
10
21.103140
20
9.064516
11
23.068990
21
10.051350
0
LINE
8
Ebene 1
10
23.068990
20
10.051350
11
23.991393
21
10.206958
0
LINE
8
Ebene 1
10
23.991393
20
10.206958
11
24.403862
21
10.042634
0
LINE
8
Ebene 1
10
24.403862
20
10.042634
11
24.644410
21
9.651970
0
LINE
8
Ebene 1
10
24.644410
20
9.651970
11
24.684182
21
9.029259
0
LINE
8
Ebene 1
10
24.684182
20
9.029259
11
24.536627
21
8.431085
0
LINE
8
Ebene 1
10
24.536627
20
8.431085
11
23.838315
21
7.321271
0
LINE
8
Ebene 1
10
23.838315
20
7.321271
11
22.867025
21
6.348364
0
LINE
8
Ebene 1
10
22.867025
20
6.348364
11
21.940310
21
5.538200
0
LINE
8
Ebene 1
10
21.940310
20
5.538200
11
20.753499
21
4.740703
0
LINE
8
Ebene 1
10
20.753499
20
4.740703
11
20.083485
21
4.506868
0
LINE
8
Ebene 1
10
20.083485
20
4.506868
11
19.375130
21
4.423730
0
LINE
8
Ebene 1
10
19.375130
20
4.423730
11
17.618615
21
4.346933
0
LINE
8
Ebene 1
10
17.618615
20
4.346933
11
16.458379
21
4.199301
0
LINE
8
Ebene 1
10
16.458379
20
4.199301
11
15.428690
21
3.935950
0
LINE
8
Ebene 1
10
15.428690
20
3.935950
11
12.767210
21
5.332990
0
LINE
8
Ebene 1
10
12.767210
20
5.332990
11
13.256570
21
6.305390
0
LINE
8
Ebene 1
10
13.256570
20
6.305390
11
12.536740
21
6.657410
0
LINE
8
Ebene 1
10
12.536740
20
6.657410
11
12.243120
21
6.060710
0
LINE
8
Ebene 1
10
12.243120
20
6.060710
11
9.941560
21
7.280950
0
LINE
8
Ebene 1
10
9.941560
20
7.280950
11
9.781098
21
7.374160
0
LINE
8
Ebene 1
10
9.781098
20
7.374160
11
9.367381
21
7.472811
0
LINE
8
Ebene 1
10
9.367381
20
7.472811
11
8.801911
21
7.305440
0
LINE
8
Ebene 1
10
8.801911
20
7.305440
11
8.186190
21
6.600580
0
LINE
8
Ebene 1
10
8.186190
20
6.600580
11
8.003773
21
5.823366
0
LINE
8
Ebene 1
10
8.003773
20
5.823366
11
8.153439
21
5.261586
0
LINE
8
Ebene 1
10
8.153439
20
5.261586
11
8.544520
21
4.805740
0
LINE
8
Ebene 1
10
8.544520
20
4.805740
11
10.972370
21
3.476580
0
LINE
8
Ebene 1
10
10.972370
20
3.476580
11
10.716640
21
2.957230
0
LINE
8
Ebene 1
10
10.716640
20
2.957230
11
11.392270
21
2.594160
0
LINE
8
Ebene 1
10
11.392270
20
2.594160
11
11.914780
21
3.634440
0
LINE
8
Ebene 1
10
11.914780
20
3.634440
11
15.068770
21
1.999040
0
LINE
8
Ebene 1
10
15.068770
20
1.999040
11
15.817369
21
1.535930
0
LINE
8
Ebene 1
10
15.817369
20
1.535930
11
16.999370
21
1.203440
0
LINE
8
Ebene 1
10
16.999370
20
1.203440
11
19.911840
21
0.739330
0
LINE
8
Ebene 1
10
19.911840
20
0.739330
11
21.361189
21
0.707604
0
LINE
8
Ebene 1
10
21.361189
20
0.707604
11
22.772220
21
0.998220
0
LINE
8
Ebene 1
10
22.772220
20
0.998220
11
24.411589
21
1.748104
0
LINE
8
Ebene 1
10
24.411589
20
1.748104
11
25.976730
21
2.652570
0
LINE
8
Ebene 1
10
25.976730
20
2.652570
11
28.427388
21
4.462800
0
LINE
8
Ebene 1
10
28.427388
20
4.462800
11
30.644570
21
6.569010
0
LINE
8
Ebene 1
10
30.644570
20
6.569010
11
31.529162
21
7.439308
0
LINE
8
Ebene 1
10
31.529162
20
7.439308
11
32.519365
21
8.184543
0
LINE
8
Ebene 1
10
32.519365
20
8.184543
11
33.050999
21
8.409760
0
LINE
8
Ebene 1
10
33.050999
20
8.409760
11
33.605351
21
8.483110
0
LINE
8
Ebene 1
10
33.605351
20
8.483110
11
34.181190
21
8.364394
0
LINE
8
Ebene 1
10
34.181190
20
8.364394
11
34.777290
21
8.013410
0
LINE
8
Ebene 1
10
34.777290
20
8.013410
11
36.036656
21
6.709743
0
LINE
8
Ebene 1
10
36.036656
20
6.709743
11
37.091455
21
5.202954
0
LINE
8
Ebene 1
10
37.091455
20
5.202954
11
38.156132
21
3.687778
0
LINE
8
Ebene 1
10
38.156132
20
3.687778
11
39.445130
21
2.358950
0
LINE
8
Ebene 1
10
39.445130
20
2.358950
11
40.617642
21
1.507403
0
LINE
8
Ebene 1
10
40.617642
20
1.507403
11
41.766430
21
0.941950
0
LINE
8
Ebene 1
10
41.766430
20
0.941950
11
43.109775
21
0.641022
0
LINE
8
Ebene 1
10
43.109775
20
0.641022
11
44.865960
21
0.583050
0
LINE
8
Ebene 1
10
44.865960
20
0.583050
11
47.262503
21
1.092115
0
LINE
8
Ebene 1
10
47.262503
20
1.092115
11
49.363320
21
1.770140
0
LINE
8
Ebene 1
10
49.363320
20
1.770140
11
50.136820
21
0.106330
0
LINE
8
Ebene 1
10
50.136820
20
0.106330
11
51.087120
21
0.549900
0
LINE
8
Ebene 1
10
51.087120
20
0.549900
11
51.102920
21
0.555900
0
LINE
8
Ebene 1
10
51.102920
20
0.555900
11
52.485750
21
1.201540
0
LINE
8
Ebene 1
10
52.485750
20
1.201540
11
52.485750
21
1.203540
0
LINE
8
Ebene 1
10
52.485750
20
1.203540
11
53.341340
21
1.602920
0
LINE
8
Ebene 1
10
53.341340
20
1.602920
11
53.339340
21
1.607920
0
LINE
8
Ebene 1
10
53.339340
20
1.607920
11
53.353540
21
1.613920
0
LINE
8
Ebene 1
10
53.353540
20
1.613920
11
52.857870
21
2.679460
0
LINE
8
Ebene 1
10
52.857870
20
2.679460
11
53.890260
21
3.160920
0
LINE
8
Ebene 1
10
53.890260
20
3.160920
11
54.387510
21
2.093810
0
LINE
8
Ebene 1
10
54.387510
20
2.093810
11
54.398610
21
2.098810
0
LINE
8
Ebene 1
10
54.398610
20
2.098810
11
54.400610
21
2.096810
0
LINE
8
Ebene 1
10
54.400610
20
2.096810
11
55.451940
21
2.587740
0
LINE
8
Ebene 1
10
55.451940
20
2.587740
11
55.464540
21
2.592740
0
LINE
8
Ebene 1
10
55.464540
20
2.592740
11
54.965710
21
3.663020
0
LINE
8
Ebene 1
10
54.965710
20
3.663020
11
56.015460
21
4.152370
0
LINE
8
Ebene 1
10
56.015460
20
4.152370
11
56.512710
21
3.083680
0
LINE
8
Ebene 1
10
56.512710
20
3.083680
11
56.523810
21
3.088680
0
LINE
8
Ebene 1
10
56.523810
20
3.088680
11
56.523810
21
3.086680
0
LINE
8
Ebene 1
10
56.523810
20
3.086680
11
57.587770
21
3.582360
0
LINE
8
Ebene 1
10
57.587770
20
3.582360
11
57.088940
21
4.654210
0
LINE
8
Ebene 1
10
57.088940
20
4.654210
11
57.091940
21
4.656210
0
LINE
8
Ebene 1
10
57.091940
20
4.656210
11
56.594690
21
5.721750
0
LINE
8
Ebene 1
10
56.594690
20
5.721750
11
56.582090
21
5.715750
0
LINE
8
Ebene 1
10
56.582090
20
5.715750
11
54.173180
21
4.591800
0
LINE
8
Ebene 1
10
54.173180
20
4.591800
11
52.360980
21
3.745690
0
LINE
8
Ebene 1
10
52.360980
20
3.745690
11
51.364900
21
5.883070
0
LINE
8
Ebene 1
10
51.364900
20
5.883070
11
50.302520
21
5.387410
0
LINE
8
Ebene 1
10
50.302520
20
5.387410
11
50.302520
21
5.385410
0
LINE
8
Ebene 1
10
50.302520
20
5.385410
11
48.160390
21
4.384590
0
LINE
8
Ebene 1
10
48.160390
20
4.384590
11
48.147790
21
4.379590
0
LINE
8
Ebene 1
10
48.147790
20
4.379590
11
48.447720
21
3.735540
0
LINE
8
Ebene 1
10
48.447720
20
3.735540
11
48.504520
21
3.615560
0
LINE
8
Ebene 1
10
48.504520
20
3.615560
11
45.443660
21
3.708660
0
LINE
8
Ebene 1
10
45.443660
20
3.708660
11
44.565676
21
3.942715
0
LINE
8
Ebene 1
10
44.565676
20
3.942715
11
43.806695
21
4.308327
0
LINE
8
Ebene 1
10
43.806695
20
4.308327
11
42.588538
21
5.370554
0
LINE
8
Ebene 1
10
42.588538
20
5.370554
11
41.674786
21
6.768006
0
LINE
8
Ebene 1
10
41.674786
20
6.768006
11
40.951040
21
8.373350
0
LINE
8
Ebene 1
10
40.951040
20
8.373350
11
40.803550
21
8.976097
0
LINE
8
Ebene 1
10
40.803550
20
8.976097
11
40.803646
21
9.674349
0
LINE
8
Ebene 1
10
40.803646
20
9.674349
11
41.069237
21
10.172783
0
LINE
8
Ebene 1
10
41.069237
20
10.172783
11
41.338439
21
10.254781
0
LINE
8
Ebene 1
10
41.338439
20
10.254781
11
41.718230
21
10.176080
0
LINE
8
Ebene 1
10
41.718230
20
10.176080
11
42.260919
21
9.661888
0
LINE
8
Ebene 1
10
42.260919
20
9.661888
11
42.687470
21
9.011090
0
LINE
8
Ebene 1
10
42.687470
20
9.011090
11
44.007160
21
7.757700
0
LINE
8
Ebene 1
10
44.007160
20
7.757700
11
45.087566
21
7.184114
0
LINE
8
Ebene 1
10
45.087566
20
7.184114
11
46.659171
21
6.644678
0
LINE
8
Ebene 1
10
46.659171
20
6.644678
11
48.354693
21
6.250535
0
LINE
8
Ebene 1
10
48.354693
20
6.250535
11
49.806850
21
6.112830
0
LINE
8
Ebene 1
10
49.806850
20
6.112830
11
52.320457
21
6.573163
0
LINE
8
Ebene 1
10
52.320457
20
6.573163
11
54.009431
21
7.241625
0
LINE
8
Ebene 1
10
54.009431
20
7.241625
11
55.352095
21
8.160234
0
LINE
8
Ebene 1
10
55.352095
20
8.160234
11
56.826770
21
9.371010
0
LINE
8
Ebene 1
10
56.826770
20
9.371010
11
58.348520
21
10.736470
0
LINE
8
Ebene 1
10
58.348520
20
10.736470
11
60.238070
21
8.987410
0
LINE
8
Ebene 1
10
60.238070
20
8.987410
11
65.816760
21
12.138250
0
LINE
8
Ebene 1
10
65.816760
20
12.138250
11
65.816760
21
12.624450
0
LINE
8
Ebene 1
10
65.816760
20
12.624450
11
67.666850
21
19.358650
0
LINE
8
Ebene 1
10
67.666850
20
19.358650
11
60.634300
21
20.774630
0
LINE
8
Ebene 1
10
60.634300
20
20.774630
11
59.500880
21
16.081530
0
LINE
8
Ebene 1
10
59.500880
20
16.081530
11
54.758840
21
14.442970
0
LINE
8
Ebene 1
10
54.758840
20
14.442970
11
54.758840
21
14.102000
0
LINE
8
Ebene 1
10
54.758840
20
14.102000
11
57.189760
21
11.833490
0
LINE
8
Ebene 1
10
57.189760
20
11.833490
11
55.980570
21
11.274670
0
LINE
8
Ebene 1
10
55.980570
20
11.274670
11
53.753196
21
10.576630
0
LINE
8
Ebene 1
10
53.753196
20
10.576630
11
52.625281
21
10.325229
0
LINE
8
Ebene 1
10
52.625281
20
10.325229
11
51.456380
21
10.259650
0
LINE
8
Ebene 1
10
51.456380
20
10.259650
11
50.351010
21
10.425049
0
LINE
8
Ebene 1
10
50.351010
20
10.425049
11
49.301811
21
10.785686
0
LINE
8
Ebene 1
10
49.301811
20
10.785686
11
47.396280
21
11.940830
0
LINE
8
Ebene 1
10
47.396280
20
11.940830
11
46.513615
21
12.619480
0
LINE
8
Ebene 1
10
46.513615
20
12.619480
11
46.103768
21
13.034710
0
LINE
8
Ebene 1
10
46.103768
20
13.034710
11
45.852440
21
13.486260
0
LINE
8
Ebene 1
10
45.852440
20
13.486260
11
45.844385
21
13.941911
0
LINE
8
Ebene 1
10
45.844385
20
13.941911
11
46.060734
21
14.306848
0
LINE
8
Ebene 1
10
46.060734
20
14.306848
11
46.813790
21
14.777530
0
LINE
8
Ebene 1
10
46.813790
20
14.777530
11
49.030110
21
15.756250
0
LINE
8
Ebene 1
10
49.030110
20
15.756250
11
51.994514
21
17.214431
0
LINE
8
Ebene 1
10
51.994514
20
17.214431
11
53.862658
21
18.455053
0
LINE
8
Ebene 1
10
53.862658
20
18.455053
11
55.281825
21
19.899985
0
LINE
8
Ebene 1
10
55.281825
20
19.899985
11
56.899300
21
21.971100
0
LINE
8
Ebene 1
10
56.899300
20
21.971100
11
57.786757
21
23.535375
0
LINE
8
Ebene 1
10
57.786757
20
23.535375
11
58.299320
21
24.764110
0
LINE
8
Ebene 1
10
58.299320
20
24.764110
11
59.093520
21
27.833930
0
LINE
8
Ebene 1
10
59.093520
20
27.833930
11
59.135378
21
29.651348
0
LINE
8
Ebene 1
10
59.135378
20
29.651348
11
58.999264
21
31.392303
0
LINE
8
Ebene 1
10
58.999264
20
31.392303
11
58.648235
21
33.072743
0
LINE
8
Ebene 1
10
58.648235
20
33.072743
11
58.045350
21
34.708620
0
LINE
8
Ebene 1
10
58.045350
20
34.708620
11
56.797364
21
36.362673
0
LINE
8
Ebene 1
10
56.797364
20
36.362673
11
56.506312
21
37.197072
0
LINE
8
Ebene 1
10
56.506312
20
37.197072
11
56.599370
21
38.427740
0
LINE
8
Ebene 1
10
56.599370
20
38.427740
11
56.822843
21
39.094420
0
LINE
8
Ebene 1
10
56.822843
20
39.094420
11
56.957710
21
39.674820
0
LINE
8
Ebene 1
10
56.957710
20
39.674820
11
56.994010
21
39.995270
0
LINE
8
Ebene 1
10
56.994010
20
39.995270
11
56.876491
21
40.576409
0
LINE
8
Ebene 1
10
56.876491
20
40.576409
11
56.556050
21
41.051096
0
LINE
8
Ebene 1
10
56.556050
20
41.051096
11
56.080862
21
41.371203
0
LINE
8
Ebene 1
10
56.080862
20
41.371203
11
55.499100
21
41.488600
0
LINE
8
Ebene 1
10
55.499100
20
41.488600
11
55.020035
21
41.409334
0
LINE
8
Ebene 1
10
55.020035
20
41.409334
11
54.605620
21
41.188670
0
LINE
8
Ebene 1
10
54.605620
20
41.188670
11
53.796919
21
40.665197
0
LINE
8
Ebene 1
10
53.796919
20
40.665197
11
53.232881
21
39.859146
0
LINE
8
Ebene 1
10
53.232881
20
39.859146
11
52.897821
21
38.870952
0
LINE
8
Ebene 1
10
52.897821
20
38.870952
11
52.776050
21
37.801050
0
LINE
8
Ebene 1
10
52.776050
20
37.801050
11
52.891924
21
36.134528
0
LINE
8
Ebene 1
10
52.891924
20
36.134528
11
53.232791
21
34.720634
0
LINE
8
Ebene 1
10
53.232791
20
34.720634
11
54.233080
21
31.775630
0
LINE
8
Ebene 1
10
54.233080
20
31.775630
11
54.398606
21
30.912233
0
LINE
8
Ebene 1
10
54.398606
20
30.912233
11
54.412113
21
30.027119
0
LINE
8
Ebene 1
10
54.412113
20
30.027119
11
54.101754
21
28.313265
0
LINE
8
Ebene 1
10
54.101754
20
28.313265
11
53.539370
21
26.877121
0
LINE
8
Ebene 1
10
53.539370
20
26.877121
11
52.962330
21
25.961740
0
LINE
8
Ebene 1
10
52.962330
20
25.961740
11
51.464090
21
24.647394
0
LINE
8
Ebene 1
10
51.464090
20
24.647394
11
49.677310
21
23.724900
0
LINE
8
Ebene 1
10
49.677310
20
23.724900
11
47.145280
21
22.921400
0
LINE
8
Ebene 1
10
47.145280
20
22.921400
11
46.206668
21
22.573571
0
LINE
8
Ebene 1
10
46.206668
20
22.573571
11
45.909303
21
22.602029
0
LINE
8
Ebene 1
10
45.909303
20
22.602029
11
45.726915
21
22.745785
0
LINE
8
Ebene 1
10
45.726915
20
22.745785
11
45.708112
21
23.320336
0
LINE
8
Ebene 1
10
45.708112
20
23.320336
11
46.152350
21
24.179520
0
LINE
8
Ebene 1
10
46.152350
20
24.179520
11
47.059961
21
25.800872
0
LINE
8
Ebene 1
10
47.059961
20
25.800872
11
47.657693
21
27.557443
0
LINE
8
Ebene 1
10
47.657693
20
27.557443
11
48.026445
21
29.389505
0
LINE
8
Ebene 1
10
48.026445
20
29.389505
11
48.247120
21
31.237330
0
LINE
8
Ebene 1
10
48.247120
20
31.237330
11
48.327822
21
34.516154
0
LINE
8
Ebene 1
10
48.327822
20
34.516154
11
47.894306
21
37.790978
0
LINE
8
Ebene 1
10
47.894306
20
37.790978
11
47.454395
21
39.374215
0
LINE
8
Ebene 1
10
47.454395
20
39.374215
11
46.849542
21
40.893244
0
LINE
8
Ebene 1
10
46.849542
20
40.893244
11
46.067620
21
42.326996
0
LINE
8
Ebene 1
10
46.067620
20
42.326996
11
45.096500
21
43.654400
0
LINE
8
Ebene 1
10
45.096500
20
43.654400
11
43.020420
21
45.732026
0
LINE
8
Ebene 1
10
43.020420
20
45.732026
11
41.825121
21
46.649016
0
LINE
8
Ebene 1
10
41.825121
20
46.649016
11
40.600720
21
47.378260
0
LINE
8
Ebene 1
10
40.600720
20
47.378260
11
38.872498
21
48.119965
0
LINE
8
Ebene 1
10
38.872498
20
48.119965
11
37.019910
21
48.693633
0
LINE
8
Ebene 1
10
37.019910
20
48.693633
11
35.089089
21
49.072926
0
LINE
8
Ebene 1
10
35.089089
20
49.072926
11
33.126170
21
49.231510
0
LINE
8
Ebene 1
10
33.126170
20
49.231510
11
33.123660
21
49.230750
0
LINE
8
Ebene 1
10
55.469970
20
47.467480
11
55.058795
21
47.335671
0
LINE
8
Ebene 1
10
55.058795
20
47.335671
11
54.846495
21
47.112063
0
LINE
8
Ebene 1
10
54.846495
20
47.112063
11
54.754870
21
46.720810
0
LINE
8
Ebene 1
10
54.754870
20
46.720810
11
54.871537
21
46.288445
0
LINE
8
Ebene 1
10
54.871537
20
46.288445
11
55.128205
21
46.066288
0
LINE
8
Ebene 1
10
55.128205
20
46.066288
11
55.501540
21
45.972570
0
LINE
8
Ebene 1
10
55.501540
20
45.972570
11
56.705576
21
45.851090
0
LINE
8
Ebene 1
10
56.705576
20
45.851090
11
57.826925
21
45.502691
0
LINE
8
Ebene 1
10
57.826925
20
45.502691
11
58.841594
21
44.951437
0
LINE
8
Ebene 1
10
58.841594
20
44.951437
11
59.725585
21
44.221389
0
LINE
8
Ebene 1
10
59.725585
20
44.221389
11
60.454904
21
43.336610
0
LINE
8
Ebene 1
10
60.454904
20
43.336610
11
61.005555
21
42.321162
0
LINE
8
Ebene 1
10
61.005555
20
42.321162
11
61.353542
21
41.199108
0
LINE
8
Ebene 1
10
61.353542
20
41.199108
11
61.474870
21
39.994510
0
LINE
8
Ebene 1
10
61.474870
20
39.994510
11
61.568106
21
39.620385
0
LINE
8
Ebene 1
10
61.568106
20
39.620385
11
61.789762
21
39.363174
0
LINE
8
Ebene 1
10
61.789762
20
39.363174
11
62.221540
21
39.246260
0
LINE
8
Ebene 1
10
62.221540
20
39.246260
11
62.653631
21
39.363174
0
LINE
8
Ebene 1
10
62.653631
20
39.363174
11
62.875819
21
39.620385
0
LINE
8
Ebene 1
10
62.875819
20
39.620385
11
62.969780
21
39.994510
0
LINE
8
Ebene 1
10
62.969780
20
39.994510
11
62.818069
21
41.500503
0
LINE
8
Ebene 1
10
62.818069
20
41.500503
11
62.382946
21
42.903223
0
LINE
8
Ebene 1
10
62.382946
20
42.903223
11
61.694429
21
44.172610
0
LINE
8
Ebene 1
10
61.694429
20
44.172610
11
60.782535
21
45.278605
0
LINE
8
Ebene 1
10
60.782535
20
45.278605
11
59.677282
21
46.191149
0
LINE
8
Ebene 1
10
59.677282
20
46.191149
11
58.408687
21
46.880182
0
LINE
8
Ebene 1
10
58.408687
20
46.880182
11
57.006767
21
47.315646
0
LINE
8
Ebene 1
10
57.006767
20
47.315646
11
55.501540
21
47.467480
0
LINE
8
Ebene 1
10
55.501540
20
47.467480
11
55.469940
21
47.467480
0
LINE
8
Ebene 1
10
55.469940
20
47.467480
11
55.469970
21
47.467480
0
LINE
8
Ebene 1
10
55.501570
20
44.477660
11
55.128235
21
44.374941
0
LINE
8
Ebene 1
10
55.128235
20
44.374941
11
54.871567
21
44.151656
0
LINE
8
Ebene 1
10
54.871567
20
44.151656
11
54.754900
21
43.729410
0
LINE
8
Ebene 1
10
54.754900
20
43.729410
11
54.871567
21
43.307404
0
LINE
8
Ebene 1
10
54.871567
20
43.307404
11
55.128235
21
43.084666
0
LINE
8
Ebene 1
10
55.128235
20
43.084666
11
55.501570
21
42.982750
0
LINE
8
Ebene 1
10
55.501570
20
42.982750
11
56.663926
21
42.747933
0
LINE
8
Ebene 1
10
56.663926
20
42.747933
11
57.613295
21
42.107552
0
LINE
8
Ebene 1
10
57.613295
20
42.107552
11
58.253469
21
41.157710
0
LINE
8
Ebene 1
10
58.253469
20
41.157710
11
58.488240
21
39.994510
0
LINE
8
Ebene 1
10
58.488240
20
39.994510
11
58.581471
21
39.620385
0
LINE
8
Ebene 1
10
58.581471
20
39.620385
11
58.803123
21
39.363174
0
LINE
8
Ebene 1
10
58.803123
20
39.363174
11
59.234900
21
39.246260
0
LINE
8
Ebene 1
10
59.234900
20
39.246260
11
59.666995
21
39.363174
0
LINE
8
Ebene 1
10
59.666995
20
39.363174
11
59.889183
21
39.620385
0
LINE
8
Ebene 1
10
59.889183
20
39.620385
11
59.983140
21
39.994510
0
LINE
8
Ebene 1
10
59.983140
20
39.994510
11
59.892060
21
40.897712
0
LINE
8
Ebene 1
10
59.892060
20
40.897712
11
59.630852
21
41.739101
0
LINE
8
Ebene 1
10
59.630852
20
41.739101
11
59.217562
21
42.500609
0
LINE
8
Ebene 1
10
59.217562
20
42.500609
11
58.670240
21
43.164172
0
LINE
8
Ebene 1
10
58.670240
20
43.164172
11
58.006932
21
43.711725
0
LINE
8
Ebene 1
10
58.006932
20
43.711725
11
57.245686
21
44.125201
0
LINE
8
Ebene 1
10
57.245686
20
44.125201
11
56.404549
21
44.386534
0
LINE
8
Ebene 1
10
56.404549
20
44.386534
11
55.501570
21
44.477660
0
LINE
8
Ebene 1
10
55.501570
20
44.477660
11
55.501570
21
44.477660
0
LINE
8
Ebene 1
10
33.385740
20
44.075120
11
35.524811
21
43.845144
0
LINE
8
Ebene 1
10
35.524811
20
43.845144
11
37.517189
21
43.185558
0
LINE
8
Ebene 1
10
37.517189
20
43.185558
11
39.320180
21
42.141880
0
LINE
8
Ebene 1
10
39.320180
20
42.141880
11
40.891091
21
40.759625
0
LINE
8
Ebene 1
10
40.891091
20
40.759625
11
42.187229
21
39.084309
0
LINE
8
Ebene 1
10
42.187229
20
39.084309
11
43.165901
21
37.161449
0
LINE
8
Ebene 1
10
43.165901
20
37.161449
11
43.784412
21
35.036561
0
LINE
8
Ebene 1
10
43.784412
20
35.036561
11
44.000070
21
32.755160
0
LINE
8
Ebene 1
10
44.000070
20
32.755160
11
43.784478
21
30.473759
0
LINE
8
Ebene 1
10
43.784478
20
30.473759
11
43.166126
21
28.348871
0
LINE
8
Ebene 1
10
43.166126
20
28.348871
11
42.187651
21
26.426011
0
LINE
8
Ebene 1
10
42.187651
20
26.426011
11
40.891691
21
24.750695
0
LINE
8
Ebene 1
10
40.891691
20
24.750695
11
39.320883
21
23.368440
0
LINE
8
Ebene 1
10
39.320883
20
23.368440
11
37.517864
21
22.324762
0
LINE
8
Ebene 1
10
37.517864
20
22.324762
11
35.525270
21
21.665176
0
LINE
8
Ebene 1
10
35.525270
20
21.665176
11
33.385740
21
21.435200
0
LINE
8
Ebene 1
10
33.385740
20
21.435200
11
31.246666
21
21.665176
0
LINE
8
Ebene 1
10
31.246666
20
21.665176
11
29.254286
21
22.324762
0
LINE
8
Ebene 1
10
29.254286
20
22.324762
11
27.451293
21
23.368440
0
LINE
8
Ebene 1
10
27.451293
20
23.368440
11
25.880380
21
24.750695
0
LINE
8
Ebene 1
10
25.880380
20
24.750695
11
24.584241
21
26.426011
0
LINE
8
Ebene 1
10
24.584241
20
26.426011
11
23.605569
21
28.348871
0
LINE
8
Ebene 1
10
23.605569
20
28.348871
11
22.987058
21
30.473759
0
LINE
8
Ebene 1
10
22.987058
20
30.473759
11
22.771400
21
32.755160
0
LINE
8
Ebene 1
10
22.771400
20
32.755160
11
22.987058
21
35.036561
0
LINE
8
Ebene 1
10
22.987058
20
35.036561
11
23.605569
21
37.161449
0
LINE
8
Ebene 1
10
23.605569
20
37.161449
11
24.584241
21
39.084309
0
LINE
8
Ebene 1
10
24.584241
20
39.084309
11
25.880380
21
40.759625
0
LINE
8
Ebene 1
10
25.880380
20
40.759625
11
27.451293
21
42.141880
0
LINE
8
Ebene 1
10
27.451293
20
42.141880
11
29.254286
21
43.185558
0
LINE
8
Ebene 1
10
29.254286
20
43.185558
11
31.246666
21
43.845144
0
LINE
8
Ebene 1
10
31.246666
20
43.845144
11
33.385740
21
44.075120
0
LINE
8
Ebene 1
10
33.385740
20
44.075120
11
33.385740
21
44.075120
0
LINE
8
Ebene 1
10
61.064470
20
19.968700
11
66.633680
21
18.715320
0
LINE
8
Ebene 1
10
66.633680
20
18.715320
11
65.178240
21
13.409720
0
LINE
8
Ebene 1
10
65.178240
20
13.409720
11
60.092070
21
16.074360
0
LINE
8
Ebene 1
10
60.092070
20
16.074360
11
61.064470
21
19.968700
0
LINE
8
Ebene 1
10
61.517520
20
19.529860
11
61.432320
21
19.512460
0
LINE
8
Ebene 1
10
61.432320
20
19.512460
11
61.414920
21
19.506460
0
LINE
8
Ebene 1
10
61.414920
20
19.506460
11
61.412920
21
19.504460
0
LINE
8
Ebene 1
10
61.412920
20
19.504460
11
61.393920
21
19.496460
0
LINE
8
Ebene 1
10
61.393920
20
19.496460
11
61.391920
21
19.494460
0
LINE
8
Ebene 1
10
61.391920
20
19.494460
11
61.374520
21
19.485460
0
LINE
8
Ebene 1
10
61.374520
20
19.485460
11
61.372520
21
19.483460
0
LINE
8
Ebene 1
10
61.372520
20
19.483460
11
61.356720
21
19.472360
0
LINE
8
Ebene 1
10
61.356720
20
19.472360
11
61.354720
21
19.470360
0
LINE
8
Ebene 1
10
61.354720
20
19.470360
11
61.337320
21
19.457760
0
LINE
8
Ebene 1
10
61.337320
20
19.457760
11
61.335320
21
19.455760
0
LINE
8
Ebene 1
10
61.335320
20
19.455760
11
61.319520
21
19.441560
0
LINE
8
Ebene 1
10
61.319520
20
19.441560
11
61.317520
21
19.439560
0
LINE
8
Ebene 1
10
61.317520
20
19.439560
11
61.301720
21
19.423760
0
LINE
8
Ebene 1
10
61.301720
20
19.423760
11
61.299720
21
19.421760
0
LINE
8
Ebene 1
10
61.299720
20
19.421760
11
61.285520
21
19.404360
0
LINE
8
Ebene 1
10
61.285520
20
19.404360
11
61.283520
21
19.402360
0
LINE
8
Ebene 1
10
61.283520
20
19.402360
11
61.269320
21
19.383460
0
LINE
8
Ebene 1
10
61.269320
20
19.383460
11
61.267320
21
19.381460
0
LINE
8
Ebene 1
10
61.267320
20
19.381460
11
61.253120
21
19.360960
0
LINE
8
Ebene 1
10
61.253120
20
19.360960
11
61.251120
21
19.358960
0
LINE
8
Ebene 1
10
61.251120
20
19.358960
11
61.236920
21
19.338460
0
LINE
8
Ebene 1
10
61.236920
20
19.338460
11
61.234920
21
19.336460
0
LINE
8
Ebene 1
10
61.234920
20
19.336460
11
61.231920
21
19.331460
0
LINE
8
Ebene 1
10
61.231920
20
19.331460
11
61.206720
21
19.287260
0
LINE
8
Ebene 1
10
61.206720
20
19.287260
11
61.204720
21
19.285260
0
LINE
8
Ebene 1
10
61.204720
20
19.285260
11
61.192120
21
19.260060
0
LINE
8
Ebene 1
10
61.192120
20
19.260060
11
61.190120
21
19.258060
0
LINE
8
Ebene 1
10
61.190120
20
19.258060
11
61.185120
21
19.249060
0
LINE
8
Ebene 1
10
61.185120
20
19.249060
11
61.164620
21
19.201760
0
LINE
8
Ebene 1
10
61.164620
20
19.201760
11
61.162620
21
19.198760
0
LINE
8
Ebene 1
10
61.162620
20
19.198760
11
61.151520
21
19.168760
0
LINE
8
Ebene 1
10
61.151520
20
19.168760
11
61.149520
21
19.166760
0
LINE
8
Ebene 1
10
61.149520
20
19.166760
11
61.125820
21
19.103560
0
LINE
8
Ebene 1
10
61.125820
20
19.103560
11
61.123820
21
19.101560
0
LINE
8
Ebene 1
10
61.123820
20
19.101560
11
61.101720
21
19.032060
0
LINE
8
Ebene 1
10
61.101720
20
19.032060
11
61.099720
21
19.030060
0
LINE
8
Ebene 1
10
61.099720
20
19.030060
11
61.057120
21
18.872210
0
LINE
8
Ebene 1
10
61.057120
20
18.872210
11
61.017620
21
18.651210
0
LINE
8
Ebene 1
10
61.017620
20
18.651210
11
61.009620
21
18.583310
0
LINE
8
Ebene 1
10
61.009620
20
18.583310
11
61.009620
21
18.580310
0
LINE
8
Ebene 1
10
61.009620
20
18.580310
11
61.006620
21
18.550310
0
LINE
8
Ebene 1
10
61.006620
20
18.550310
11
61.006620
21
18.547310
0
LINE
8
Ebene 1
10
61.006620
20
18.547310
11
61.004620
21
18.517310
0
LINE
8
Ebene 1
10
61.004620
20
18.517310
11
61.004620
21
18.514310
0
LINE
8
Ebene 1
10
61.004620
20
18.514310
11
61.002620
21
18.485910
0
LINE
8
Ebene 1
10
61.002620
20
18.485910
11
61.002620
21
18.482910
0
LINE
8
Ebene 1
10
61.002620
20
18.482910
11
61.002620
21
18.454510
0
LINE
8
Ebene 1
10
61.002620
20
18.454510
11
61.002620
21
18.451510
0
LINE
8
Ebene 1
10
61.002620
20
18.451510
11
61.004620
21
18.426310
0
LINE
8
Ebene 1
10
61.004620
20
18.426310
11
61.004620
21
18.423310
0
LINE
8
Ebene 1
10
61.004620
20
18.423310
11
61.006620
21
18.396510
0
LINE
8
Ebene 1
10
61.006620
20
18.396510
11
61.006620
21
18.393510
0
LINE
8
Ebene 1
10
61.006620
20
18.393510
11
61.009620
21
18.368310
0
LINE
8
Ebene 1
10
61.009620
20
18.368310
11
61.009620
21
18.365310
0
LINE
8
Ebene 1
10
61.009620
20
18.365310
11
61.012620
21
18.341610
0
LINE
8
Ebene 1
10
61.012620
20
18.341610
11
61.012620
21
18.338610
0
LINE
8
Ebene 1
10
61.012620
20
18.338610
11
61.017620
21
18.314910
0
LINE
8
Ebene 1
10
61.017620
20
18.314910
11
61.017620
21
18.311910
0
LINE
8
Ebene 1
10
61.017620
20
18.311910
11
61.023620
21
18.289810
0
LINE
8
Ebene 1
10
61.023620
20
18.289810
11
61.080420
21
18.157210
0
LINE
8
Ebene 1
10
61.080420
20
18.157210
11
61.110420
21
18.120910
0
LINE
8
Ebene 1
10
61.110420
20
18.120910
11
61.124620
21
18.108310
0
LINE
8
Ebene 1
10
61.124620
20
18.108310
11
61.227220
21
18.045210
0
LINE
8
Ebene 1
10
61.227220
20
18.045210
11
61.396130
21
18.036210
0
LINE
8
Ebene 1
10
61.396130
20
18.036210
11
61.544520
21
18.141970
0
LINE
8
Ebene 1
10
61.544520
20
18.141970
11
61.625020
21
18.265100
0
LINE
8
Ebene 1
10
61.625020
20
18.265100
11
61.670820
21
18.355100
0
LINE
8
Ebene 1
10
61.670820
20
18.355100
11
61.770220
21
18.669230
0
LINE
8
Ebene 1
10
61.770220
20
18.669230
11
61.770220
21
18.672230
0
LINE
8
Ebene 1
10
61.770220
20
18.672230
11
61.779220
21
18.713230
0
LINE
8
Ebene 1
10
61.779220
20
18.713230
11
61.791820
21
18.762130
0
LINE
8
Ebene 1
10
61.791820
20
18.762130
11
61.807620
21
18.844230
0
LINE
8
Ebene 1
10
61.807620
20
18.844230
11
61.807620
21
18.847230
0
LINE
8
Ebene 1
10
61.807620
20
18.847230
11
61.829720
21
19.001930
0
LINE
8
Ebene 1
10
61.829720
20
19.001930
11
61.829720
21
19.004930
0
LINE
8
Ebene 1
10
61.829720
20
19.004930
11
61.824720
21
19.232240
0
LINE
8
Ebene 1
10
61.824720
20
19.232240
11
61.824720
21
19.235240
0
LINE
8
Ebene 1
10
61.824720
20
19.235240
11
61.819720
21
19.258940
0
LINE
8
Ebene 1
10
61.819720
20
19.258940
11
61.819720
21
19.261940
0
LINE
8
Ebene 1
10
61.819720
20
19.261940
11
61.813720
21
19.285640
0
LINE
8
Ebene 1
10
61.813720
20
19.285640
11
61.813720
21
19.288640
0
LINE
8
Ebene 1
10
61.813720
20
19.288640
11
61.805720
21
19.310740
0
LINE
8
Ebene 1
10
61.805720
20
19.310740
11
61.805720
21
19.312740
0
LINE
8
Ebene 1
10
61.805720
20
19.312740
11
61.797720
21
19.334840
0
LINE
8
Ebene 1
10
61.797720
20
19.334840
11
61.797720
21
19.336840
0
LINE
8
Ebene 1
10
61.797720
20
19.336840
11
61.737720
21
19.434740
0
LINE
8
Ebene 1
10
61.737720
20
19.434740
11
61.721920
21
19.450540
0
LINE
8
Ebene 1
10
61.721920
20
19.450540
11
61.578270
21
19.520040
0
LINE
8
Ebene 1
10
61.578270
20
19.520040
11
61.508770
21
19.526040
0
LINE
8
Ebene 1
10
61.508770
20
19.526040
11
61.517520
21
19.529860
0
LINE
8
Ebene 1
10
50.794260
20
4.317130
11
51.785600
21
2.189210
0
LINE
8
Ebene 1
10
51.785600
20
2.189210
11
50.707440
21
1.685650
0
LINE
8
Ebene 1
10
50.707440
20
1.685650
11
49.716090
21
3.813570
0
LINE
8
Ebene 1
10
49.716090
20
3.813570
11
50.731120
21
4.288720
0
LINE
8
Ebene 1
10
50.731120
20
4.288720
11
50.794260
21
4.317130
0
LINE
8
Ebene 1
10
2.568790
20
24.993310
11
2.497790
21
24.991310
0
LINE
8
Ebene 1
10
2.497790
20
24.991310
11
2.355720
21
24.977110
0
LINE
8
Ebene 1
10
2.355720
20
24.977110
11
2.344620
21
24.968110
0
LINE
8
Ebene 1
10
2.344620
20
24.968110
11
2.115720
21
24.447180
0
LINE
8
Ebene 1
10
2.115720
20
24.447180
11
2.081020
21
24.434480
0
LINE
8
Ebene 1
10
2.081020
20
24.434480
11
2.027320
21
24.420280
0
LINE
8
Ebene 1
10
2.027320
20
24.420280
11
1.891560
21
24.393480
0
LINE
8
Ebene 1
10
1.891560
20
24.393480
11
1.820560
21
24.382380
0
LINE
8
Ebene 1
10
1.820560
20
24.382380
11
1.757360
21
24.377380
0
LINE
8
Ebene 1
10
1.757360
20
24.377380
11
1.708460
21
24.377380
0
LINE
8
Ebene 1
10
1.708460
20
24.377380
11
1.706460
21
24.377380
0
LINE
8
Ebene 1
10
1.706460
20
24.377380
11
1.690660
21
24.379380
0
LINE
8
Ebene 1
10
1.690660
20
24.379380
11
1.688660
21
24.379380
0
LINE
8
Ebene 1
10
1.688660
20
24.379380
11
1.677660
21
24.384380
0
LINE
8
Ebene 1
10
1.677660
20
24.384380
11
1.675660
21
24.384380
0
LINE
8
Ebene 1
10
1.675660
20
24.384380
11
1.647260
21
24.404880
0
LINE
8
Ebene 1
10
1.647260
20
24.404880
11
1.645260
21
24.404880
0
LINE
8
Ebene 1
10
1.645260
20
24.404880
11
1.616860
21
24.428580
0
LINE
8
Ebene 1
10
1.616860
20
24.428580
11
1.614860
21
24.428580
0
LINE
8
Ebene 1
10
1.614860
20
24.428580
11
1.559560
21
24.482280
0
LINE
8
Ebene 1
10
1.559560
20
24.482280
11
1.348040
21
24.730110
0
LINE
8
Ebene 1
10
1.348040
20
24.730110
11
1.270740
21
24.801110
0
LINE
8
Ebene 1
10
1.270740
20
24.801110
11
1.247040
21
24.816910
0
LINE
8
Ebene 1
10
1.247040
20
24.816910
11
1.245040
21
24.816910
0
LINE
8
Ebene 1
10
1.245040
20
24.816910
11
1.221340
21
24.824910
0
LINE
8
Ebene 1
10
1.221340
20
24.824910
11
1.219340
21
24.824910
0
LINE
8
Ebene 1
10
1.219340
20
24.824910
11
1.184640
21
24.824910
0
LINE
8
Ebene 1
10
1.184640
20
24.824910
11
1.145140
21
24.819910
0
LINE
8
Ebene 1
10
1.145140
20
24.819910
11
1.102540
21
24.808810
0
LINE
8
Ebene 1
10
1.102540
20
24.808810
11
1.061540
21
24.796210
0
LINE
8
Ebene 1
10
1.061540
20
24.796210
11
1.023640
21
24.780410
0
LINE
8
Ebene 1
10
1.023640
20
24.780410
11
0.992040
21
24.763010
0
LINE
8
Ebene 1
10
0.992040
20
24.763010
11
0.968340
21
24.748810
0
LINE
8
Ebene 1
10
0.968340
20
24.748810
11
0.916240
21
24.699910
0
LINE
8
Ebene 1
10
0.916240
20
24.699910
11
0.813630
21
24.507320
0
LINE
8
Ebene 1
10
0.813630
20
24.507320
11
1.069360
21
23.967450
0
LINE
8
Ebene 1
10
1.069360
20
23.967450
11
0.819940
21
23.610690
0
LINE
8
Ebene 1
10
0.819940
20
23.610690
11
0.778940
21
23.598090
0
LINE
8
Ebene 1
10
0.778940
20
23.598090
11
0.726840
21
23.590090
0
LINE
8
Ebene 1
10
0.726840
20
23.590090
11
0.666840
21
23.588090
0
LINE
8
Ebene 1
10
0.666840
20
23.588090
11
0.598940
21
23.588090
0
LINE
8
Ebene 1
10
0.598940
20
23.588090
11
0.596940
21
23.588090
0
LINE
8
Ebene 1
10
0.596940
20
23.588090
11
0.442240
21
23.593090
0
LINE
8
Ebene 1
10
0.442240
20
23.593090
11
0.440240
21
23.593090
0
LINE
8
Ebene 1
10
0.440240
20
23.593090
11
0.356540
21
23.595090
0
LINE
8
Ebene 1
10
0.356540
20
23.595090
11
0.271340
21
23.592090
0
LINE
8
Ebene 1
10
0.271340
20
23.592090
11
0.212940
21
23.571590
0
LINE
8
Ebene 1
10
0.212940
20
23.571590
11
0.187640
21
23.558990
0
LINE
8
Ebene 1
10
0.187640
20
23.558990
11
0.165540
21
23.541590
0
LINE
8
Ebene 1
10
0.165540
20
23.541590
11
0.089740
21
23.355320
0
LINE
8
Ebene 1
10
0.089740
20
23.355320
11
0.145040
21
23.071180
0
LINE
8
Ebene 1
10
0.145040
20
23.071180
11
0.157640
21
23.060080
0
LINE
8
Ebene 1
10
0.157640
20
23.060080
11
0.159640
21
23.060080
0
LINE
8
Ebene 1
10
0.159640
20
23.060080
11
0.235440
21
23.030080
0
LINE
8
Ebene 1
10
0.235440
20
23.030080
11
0.237440
21
23.030080
0
LINE
8
Ebene 1
10
0.237440
20
23.030080
11
0.316340
21
23.001680
0
LINE
8
Ebene 1
10
0.316340
20
23.001680
11
0.318340
21
23.001680
0
LINE
8
Ebene 1
10
0.318340
20
23.001680
11
0.473040
21
22.952780
0
LINE
8
Ebene 1
10
0.473040
20
22.952780
11
0.475040
21
22.952780
0
LINE
8
Ebene 1
10
0.475040
20
22.952780
11
0.542940
21
22.929080
0
LINE
8
Ebene 1
10
0.542940
20
22.929080
11
0.544940
21
22.929080
0
LINE
8
Ebene 1
10
0.544940
20
22.929080
11
0.603340
21
22.906980
0
LINE
8
Ebene 1
10
0.603340
20
22.906980
11
0.605340
21
22.906980
0
LINE
8
Ebene 1
10
0.605340
20
22.906980
11
0.651140
21
22.881780
0
LINE
8
Ebene 1
10
0.651140
20
22.881780
11
0.653140
21
22.881780
0
LINE
8
Ebene 1
10
0.653140
20
22.881780
11
0.681540
21
22.854980
0
LINE
8
Ebene 1
10
0.681540
20
22.854980
11
0.757340
21
22.441390
0
LINE
8
Ebene 1
10
0.757340
20
22.441390
11
0.719440
21
22.398790
0
LINE
8
Ebene 1
10
0.719440
20
22.398790
11
0.664140
21
22.348290
0
LINE
8
Ebene 1
10
0.664140
20
22.348290
11
0.520490
21
22.236210
0
LINE
8
Ebene 1
10
0.520490
20
22.236210
11
0.446290
21
22.177810
0
LINE
8
Ebene 1
10
0.446290
20
22.177810
11
0.378390
21
22.121010
0
LINE
8
Ebene 1
10
0.378390
20
22.121010
11
0.321590
21
22.065710
0
LINE
8
Ebene 1
10
0.321590
20
22.065710
11
0.283690
21
22.015210
0
LINE
8
Ebene 1
10
0.283690
20
22.015210
11
0.365790
21
21.789470
0
LINE
8
Ebene 1
10
0.365790
20
21.789470
11
0.441590
21
21.693170
0
LINE
8
Ebene 1
10
0.441590
20
21.693170
11
0.515790
21
21.636370
0
LINE
8
Ebene 1
10
0.515790
20
21.636370
11
0.517790
21
21.636370
0
LINE
8
Ebene 1
10
0.517790
20
21.636370
11
0.549390
21
21.620570
0
LINE
8
Ebene 1
10
0.549390
20
21.620570
11
0.599890
21
21.633170
0
LINE
8
Ebene 1
10
0.599890
20
21.633170
11
0.658290
21
21.652070
0
LINE
8
Ebene 1
10
0.658290
20
21.652070
11
0.722990
21
21.680470
0
LINE
8
Ebene 1
10
0.722990
20
21.680470
11
0.792490
21
21.713570
0
LINE
8
Ebene 1
10
0.792490
20
21.713570
11
0.940870
21
21.789370
0
LINE
8
Ebene 1
10
0.940870
20
21.789370
11
1.090840
21
21.871470
0
LINE
8
Ebene 1
10
1.090840
20
21.871470
11
1.092840
21
21.871470
0
LINE
8
Ebene 1
10
1.092840
20
21.871470
11
1.130740
21
21.857270
0
LINE
8
Ebene 1
10
1.130740
20
21.857270
11
1.132740
21
21.857270
0
LINE
8
Ebene 1
10
1.132740
20
21.857270
11
1.181640
21
21.832070
0
LINE
8
Ebene 1
10
1.181640
20
21.832070
11
1.183640
21
21.832070
0
LINE
8
Ebene 1
10
1.183640
20
21.832070
11
1.240440
21
21.795770
0
LINE
8
Ebene 1
10
1.240440
20
21.795770
11
1.242440
21
21.795770
0
LINE
8
Ebene 1
10
1.242440
20
21.795770
11
1.302440
21
21.754770
0
LINE
8
Ebene 1
10
1.302440
20
21.754770
11
1.304440
21
21.754770
0
LINE
8
Ebene 1
10
1.304440
20
21.754770
11
1.361240
21
21.710570
0
LINE
8
Ebene 1
10
1.361240
20
21.710570
11
1.363240
21
21.710570
0
LINE
8
Ebene 1
10
1.363240
20
21.710570
11
1.415340
21
21.667970
0
LINE
8
Ebene 1
10
1.415340
20
21.667970
11
1.417340
21
21.667970
0
LINE
8
Ebene 1
10
1.417340
20
21.667970
11
1.483640
21
21.596970
0
LINE
8
Ebene 1
10
1.483640
20
21.596970
11
1.429940
21
21.030260
0
LINE
8
Ebene 1
10
1.429940
20
21.030260
11
1.474140
21
20.978160
0
LINE
8
Ebene 1
10
1.474140
20
20.978160
11
1.500940
21
20.952960
0
LINE
8
Ebene 1
10
1.500940
20
20.952960
11
1.502940
21
20.952960
0
LINE
8
Ebene 1
10
1.502940
20
20.952960
11
1.532940
21
20.929260
0
LINE
8
Ebene 1
10
1.532940
20
20.929260
11
1.534940
21
20.929260
0
LINE
8
Ebene 1
10
1.534940
20
20.929260
11
1.569640
21
20.907160
0
LINE
8
Ebene 1
10
1.569640
20
20.907160
11
1.571640
21
20.907160
0
LINE
8
Ebene 1
10
1.571640
20
20.907160
11
1.609540
21
20.888160
0
LINE
8
Ebene 1
10
1.609540
20
20.888160
11
1.611540
21
20.888160
0
LINE
8
Ebene 1
10
1.611540
20
20.888160
11
1.652540
21
20.870860
0
LINE
8
Ebene 1
10
1.652540
20
20.870860
11
1.654540
21
20.870860
0
LINE
8
Ebene 1
10
1.654540
20
20.870860
11
1.698740
21
20.855060
0
LINE
8
Ebene 1
10
1.698740
20
20.855060
11
1.700740
21
20.855060
0
LINE
8
Ebene 1
10
1.700740
20
20.855060
11
1.961210
21
20.872460
0
LINE
8
Ebene 1
10
1.961210
20
20.872460
11
2.013310
21
21.019260
0
LINE
8
Ebene 1
10
2.013310
20
21.019260
11
2.062210
21
21.164490
0
LINE
8
Ebene 1
10
2.062210
20
21.164490
11
2.158510
21
21.404430
0
LINE
8
Ebene 1
10
2.158510
20
21.404430
11
2.633660
21
21.483330
0
LINE
8
Ebene 1
10
2.633660
20
21.483330
11
3.009360
21
21.042900
0
LINE
8
Ebene 1
10
3.009360
20
21.042900
11
3.331390
21
21.131300
0
LINE
8
Ebene 1
10
3.331390
20
21.131300
11
3.353490
21
21.148700
0
LINE
8
Ebene 1
10
3.353490
20
21.148700
11
3.355490
21
21.150700
0
LINE
8
Ebene 1
10
3.355490
20
21.150700
11
3.491250
21
21.333810
0
LINE
8
Ebene 1
10
3.491250
20
21.333810
11
3.254470
21
21.856320
0
LINE
8
Ebene 1
10
3.254470
20
21.856320
11
3.473890
21
22.230440
0
LINE
8
Ebene 1
10
3.473890
20
22.230440
11
3.511790
21
22.266740
0
LINE
8
Ebene 1
10
3.511790
20
22.266740
11
3.513790
21
22.266740
0
LINE
8
Ebene 1
10
3.513790
20
22.266740
11
3.619560
21
22.271740
0
LINE
8
Ebene 1
10
3.619560
20
22.271740
11
3.704760
21
22.269740
0
LINE
8
Ebene 1
10
3.704760
20
22.269740
11
3.706760
21
22.269740
0
LINE
8
Ebene 1
10
3.706760
20
22.269740
11
3.779360
21
22.264740
0
LINE
8
Ebene 1
10
3.779360
20
22.264740
11
3.781360
21
22.264740
0
LINE
8
Ebene 1
10
3.781360
20
22.264740
11
3.842960
21
22.256740
0
LINE
8
Ebene 1
10
3.842960
20
22.256740
11
3.844960
21
22.256740
0
LINE
8
Ebene 1
10
3.844960
20
22.256740
11
3.963350
21
22.242540
0
LINE
8
Ebene 1
10
3.963350
20
22.242540
11
3.965350
21
22.242540
0
LINE
8
Ebene 1
10
3.965350
20
22.242540
11
4.030050
21
22.239540
0
LINE
8
Ebene 1
10
4.030050
20
22.239540
11
4.032050
21
22.239540
0
LINE
8
Ebene 1
10
4.032050
20
22.239540
11
4.106250
21
22.239540
0
LINE
8
Ebene 1
10
4.106250
20
22.239540
11
4.108250
21
22.239540
0
LINE
8
Ebene 1
10
4.108250
20
22.239540
11
4.127150
21
22.241540
0
LINE
8
Ebene 1
10
4.127150
20
22.241540
11
4.146050
21
22.250540
0
LINE
8
Ebene 1
10
4.146050
20
22.250540
11
4.163450
21
22.264740
0
LINE
8
Ebene 1
10
4.163450
20
22.264740
11
4.165450
21
22.264740
0
LINE
8
Ebene 1
10
4.165450
20
22.264740
11
4.261750
21
22.490470
0
LINE
8
Ebene 1
10
4.261750
20
22.490470
11
4.255750
21
22.735160
0
LINE
8
Ebene 1
10
4.255750
20
22.735160
11
4.247750
21
22.744160
0
LINE
8
Ebene 1
10
4.247750
20
22.744160
11
4.235150
21
22.752160
0
LINE
8
Ebene 1
10
4.235150
20
22.752160
11
4.233150
21
22.752160
0
LINE
8
Ebene 1
10
4.233150
20
22.752160
11
4.185750
21
22.771060
0
LINE
8
Ebene 1
10
4.185750
20
22.771060
11
4.183750
21
22.771060
0
LINE
8
Ebene 1
10
4.183750
20
22.771060
11
4.025890
21
22.818460
0
LINE
8
Ebene 1
10
4.025890
20
22.818460
11
4.023890
21
22.818460
0
LINE
8
Ebene 1
10
4.023890
20
22.818460
11
3.930790
21
22.846860
0
LINE
8
Ebene 1
10
3.930790
20
22.846860
11
3.928790
21
22.846860
0
LINE
8
Ebene 1
10
3.928790
20
22.846860
11
3.834090
21
22.878460
0
LINE
8
Ebene 1
10
3.834090
20
22.878460
11
3.832090
21
22.878460
0
LINE
8
Ebene 1
10
3.832090
20
22.878460
11
3.743690
21
22.914760
0
LINE
8
Ebene 1
10
3.743690
20
22.914760
11
3.741690
21
22.914760
0
LINE
8
Ebene 1
10
3.741690
20
22.914760
11
3.702190
21
22.933660
0
LINE
8
Ebene 1
10
3.702190
20
22.933660
11
3.700190
21
22.933660
0
LINE
8
Ebene 1
10
3.700190
20
22.933660
11
3.665490
21
22.954160
0
LINE
8
Ebene 1
10
3.665490
20
22.954160
11
3.613390
21
23.418260
0
LINE
8
Ebene 1
10
3.613390
20
23.418260
11
3.635490
21
23.441960
0
LINE
8
Ebene 1
10
3.635490
20
23.441960
11
3.684390
21
23.486160
0
LINE
8
Ebene 1
10
3.684390
20
23.486160
11
3.829620
21
23.606130
0
LINE
8
Ebene 1
10
3.829620
20
23.606130
11
3.971690
21
23.726100
0
LINE
8
Ebene 1
10
3.971690
20
23.726100
11
4.018990
21
23.767100
0
LINE
8
Ebene 1
10
4.018990
20
23.767100
11
4.020990
21
23.767100
0
LINE
8
Ebene 1
10
4.020990
20
23.767100
11
4.039890
21
23.789200
0
LINE
8
Ebene 1
10
4.039890
20
23.789200
11
3.964090
21
24.044930
0
LINE
8
Ebene 1
10
3.964090
20
24.044930
11
3.859910
21
24.174380
0
LINE
8
Ebene 1
10
3.859910
20
24.174380
11
3.814110
21
24.213880
0
LINE
8
Ebene 1
10
3.814110
20
24.213880
11
3.812110
21
24.213880
0
LINE
8
Ebene 1
10
3.812110
20
24.213880
11
3.764810
21
24.243880
0
LINE
8
Ebene 1
10
3.764810
20
24.243880
11
3.762810
21
24.243880
0
LINE
8
Ebene 1
10
3.762810
20
24.243880
11
3.747010
21
24.246880
0
LINE
8
Ebene 1
10
3.747010
20
24.246880
11
3.726510
21
24.243880
0
LINE
8
Ebene 1
10
3.726510
20
24.243880
11
3.699710
21
24.234880
0
LINE
8
Ebene 1
10
3.699710
20
24.234880
11
3.671310
21
24.222280
0
LINE
8
Ebene 1
10
3.671310
20
24.222280
11
3.601810
21
24.184380
0
LINE
8
Ebene 1
10
3.601810
20
24.184380
11
3.522910
21
24.135480
0
LINE
8
Ebene 1
10
3.522910
20
24.135480
11
3.354000
21
24.034450
0
LINE
8
Ebene 1
10
3.354000
20
24.034450
11
3.273500
21
23.991850
0
LINE
8
Ebene 1
10
3.273500
20
23.991850
11
3.237200
21
23.976050
0
LINE
8
Ebene 1
10
3.237200
20
23.976050
11
3.204000
21
23.963450
0
LINE
8
Ebene 1
10
3.204000
20
23.963450
11
3.202000
21
23.963450
0
LINE
8
Ebene 1
10
3.202000
20
23.963450
11
3.153100
21
23.977650
0
LINE
8
Ebene 1
10
3.153100
20
23.977650
11
3.099400
21
24.002850
0
LINE
8
Ebene 1
10
3.099400
20
24.002850
11
3.097400
21
24.002850
0
LINE
8
Ebene 1
10
3.097400
20
24.002850
11
3.042100
21
24.037550
0
LINE
8
Ebene 1
10
3.042100
20
24.037550
11
3.040100
21
24.037550
0
LINE
8
Ebene 1
10
3.040100
20
24.037550
11
2.986400
21
24.078650
0
LINE
8
Ebene 1
10
2.986400
20
24.078650
11
2.984400
21
24.078650
0
LINE
8
Ebene 1
10
2.984400
20
24.078650
11
2.930700
21
24.124450
0
LINE
8
Ebene 1
10
2.930700
20
24.124450
11
2.928700
21
24.124450
0
LINE
8
Ebene 1
10
2.928700
20
24.124450
11
2.879800
21
24.173350
0
LINE
8
Ebene 1
10
2.879800
20
24.173350
11
2.804000
21
24.264850
0
LINE
8
Ebene 1
10
2.804000
20
24.264850
11
2.873500
21
24.858400
0
LINE
8
Ebene 1
10
2.873500
20
24.858400
11
2.871500
21
24.858400
0
LINE
8
Ebene 1
10
2.871500
20
24.858400
11
2.811500
21
24.905700
0
LINE
8
Ebene 1
10
2.811500
20
24.905700
11
2.809500
21
24.905700
0
LINE
8
Ebene 1
10
2.809500
20
24.905700
11
2.762200
21
24.938900
0
LINE
8
Ebene 1
10
2.762200
20
24.938900
11
2.760200
21
24.938900
0
LINE
8
Ebene 1
10
2.760200
20
24.938900
11
2.708100
21
24.964200
0
LINE
8
Ebene 1
10
2.708100
20
24.964200
11
2.706100
21
24.964200
0
LINE
8
Ebene 1
10
2.706100
20
24.964200
11
2.630300
21
24.987900
0
LINE
8
Ebene 1
10
2.630300
20
24.987900
11
2.628300
21
24.987900
0
LINE
8
Ebene 1
10
2.628300
20
24.987900
11
2.603100
21
24.990900
0
LINE
8
Ebene 1
10
2.603100
20
24.990900
11
2.601100
21
24.990900
0
LINE
8
Ebene 1
10
2.601100
20
24.990900
11
2.569500
21
24.993900
0
LINE
8
Ebene 1
10
2.569500
20
24.993900
11
2.568790
21
24.993310
0
LINE
8
Ebene 1
10
2.191510
20
23.902510
11
2.379370
21
23.874110
0
LINE
8
Ebene 1
10
2.379370
20
23.874110
11
2.957180
21
23.447036
0
LINE
8
Ebene 1
10
2.957180
20
23.447036
11
3.064470
21
22.735960
0
LINE
8
Ebene 1
10
3.064470
20
22.735960
11
3.036070
21
22.644360
0
LINE
8
Ebene 1
10
3.036070
20
22.644360
11
2.781920
21
22.265510
0
LINE
8
Ebene 1
10
2.781920
20
22.265510
11
2.712420
21
22.208710
0
LINE
8
Ebene 1
10
2.712420
20
22.208710
11
2.638220
21
22.158210
0
LINE
8
Ebene 1
10
2.638220
20
22.158210
11
2.475630
21
22.080910
0
LINE
8
Ebene 1
10
2.475630
20
22.080910
11
2.388830
21
22.054110
0
LINE
8
Ebene 1
10
2.388830
20
22.054110
11
2.300430
21
22.035210
0
LINE
8
Ebene 1
10
2.300430
20
22.035210
11
2.208830
21
22.026210
0
LINE
8
Ebene 1
10
2.208830
20
22.026210
11
2.117230
21
22.024210
0
LINE
8
Ebene 1
10
2.117230
20
22.024210
11
2.115230
21
22.024210
0
LINE
8
Ebene 1
10
2.115230
20
22.024210
11
2.022130
21
22.033210
0
LINE
8
Ebene 1
10
2.022130
20
22.033210
11
1.929030
21
22.050610
0
LINE
8
Ebene 1
10
1.929030
20
22.050610
11
1.927030
21
22.050610
0
LINE
8
Ebene 1
10
1.927030
20
22.050610
11
1.837030
21
22.079010
0
LINE
8
Ebene 1
10
1.837030
20
22.079010
11
1.835030
21
22.079010
0
LINE
8
Ebene 1
10
1.835030
20
22.079010
11
1.749830
21
22.115310
0
LINE
8
Ebene 1
10
1.749830
20
22.115310
11
1.747830
21
22.115310
0
LINE
8
Ebene 1
10
1.747830
20
22.115310
11
1.667330
21
22.159510
0
LINE
8
Ebene 1
10
1.667330
20
22.159510
11
1.665330
21
22.159510
0
LINE
8
Ebene 1
10
1.665330
20
22.159510
11
1.589530
21
22.209910
0
LINE
8
Ebene 1
10
1.589530
20
22.209910
11
1.305416
21
22.557071
0
LINE
8
Ebene 1
10
1.305416
20
22.557071
11
1.213820
21
23.000810
0
LINE
8
Ebene 1
10
1.213820
20
23.000810
11
1.221820
21
23.093910
0
LINE
8
Ebene 1
10
1.221820
20
23.093910
11
1.240720
21
23.188610
0
LINE
8
Ebene 1
10
1.240720
20
23.188610
11
1.592423
21
23.717506
0
LINE
8
Ebene 1
10
1.592423
20
23.717506
11
2.189450
21
23.902130
0
LINE
8
Ebene 1
10
2.189450
20
23.902130
11
2.191510
21
23.902510
0
LINE
8
Ebene 1
10
61.503310
20
19.389370
11
61.517510
21
19.389370
0
LINE
8
Ebene 1
10
61.517510
20
19.389370
11
61.519510
21
19.389370
0
LINE
8
Ebene 1
10
61.519510
20
19.389370
11
61.535310
21
19.387370
0
LINE
8
Ebene 1
10
61.535310
20
19.387370
11
61.551110
21
19.384370
0
LINE
8
Ebene 1
10
61.551110
20
19.384370
11
61.672660
21
19.288070
0
LINE
8
Ebene 1
10
61.672660
20
19.288070
11
61.705760
21
19.090750
0
LINE
8
Ebene 1
10
61.705760
20
19.090750
11
61.142210
21
18.661380
0
LINE
8
Ebene 1
10
61.142210
20
18.661380
11
61.158010
21
18.751380
0
LINE
8
Ebene 1
10
61.158010
20
18.751380
11
61.178510
21
18.847680
0
LINE
8
Ebene 1
10
61.178510
20
18.847680
11
61.252710
21
19.101830
0
LINE
8
Ebene 1
10
61.252710
20
19.101830
11
61.271610
21
19.152330
0
LINE
8
Ebene 1
10
61.271610
20
19.152330
11
61.333210
21
19.275460
0
LINE
8
Ebene 1
10
61.333210
20
19.275460
11
61.418510
21
19.363860
0
LINE
8
Ebene 1
10
61.418510
20
19.363860
11
61.445310
21
19.378060
0
LINE
8
Ebene 1
10
61.445310
20
19.378060
11
61.459510
21
19.383060
0
LINE
8
Ebene 1
10
61.459510
20
19.383060
11
61.473710
21
19.386060
0
LINE
8
Ebene 1
10
61.473710
20
19.386060
11
61.487910
21
19.388060
0
LINE
8
Ebene 1
10
61.487910
20
19.388060
11
61.503710
21
19.390060
0
LINE
8
Ebene 1
10
61.503710
20
19.390060
11
61.503310
21
19.389370
0
LINE
8
Ebene 1
10
62.622520
20
19.289870
11
62.142640
21
19.021520
0
LINE
8
Ebene 1
10
62.142640
20
19.021520
11
62.178940
21
18.881020
0
LINE
8
Ebene 1
10
62.178940
20
18.881020
11
62.178940
21
18.879020
0
LINE
8
Ebene 1
10
62.178940
20
18.879020
11
62.526230
21
19.063710
0
LINE
8
Ebene 1
10
62.526230
20
19.063710
11
62.229460
21
17.879780
0
LINE
8
Ebene 1
10
62.229460
20
17.879780
11
61.961100
21
17.974480
0
LINE
8
Ebene 1
10
61.961100
20
17.974480
11
61.921600
21
17.819770
0
LINE
8
Ebene 1
10
61.921600
20
17.819770
11
62.609860
21
17.560890
0
LINE
8
Ebene 1
10
62.609860
20
17.560890
11
62.609860
21
17.563890
0
LINE
8
Ebene 1
10
62.609860
20
17.563890
11
62.612860
21
17.561890
0
LINE
8
Ebene 1
10
62.612860
20
17.561890
11
62.657060
21
17.727640
0
LINE
8
Ebene 1
10
62.657060
20
17.727640
11
62.369760
21
17.830250
0
LINE
8
Ebene 1
10
62.369760
20
17.830250
11
62.731260
21
19.268330
0
LINE
8
Ebene 1
10
62.731260
20
19.268330
11
62.729260
21
19.268330
0
LINE
8
Ebene 1
10
62.729260
20
19.268330
11
62.622520
21
19.289870
0
LINE
8
Ebene 1
10
5.154500
20
19.256770
11
5.613711
21
19.169504
0
LINE
8
Ebene 1
10
5.613711
20
19.169504
11
6.002975
21
18.921051
0
LINE
8
Ebene 1
10
6.002975
20
18.921051
11
6.263012
21
18.549249
0
LINE
8
Ebene 1
10
6.263012
20
18.549249
11
6.354220
21
18.110720
0
LINE
8
Ebene 1
10
6.354220
20
18.110720
11
6.263009
21
17.672194
0
LINE
8
Ebene 1
10
6.263009
20
17.672194
11
6.002972
21
17.300396
0
LINE
8
Ebene 1
10
6.002972
20
17.300396
11
5.613708
21
17.051945
0
LINE
8
Ebene 1
10
5.613708
20
17.051945
11
5.154500
21
16.964680
0
LINE
8
Ebene 1
10
5.154500
20
16.964680
11
4.695292
21
17.051945
0
LINE
8
Ebene 1
10
4.695292
20
17.051945
11
4.306028
21
17.300396
0
LINE
8
Ebene 1
10
4.306028
20
17.300396
11
4.045991
21
17.672194
0
LINE
8
Ebene 1
10
4.045991
20
17.672194
11
3.954780
21
18.110720
0
LINE
8
Ebene 1
10
3.954780
20
18.110720
11
4.045988
21
18.549249
0
LINE
8
Ebene 1
10
4.045988
20
18.549249
11
4.306025
21
18.921051
0
LINE
8
Ebene 1
10
4.306025
20
18.921051
11
4.695289
21
19.169504
0
LINE
8
Ebene 1
10
4.695289
20
19.169504
11
5.154500
21
19.256770
0
LINE
8
Ebene 1
10
5.154500
20
19.256770
11
5.154500
21
19.256770
0
LINE
8
Ebene 1
10
5.154500
20
19.256770
11
4.695289
21
19.169504
0
LINE
8
Ebene 1
10
4.695289
20
19.169504
11
4.306025
21
18.921051
0
LINE
8
Ebene 1
10
4.306025
20
18.921051
11
4.045988
21
18.549249
0
LINE
8
Ebene 1
10
4.045988
20
18.549249
11
3.954780
21
18.110720
0
LINE
8
Ebene 1
10
3.954780
20
18.110720
11
4.045991
21
17.672194
0
LINE
8
Ebene 1
10
4.045991
20
17.672194
11
4.306028
21
17.300396
0
LINE
8
Ebene 1
10
4.306028
20
17.300396
11
4.695292
21
17.051945
0
LINE
8
Ebene 1
10
4.695292
20
17.051945
11
5.154500
21
16.964680
0
LINE
8
Ebene 1
10
5.154500
20
16.964680
11
5.613708
21
17.051945
0
LINE
8
Ebene 1
10
5.613708
20
17.051945
11
6.002972
21
17.300396
0
LINE
8
Ebene 1
10
6.002972
20
17.300396
11
6.263009
21
17.672194
0
LINE
8
Ebene 1
10
6.263009
20
17.672194
11
6.354220
21
18.110720
0
LINE
8
Ebene 1
10
6.354220
20
18.110720
11
6.263012
21
18.549249
0
LINE
8
Ebene 1
10
6.263012
20
18.549249
11
6.002975
21
18.921051
0
LINE
8
Ebene 1
10
6.002975
20
18.921051
11
5.613711
21
19.169504
0
LINE
8
Ebene 1
10
5.613711
20
19.169504
11
5.154500
21
19.256770
0
LINE
8
Ebene 1
10
5.154500
20
19.256770
11
5.154500
21
19.256770
0
LINE
8
Ebene 1
10
63.823820
20
19.076820
11
63.661220
21
19.051620
0
LINE
8
Ebene 1
10
63.661220
20
19.051620
11
63.468640
21
18.931650
0
LINE
8
Ebene 1
10
63.468640
20
18.931650
11
63.443440
21
18.907950
0
LINE
8
Ebene 1
10
63.443440
20
18.907950
11
63.443440
21
18.905950
0
LINE
8
Ebene 1
10
63.443440
20
18.905950
11
63.419740
21
18.882250
0
LINE
8
Ebene 1
10
63.419740
20
18.882250
11
63.419740
21
18.880250
0
LINE
8
Ebene 1
10
63.419740
20
18.880250
11
63.397640
21
18.853450
0
LINE
8
Ebene 1
10
63.397640
20
18.853450
11
63.395640
21
18.851450
0
LINE
8
Ebene 1
10
63.395640
20
18.851450
11
63.390640
21
18.845450
0
LINE
8
Ebene 1
10
63.390640
20
18.845450
11
63.373240
21
18.823350
0
LINE
8
Ebene 1
10
63.373240
20
18.823350
11
63.373240
21
18.821350
0
LINE
8
Ebene 1
10
63.373240
20
18.821350
11
63.352740
21
18.792950
0
LINE
8
Ebene 1
10
63.352740
20
18.792950
11
63.350740
21
18.789950
0
LINE
8
Ebene 1
10
63.350740
20
18.789950
11
63.330240
21
18.758350
0
LINE
8
Ebene 1
10
63.330240
20
18.758350
11
63.330240
21
18.756350
0
LINE
8
Ebene 1
10
63.330240
20
18.756350
11
63.309740
21
18.723150
0
LINE
8
Ebene 1
10
63.309740
20
18.723150
11
63.309740
21
18.721150
0
LINE
8
Ebene 1
10
63.309740
20
18.721150
11
63.290740
21
18.686450
0
LINE
8
Ebene 1
10
63.290740
20
18.686450
11
63.290740
21
18.684450
0
LINE
8
Ebene 1
10
63.290740
20
18.684450
11
63.271840
21
18.646550
0
LINE
8
Ebene 1
10
63.271840
20
18.646550
11
63.271840
21
18.644550
0
LINE
8
Ebene 1
10
63.271840
20
18.644550
11
63.252940
21
18.606650
0
LINE
8
Ebene 1
10
63.252940
20
18.606650
11
63.252940
21
18.604650
0
LINE
8
Ebene 1
10
63.252940
20
18.604650
11
63.142440
21
18.282620
0
LINE
8
Ebene 1
10
63.142440
20
18.282620
11
63.142440
21
18.280620
0
LINE
8
Ebene 1
10
63.142440
20
18.280620
11
63.101440
21
18.094350
0
LINE
8
Ebene 1
10
63.101440
20
18.094350
11
63.101440
21
18.092350
0
LINE
8
Ebene 1
10
63.101440
20
18.092350
11
63.087240
21
18.005550
0
LINE
8
Ebene 1
10
63.087240
20
18.005550
11
63.087240
21
18.003550
0
LINE
8
Ebene 1
10
63.087240
20
18.003550
11
63.078240
21
17.921450
0
LINE
8
Ebene 1
10
63.078240
20
17.921450
11
63.094040
21
17.615200
0
LINE
8
Ebene 1
10
63.094040
20
17.615200
11
63.096040
21
17.612200
0
LINE
8
Ebene 1
10
63.096040
20
17.612200
11
63.102040
21
17.580600
0
LINE
8
Ebene 1
10
63.102040
20
17.580600
11
63.104040
21
17.577600
0
LINE
8
Ebene 1
10
63.104040
20
17.577600
11
63.113040
21
17.547600
0
LINE
8
Ebene 1
10
63.113040
20
17.547600
11
63.115040
21
17.544600
0
LINE
8
Ebene 1
10
63.115040
20
17.544600
11
63.138740
21
17.486200
0
LINE
8
Ebene 1
10
63.138740
20
17.486200
11
63.140740
21
17.483200
0
LINE
8
Ebene 1
10
63.140740
20
17.483200
11
63.153340
21
17.456400
0
LINE
8
Ebene 1
10
63.153340
20
17.456400
11
63.155340
21
17.453400
0
LINE
8
Ebene 1
10
63.155340
20
17.453400
11
63.171140
21
17.428200
0
LINE
8
Ebene 1
10
63.171140
20
17.428200
11
63.173140
21
17.426200
0
LINE
8
Ebene 1
10
63.173140
20
17.426200
11
63.188940
21
17.401000
0
LINE
8
Ebene 1
10
63.188940
20
17.401000
11
63.190940
21
17.398000
0
LINE
8
Ebene 1
10
63.190940
20
17.398000
11
63.208240
21
17.375900
0
LINE
8
Ebene 1
10
63.208240
20
17.375900
11
63.210240
21
17.372900
0
LINE
8
Ebene 1
10
63.210240
20
17.372900
11
63.230740
21
17.350800
0
LINE
8
Ebene 1
10
63.230740
20
17.350800
11
63.232740
21
17.347800
0
LINE
8
Ebene 1
10
63.232740
20
17.347800
11
63.254840
21
17.327300
0
LINE
8
Ebene 1
10
63.254840
20
17.327300
11
63.441110
21
17.215220
0
LINE
8
Ebene 1
10
63.441110
20
17.215220
11
63.707890
21
17.182020
0
LINE
8
Ebene 1
10
63.707890
20
17.182020
11
63.941520
21
17.298830
0
LINE
8
Ebene 1
10
63.941520
20
17.298830
11
64.134110
21
17.559290
0
LINE
8
Ebene 1
10
64.134110
20
17.559290
11
64.284070
21
17.953940
0
LINE
8
Ebene 1
10
64.284070
20
17.953940
11
64.366170
21
18.378580
0
LINE
8
Ebene 1
10
64.366170
20
18.378580
11
64.366170
21
18.561690
0
LINE
8
Ebene 1
10
64.366170
20
18.561690
11
64.364170
21
18.569690
0
LINE
8
Ebene 1
10
64.364170
20
18.569690
11
64.355170
21
18.640690
0
LINE
8
Ebene 1
10
64.355170
20
18.640690
11
64.349170
21
18.675390
0
LINE
8
Ebene 1
10
64.349170
20
18.675390
11
64.347170
21
18.678390
0
LINE
8
Ebene 1
10
64.347170
20
18.678390
11
64.339170
21
18.711590
0
LINE
8
Ebene 1
10
64.339170
20
18.711590
11
64.337170
21
18.714590
0
LINE
8
Ebene 1
10
64.337170
20
18.714590
11
64.328170
21
18.744590
0
LINE
8
Ebene 1
10
64.328170
20
18.744590
11
64.326170
21
18.747590
0
LINE
8
Ebene 1
10
64.326170
20
18.747590
11
64.313570
21
18.779190
0
LINE
8
Ebene 1
10
64.313570
20
18.779190
11
64.299370
21
18.810790
0
LINE
8
Ebene 1
10
64.299370
20
18.810790
11
64.281970
21
18.837590
0
LINE
8
Ebene 1
10
64.281970
20
18.837590
11
64.281970
21
18.839590
0
LINE
8
Ebene 1
10
64.281970
20
18.839590
11
64.263070
21
18.867990
0
LINE
8
Ebene 1
10
64.263070
20
18.867990
11
64.220470
21
18.918490
0
LINE
8
Ebene 1
10
64.220470
20
18.918490
11
64.195270
21
18.942190
0
LINE
8
Ebene 1
10
64.195270
20
18.942190
11
63.934810
21
19.060580
0
LINE
8
Ebene 1
10
63.934810
20
19.060580
11
63.825890
21
19.073180
0
LINE
8
Ebene 1
10
63.825890
20
19.073180
11
63.823820
21
19.076820
0
LINE
8
Ebene 1
10
63.785920
20
18.896860
11
63.885320
21
18.887860
0
LINE
8
Ebene 1
10
63.885320
20
18.887860
11
64.066850
21
18.782090
0
LINE
8
Ebene 1
10
64.066850
20
18.782090
11
64.082650
21
18.758390
0
LINE
8
Ebene 1
10
64.082650
20
18.758390
11
64.082650
21
18.756390
0
LINE
8
Ebene 1
10
64.082650
20
18.756390
11
64.096850
21
18.731190
0
LINE
8
Ebene 1
10
64.096850
20
18.731190
11
64.096850
21
18.729190
0
LINE
8
Ebene 1
10
64.096850
20
18.729190
11
64.109450
21
18.703990
0
LINE
8
Ebene 1
10
64.109450
20
18.703990
11
64.109450
21
18.701990
0
LINE
8
Ebene 1
10
64.109450
20
18.701990
11
64.120550
21
18.673590
0
LINE
8
Ebene 1
10
64.120550
20
18.673590
11
64.120550
21
18.671590
0
LINE
8
Ebene 1
10
64.120550
20
18.671590
11
64.128550
21
18.641590
0
LINE
8
Ebene 1
10
64.128550
20
18.641590
11
64.128550
21
18.639590
0
LINE
8
Ebene 1
10
64.128550
20
18.639590
11
64.136550
21
18.609590
0
LINE
8
Ebene 1
10
64.136550
20
18.609590
11
64.136550
21
18.607590
0
LINE
8
Ebene 1
10
64.136550
20
18.607590
11
64.141550
21
18.574490
0
LINE
8
Ebene 1
10
64.141550
20
18.574490
11
64.141550
21
18.572490
0
LINE
8
Ebene 1
10
64.141550
20
18.572490
11
64.144550
21
18.537790
0
LINE
8
Ebene 1
10
64.144550
20
18.537790
11
64.144550
21
18.535790
0
LINE
8
Ebene 1
10
64.144550
20
18.535790
11
64.146550
21
18.499490
0
LINE
8
Ebene 1
10
64.146550
20
18.499490
11
63.272020
21
18.000660
0
LINE
8
Ebene 1
10
63.272020
20
18.000660
11
63.283120
21
18.055960
0
LINE
8
Ebene 1
10
63.283120
20
18.055960
11
63.294220
21
18.112760
0
LINE
8
Ebene 1
10
63.294220
20
18.112760
11
63.321020
21
18.231160
0
LINE
8
Ebene 1
10
63.321020
20
18.231160
11
63.371520
21
18.401640
0
LINE
8
Ebene 1
10
63.371520
20
18.401640
11
63.425220
21
18.546870
0
LINE
8
Ebene 1
10
63.425220
20
18.546870
11
63.515220
21
18.717360
0
LINE
8
Ebene 1
10
63.515220
20
18.717360
11
63.531020
21
18.739460
0
LINE
8
Ebene 1
10
63.531020
20
18.739460
11
63.546820
21
18.759960
0
LINE
8
Ebene 1
10
63.546820
20
18.759960
11
63.546820
21
18.761960
0
LINE
8
Ebene 1
10
63.546820
20
18.761960
11
63.562620
21
18.780860
0
LINE
8
Ebene 1
10
63.562620
20
18.780860
11
63.562620
21
18.782860
0
LINE
8
Ebene 1
10
63.562620
20
18.782860
11
63.580020
21
18.800260
0
LINE
8
Ebene 1
10
63.580020
20
18.800260
11
63.786810
21
18.894960
0
LINE
8
Ebene 1
10
63.786810
20
18.894960
11
63.785920
21
18.896860
0
LINE
8
Ebene 1
10
65.650220
20
18.688490
11
64.859350
21
18.375930
0
LINE
8
Ebene 1
10
64.859350
20
18.375930
11
64.861350
21
18.373930
0
LINE
8
Ebene 1
10
64.861350
20
18.373930
11
64.927650
21
18.187670
0
LINE
8
Ebene 1
10
64.927650
20
18.187670
11
64.927650
21
18.185670
0
LINE
8
Ebene 1
10
64.927650
20
18.185670
11
65.495940
21
18.395620
0
LINE
8
Ebene 1
10
65.495940
20
18.395620
11
65.060260
21
16.870720
0
LINE
8
Ebene 1
10
65.060260
20
16.870720
11
64.610360
21
17.030150
0
LINE
8
Ebene 1
10
64.610360
20
17.030150
11
64.555060
21
16.834410
0
LINE
8
Ebene 1
10
64.555060
20
16.834410
11
64.557060
21
16.832410
0
LINE
8
Ebene 1
10
64.557060
20
16.832410
11
64.557060
21
16.830410
0
LINE
8
Ebene 1
10
64.557060
20
16.830410
11
65.720470
21
16.393150
0
LINE
8
Ebene 1
10
65.720470
20
16.393150
11
65.785170
21
16.609420
0
LINE
8
Ebene 1
10
65.785170
20
16.609420
11
65.785170
21
16.612420
0
LINE
8
Ebene 1
10
65.785170
20
16.612420
11
65.292660
21
16.787640
0
LINE
8
Ebene 1
10
65.292660
20
16.787640
11
65.830950
21
18.647210
0
LINE
8
Ebene 1
10
65.830950
20
18.647210
11
65.830950
21
18.649210
0
LINE
8
Ebene 1
10
65.830950
20
18.649210
11
65.650220
21
18.688490
0
LINE
8
Ebene 1
10
64.128470
20
18.292270
11
64.073270
21
18.020750
0
LINE
8
Ebene 1
10
64.073270
20
18.020750
11
64.016470
21
17.839220
0
LINE
8
Ebene 1
10
64.016470
20
17.839220
11
63.988070
21
17.760320
0
LINE
8
Ebene 1
10
63.988070
20
17.760320
11
63.986070
21
17.758320
0
LINE
8
Ebene 1
10
63.986070
20
17.758320
11
63.968670
21
17.717320
0
LINE
8
Ebene 1
10
63.968670
20
17.717320
11
63.956070
21
17.687320
0
LINE
8
Ebene 1
10
63.956070
20
17.687320
11
63.956070
21
17.685320
0
LINE
8
Ebene 1
10
63.956070
20
17.685320
11
63.924470
21
17.620620
0
LINE
8
Ebene 1
10
63.924470
20
17.620620
11
63.908670
21
17.592220
0
LINE
8
Ebene 1
10
63.908670
20
17.592220
11
63.823470
21
17.469090
0
LINE
8
Ebene 1
10
63.823470
20
17.469090
11
63.804570
21
17.451690
0
LINE
8
Ebene 1
10
63.804570
20
17.451690
11
63.687750
21
17.375890
0
LINE
8
Ebene 1
10
63.687750
20
17.375890
11
63.645150
21
17.366890
0
LINE
8
Ebene 1
10
63.645150
20
17.366890
11
63.506240
21
17.379490
0
LINE
8
Ebene 1
10
63.506240
20
17.379490
11
63.481040
21
17.387490
0
LINE
8
Ebene 1
10
63.481040
20
17.387490
11
63.400540
21
17.430090
0
LINE
8
Ebene 1
10
63.400540
20
17.430090
11
63.376840
21
17.447390
0
LINE
8
Ebene 1
10
63.376840
20
17.447390
11
63.307340
21
17.542090
0
LINE
8
Ebene 1
10
63.307340
20
17.542090
11
63.294740
21
17.570490
0
LINE
8
Ebene 1
10
63.294740
20
17.570490
11
63.267940
21
17.662090
0
LINE
8
Ebene 1
10
63.267940
20
17.662090
11
63.255340
21
17.802580
0
LINE
8
Ebene 1
10
63.255340
20
17.802580
11
64.128470
21
18.292270
0
LINE
8
Ebene 1
10
12.589570
20
4.958040
11
14.985850
21
3.715710
0
LINE
8
Ebene 1
10
14.985850
20
3.715710
11
14.666980
21
3.284750
0
LINE
8
Ebene 1
10
14.666980
20
3.284750
11
14.685880
21
2.673850
0
LINE
8
Ebene 1
10
14.685880
20
2.673850
11
12.119120
21
4.023530
0
LINE
8
Ebene 1
10
12.119120
20
4.023530
11
12.589570
21
4.958040
0
LINE
8
Ebene 1
10
61.689570
20
18.925270
11
61.672170
21
18.821090
0
LINE
8
Ebene 1
10
61.672170
20
18.821090
11
61.648470
21
18.712170
0
LINE
8
Ebene 1
10
61.648470
20
18.712170
11
61.481140
21
18.271740
0
LINE
8
Ebene 1
10
61.481140
20
18.271740
11
61.433840
21
18.216440
0
LINE
8
Ebene 1
10
61.433840
20
18.216440
11
61.421240
21
18.207440
0
LINE
8
Ebene 1
10
61.421240
20
18.207440
11
61.408640
21
18.198440
0
LINE
8
Ebene 1
10
61.408640
20
18.198440
11
61.381840
21
18.185840
0
LINE
8
Ebene 1
10
61.381840
20
18.185840
11
61.367640
21
18.180840
0
LINE
8
Ebene 1
10
61.367640
20
18.180840
11
61.353440
21
18.177840
0
LINE
8
Ebene 1
10
61.353440
20
18.177840
11
61.339240
21
18.175840
0
LINE
8
Ebene 1
10
61.339240
20
18.175840
11
61.326640
21
18.173840
0
LINE
8
Ebene 1
10
61.326640
20
18.173840
11
61.324640
21
18.173840
0
LINE
8
Ebene 1
10
61.324640
20
18.173840
11
61.308840
21
18.175840
0
LINE
8
Ebene 1
10
61.308840
20
18.175840
11
61.294640
21
18.177840
0
LINE
8
Ebene 1
10
61.294640
20
18.177840
11
61.292640
21
18.177840
0
LINE
8
Ebene 1
10
61.292640
20
18.177840
11
61.280040
21
18.182840
0
LINE
8
Ebene 1
10
61.280040
20
18.182840
11
61.278040
21
18.182840
0
LINE
8
Ebene 1
10
61.278040
20
18.182840
11
61.263840
21
18.187840
0
LINE
8
Ebene 1
10
61.263840
20
18.187840
11
61.261840
21
18.187840
0
LINE
8
Ebene 1
10
61.261840
20
18.187840
11
61.244440
21
18.195840
0
LINE
8
Ebene 1
10
61.244440
20
18.195840
11
61.242440
21
18.195840
0
LINE
8
Ebene 1
10
61.242440
20
18.195840
11
61.226640
21
18.204840
0
LINE
8
Ebene 1
10
61.226640
20
18.204840
11
61.224640
21
18.204840
0
LINE
8
Ebene 1
10
61.224640
20
18.204840
11
61.210440
21
18.215940
0
LINE
8
Ebene 1
10
61.210440
20
18.215940
11
61.208440
21
18.215940
0
LINE
8
Ebene 1
10
61.208440
20
18.215940
11
61.194240
21
18.230140
0
LINE
8
Ebene 1
10
61.194240
20
18.230140
11
61.153240
21
18.299640
0
LINE
8
Ebene 1
10
61.153240
20
18.299640
11
61.124840
21
18.503270
0
LINE
8
Ebene 1
10
61.124840
20
18.503270
11
61.689570
21
18.925270
 0 
ENDSEC
 0 
EOF