999
"DXF R12 Output" (www.mydxf.blogspot.com)
 0 
SECTION
 2 
HEADER
 9 
$ACADVER
 1 
AC1009
 9 
$EXTMIN
 10 
 0 
 20 
 0 
 9 
$EXTMAX
 10 
 8.5 
 20 
 11 
 0 
ENDSEC
 0 
SECTION
 2 
ENTITIES
0
LINE
8
Layer 1
10
18.204214
20
50.359664
11
17.643897
21
50.082171
0
LINE
8
Layer 1
10
17.643897
20
50.082171
11
17.231665
21
49.578835
0
LINE
8
Layer 1
10
17.231665
20
49.578835
11
16.185219
21
48.597500
0
LINE
8
Layer 1
10
16.185219
20
48.597500
11
14.602372
21
46.592974
0
LINE
8
Layer 1
10
14.602372
20
46.592974
11
14.500931
21
46.430158
0
LINE
8
Layer 1
10
14.500931
20
46.430158
11
14.327970
21
46.402288
0
LINE
8
Layer 1
10
14.327970
20
46.402288
11
13.482529
21
46.141757
0
LINE
8
Layer 1
10
13.482529
20
46.141757
11
13.174125
21
45.822097
0
LINE
8
Layer 1
10
13.174125
20
45.822097
11
13.007639
21
45.405968
0
LINE
8
Layer 1
10
13.007639
20
45.405968
11
12.839175
21
45.041133
0
LINE
8
Layer 1
10
12.839175
20
45.041133
11
12.428384
21
44.531624
0
LINE
8
Layer 1
10
12.428384
20
44.531624
11
12.120356
21
43.959030
0
LINE
8
Layer 1
10
12.120356
20
43.959030
11
9.606301
21
40.718922
0
LINE
8
Layer 1
10
9.606301
20
40.718922
11
9.287368
21
40.147798
0
LINE
8
Layer 1
10
9.287368
20
40.147798
11
9.123644
21
39.516413
0
LINE
8
Layer 1
10
9.123644
20
39.516413
11
8.388806
21
38.251892
0
LINE
8
Layer 1
10
8.388806
20
38.251892
11
8.346431
21
37.804892
0
LINE
8
Layer 1
10
8.346431
20
37.804892
11
7.456145
21
36.707240
0
LINE
8
Layer 1
10
7.456145
20
36.707240
11
6.408568
21
35.765743
0
LINE
8
Layer 1
10
6.408568
20
35.765743
11
5.249161
21
34.816899
0
LINE
8
Layer 1
10
5.249161
20
34.816899
11
4.325206
21
33.635323
0
LINE
8
Layer 1
10
4.325206
20
33.635323
11
3.690783
21
32.280017
0
LINE
8
Layer 1
10
3.690783
20
32.280017
11
3.399970
21
30.809979
0
LINE
8
Layer 1
10
3.399970
20
30.809979
11
3.444928
21
29.172872
0
LINE
8
Layer 1
10
3.444928
20
29.172872
11
4.690328
21
29.274158
0
LINE
8
Layer 1
10
4.690328
20
29.274158
11
4.636374
21
30.501987
0
LINE
8
Layer 1
10
4.636374
20
30.501987
11
4.825204
21
31.712765
0
LINE
8
Layer 1
10
4.825204
20
31.712765
11
5.202986
21
32.655756
0
LINE
8
Layer 1
10
5.202986
20
32.655756
11
5.758341
21
33.504559
0
LINE
8
Layer 1
10
5.758341
20
33.504559
11
6.460268
21
34.239974
0
LINE
8
Layer 1
10
6.460268
20
34.239974
11
7.277764
21
34.842802
0
LINE
8
Layer 1
10
7.277764
20
34.842802
11
8.443198
21
35.933439
0
LINE
8
Layer 1
10
8.443198
20
35.933439
11
9.442487
21
37.182192
0
LINE
8
Layer 1
10
9.442487
20
37.182192
11
9.868416
21
37.495091
0
LINE
8
Layer 1
10
9.868416
20
37.495091
11
10.241920
21
37.879306
0
LINE
8
Layer 1
10
10.241920
20
37.879306
11
10.869272
21
38.480302
0
LINE
8
Layer 1
10
10.869272
20
38.480302
11
11.530401
21
39.019062
0
LINE
8
Layer 1
10
11.530401
20
39.019062
11
12.062479
21
39.694696
0
LINE
8
Layer 1
10
12.062479
20
39.694696
11
11.977942
21
38.413502
0
LINE
8
Layer 1
10
11.977942
20
38.413502
11
11.578271
21
37.183225
0
LINE
8
Layer 1
10
11.578271
20
37.183225
11
10.537509
21
34.955974
0
LINE
8
Layer 1
10
10.537509
20
34.955974
11
9.574521
21
32.207410
0
LINE
8
Layer 1
10
9.574521
20
32.207410
11
8.886966
21
29.376477
0
LINE
8
Layer 1
10
8.886966
20
29.376477
11
9.143745
21
26.576403
0
LINE
8
Layer 1
10
9.143745
20
26.576403
11
9.488779
21
25.214989
0
LINE
8
Layer 1
10
9.488779
20
25.214989
11
10.017128
21
23.911185
0
LINE
8
Layer 1
10
10.017128
20
23.911185
11
11.194832
21
21.829144
0
LINE
8
Layer 1
10
11.194832
20
21.829144
11
12.718301
21
19.958623
0
LINE
8
Layer 1
10
12.718301
20
19.958623
11
14.415820
21
18.249524
0
LINE
8
Layer 1
10
14.415820
20
18.249524
11
16.747159
21
16.582695
0
LINE
8
Layer 1
10
16.747159
20
16.582695
11
19.269265
21
15.215603
0
LINE
8
Layer 1
10
19.269265
20
15.215603
11
18.394660
21
14.558856
0
LINE
8
Layer 1
10
18.394660
20
14.558856
11
17.362407
21
14.231685
0
LINE
8
Layer 1
10
17.362407
20
14.231685
11
16.497018
21
14.255828
0
LINE
8
Layer 1
10
16.497018
20
14.255828
11
15.649669
21
14.426480
0
LINE
8
Layer 1
10
15.649669
20
14.426480
11
14.028764
21
15.040936
0
LINE
8
Layer 1
10
14.028764
20
15.040936
11
12.161181
21
16.068780
0
LINE
8
Layer 1
10
12.161181
20
16.068780
11
12.024784
21
16.189175
0
LINE
8
Layer 1
10
12.024784
20
16.189175
11
11.788077
21
16.291506
0
LINE
8
Layer 1
10
11.788077
20
16.291506
11
9.429051
21
17.492464
0
LINE
8
Layer 1
10
9.429051
20
17.492464
11
9.649455
21
18.166754
0
LINE
8
Layer 1
10
9.649455
20
18.166754
11
9.577440
21
18.514986
0
LINE
8
Layer 1
10
9.577440
20
18.514986
11
9.364456
21
18.798324
0
LINE
8
Layer 1
10
9.364456
20
18.798324
11
8.936576
21
18.998831
0
LINE
8
Layer 1
10
8.936576
20
18.998831
11
9.316484
21
19.222046
0
LINE
8
Layer 1
10
9.316484
20
19.222046
11
9.538605
21
19.595174
0
LINE
8
Layer 1
10
9.538605
20
19.595174
11
9.423081
21
20.278222
0
LINE
8
Layer 1
10
9.423081
20
20.278222
11
8.927274
21
20.739289
0
LINE
8
Layer 1
10
8.927274
20
20.739289
11
8.461670
21
20.727410
0
LINE
8
Layer 1
10
8.461670
20
20.727410
11
8.644279
21
21.176729
0
LINE
8
Layer 1
10
8.644279
20
21.176729
11
8.512829
21
21.634847
0
LINE
8
Layer 1
10
8.512829
20
21.634847
11
8.135404
21
21.990624
0
LINE
8
Layer 1
10
8.135404
20
21.990624
11
7.648800
21
22.141791
0
LINE
8
Layer 1
10
7.648800
20
22.141791
11
7.099997
21
21.869458
0
LINE
8
Layer 1
10
7.099997
20
21.869458
11
7.080152
21
22.384965
0
LINE
8
Layer 1
10
7.080152
20
22.384965
11
6.759967
21
22.773277
0
LINE
8
Layer 1
10
6.759967
20
22.773277
11
6.165507
21
22.936394
0
LINE
8
Layer 1
10
6.165507
20
22.936394
11
5.584847
21
22.767588
0
LINE
8
Layer 1
10
5.584847
20
22.767588
11
5.347135
21
22.289063
0
LINE
8
Layer 1
10
5.347135
20
22.289063
11
5.104773
21
22.662168
0
LINE
8
Layer 1
10
5.104773
20
22.662168
11
5.236372
21
23.119651
0
LINE
8
Layer 1
10
5.236372
20
23.119651
11
5.172469
21
23.588208
0
LINE
8
Layer 1
10
5.172469
20
23.588208
11
4.750790
21
23.889481
0
LINE
8
Layer 1
10
4.750790
20
23.889481
11
4.932026
21
24.099564
0
LINE
8
Layer 1
10
4.932026
20
24.099564
11
5.010205
21
24.354568
0
LINE
8
Layer 1
10
5.010205
20
24.354568
11
4.853997
21
24.927591
0
LINE
8
Layer 1
10
4.853997
20
24.927591
11
4.424195
21
25.341586
0
LINE
8
Layer 1
10
4.424195
20
25.341586
11
3.843353
21
25.275441
0
LINE
8
Layer 1
10
3.843353
20
25.275441
11
3.808742
21
25.649573
0
LINE
8
Layer 1
10
3.808742
20
25.649573
11
3.622695
21
25.985474
0
LINE
8
Layer 1
10
3.622695
20
25.985474
11
3.234089
21
26.091410
0
LINE
8
Layer 1
10
3.234089
20
26.091410
11
2.819128
21
26.143087
0
LINE
8
Layer 1
10
2.819128
20
26.143087
11
2.629736
21
26.083358
0
LINE
8
Layer 1
10
2.629736
20
26.083358
11
2.458427
21
25.977206
0
LINE
8
Layer 1
10
2.458427
20
25.977206
11
2.237252
21
25.626840
0
LINE
8
Layer 1
10
2.237252
20
25.626840
11
1.987115
21
25.862975
0
LINE
8
Layer 1
10
1.987115
20
25.862975
11
1.669328
21
25.951884
0
LINE
8
Layer 1
10
1.669328
20
25.951884
11
1.048148
21
25.723318
0
LINE
8
Layer 1
10
1.048148
20
25.723318
11
0.725201
21
25.142632
0
LINE
8
Layer 1
10
0.725201
20
25.142632
11
0.855942
21
24.721470
0
LINE
8
Layer 1
10
0.855942
20
24.721470
11
0.338908
21
24.589837
0
LINE
8
Layer 1
10
0.338908
20
24.589837
11
0.043073
21
24.148379
0
LINE
8
Layer 1
10
0.043073
20
24.148379
11
0.047120
21
23.589498
0
LINE
8
Layer 1
10
0.047120
20
23.589498
11
0.389822
21
23.151027
0
LINE
8
Layer 1
10
0.389822
20
23.151027
11
0.434280
21
23.067366
0
LINE
8
Layer 1
10
0.434280
20
23.067366
11
0.293704
21
22.910214
0
LINE
8
Layer 1
10
0.293704
20
22.910214
11
0.187197
21
22.711823
0
LINE
8
Layer 1
10
0.187197
20
22.711823
11
0.217223
21
22.479232
0
LINE
8
Layer 1
10
0.217223
20
22.479232
11
0.475989
21
21.959281
0
LINE
8
Layer 1
10
0.475989
20
21.959281
11
0.961879
21
21.664814
0
LINE
8
Layer 1
10
0.961879
20
21.664814
11
1.361854
21
21.760416
0
LINE
8
Layer 1
10
1.361854
20
21.760416
11
1.321337
21
21.529403
0
LINE
8
Layer 1
10
1.321337
20
21.529403
11
1.428000
21
21.337186
0
LINE
8
Layer 1
10
1.428000
20
21.337186
11
1.657425
21
21.093899
0
LINE
8
Layer 1
10
1.657425
20
21.093899
11
1.945797
21
20.956848
0
LINE
8
Layer 1
10
1.945797
20
20.956848
11
2.131716
21
20.924331
0
LINE
8
Layer 1
10
2.131716
20
20.924331
11
2.220199
21
20.829724
0
LINE
8
Layer 1
10
2.220199
20
20.829724
11
2.476513
21
20.321746
0
LINE
8
Layer 1
10
2.476513
20
20.321746
11
2.015538
21
20.296598
0
LINE
8
Layer 1
10
2.015538
20
20.296598
11
1.653826
21
20.026672
0
LINE
8
Layer 1
10
1.653826
20
20.026672
11
1.461015
21
19.440536
0
LINE
8
Layer 1
10
1.461015
20
19.440536
11
1.617135
21
18.839666
0
LINE
8
Layer 1
10
1.617135
20
18.839666
11
2.049667
21
18.599371
0
LINE
8
Layer 1
10
2.049667
20
18.599371
11
1.683499
21
18.356730
0
LINE
8
Layer 1
10
1.683499
20
18.356730
11
1.517400
21
17.950833
0
LINE
8
Layer 1
10
1.517400
20
17.950833
11
1.617936
21
17.376557
0
LINE
8
Layer 1
10
1.617936
20
17.376557
11
1.998507
21
16.932808
0
LINE
8
Layer 1
10
1.998507
20
16.932808
11
2.517338
21
16.886818
0
LINE
8
Layer 1
10
2.517338
20
16.886818
11
2.547809
21
16.817730
0
LINE
8
Layer 1
10
2.547809
20
16.817730
11
2.431555
21
16.661507
0
LINE
8
Layer 1
10
2.431555
20
16.661507
11
2.340033
21
16.476172
0
LINE
8
Layer 1
10
2.340033
20
16.476172
11
2.354040
21
16.261532
0
LINE
8
Layer 1
10
2.354040
20
16.261532
11
2.674747
21
15.689102
0
LINE
8
Layer 1
10
2.674747
20
15.689102
11
3.266645
21
15.405257
0
LINE
8
Layer 1
10
3.266645
20
15.405257
11
3.675835
21
15.503621
0
LINE
8
Layer 1
10
3.675835
20
15.503621
11
4.011818
21
15.774741
0
LINE
8
Layer 1
10
4.011818
20
15.774741
11
4.016985
21
15.204750
0
LINE
8
Layer 1
10
4.016985
20
15.204750
11
4.415882
21
14.828828
0
LINE
8
Layer 1
10
4.415882
20
14.828828
11
4.954394
21
14.711758
0
LINE
8
Layer 1
10
4.954394
20
14.711758
11
5.435608
21
14.860340
0
LINE
8
Layer 1
10
5.435608
20
14.860340
11
5.705769
21
15.288983
0
LINE
8
Layer 1
10
5.705769
20
15.288983
11
5.768345
21
15.330217
0
LINE
8
Layer 1
10
5.768345
20
15.330217
11
5.856664
21
15.152043
0
LINE
8
Layer 1
10
5.856664
20
15.152043
11
6.134166
21
14.882808
0
LINE
8
Layer 1
10
6.134166
20
14.882808
11
6.529497
21
14.793693
0
LINE
8
Layer 1
10
6.529497
20
14.793693
11
6.931532
21
14.859022
0
LINE
8
Layer 1
10
6.931532
20
14.859022
11
7.253476
21
15.011470
0
LINE
8
Layer 1
10
7.253476
20
15.011470
11
8.253414
21
14.109715
0
LINE
8
Layer 1
10
8.253414
20
14.109715
11
9.910527
21
12.746033
0
LINE
8
Layer 1
10
9.910527
20
12.746033
11
11.481119
21
11.287152
0
LINE
8
Layer 1
10
11.481119
20
11.287152
11
13.074984
21
9.697203
0
LINE
8
Layer 1
10
13.074984
20
9.697203
11
13.962943
21
9.012147
0
LINE
8
Layer 1
10
13.962943
20
9.012147
11
14.951187
21
8.475441
0
LINE
8
Layer 1
10
14.951187
20
8.475441
11
15.943851
21
8.142589
0
LINE
8
Layer 1
10
15.943851
20
8.142589
11
16.976430
21
7.976652
0
LINE
8
Layer 1
10
16.976430
20
7.976652
11
18.022550
21
7.977945
0
LINE
8
Layer 1
10
18.022550
20
7.977945
11
19.055841
21
8.146779
0
LINE
8
Layer 1
10
19.055841
20
8.146779
11
20.302260
21
8.534161
0
LINE
8
Layer 1
10
20.302260
20
8.534161
11
21.498874
21
9.052079
0
LINE
8
Layer 1
10
21.498874
20
9.052079
11
23.839005
21
10.212802
0
LINE
8
Layer 1
10
23.839005
20
10.212802
11
24.198338
21
10.289207
0
LINE
8
Layer 1
10
24.198338
20
10.289207
11
24.542837
21
10.202457
0
LINE
8
Layer 1
10
24.542837
20
10.202457
11
24.541830
21
9.379126
0
LINE
8
Layer 1
10
24.541830
20
9.379126
11
24.163532
21
8.628394
0
LINE
8
Layer 1
10
24.163532
20
8.628394
11
23.062195
21
7.432402
0
LINE
8
Layer 1
10
23.062195
20
7.432402
11
21.832929
21
6.361352
0
LINE
8
Layer 1
10
21.832929
20
6.361352
11
20.800151
21
5.745901
0
LINE
8
Layer 1
10
20.800151
20
5.745901
11
19.619630
21
5.549516
0
LINE
8
Layer 1
10
19.619630
20
5.549516
11
17.753152
21
5.448696
0
LINE
8
Layer 1
10
17.753152
20
5.448696
11
15.918569
21
5.107684
0
LINE
8
Layer 1
10
15.918569
20
5.107684
11
13.918177
21
6.157229
0
LINE
8
Layer 1
10
13.918177
20
6.157229
11
14.414270
21
7.143216
0
LINE
8
Layer 1
10
14.414270
20
7.143216
11
12.739439
21
7.962285
0
LINE
8
Layer 1
10
12.739439
20
7.962285
11
12.453669
21
7.381444
0
LINE
8
Layer 1
10
12.453669
20
7.381444
11
10.382480
21
8.479566
0
LINE
8
Layer 1
10
10.382480
20
8.479566
11
9.912861
21
8.596047
0
LINE
8
Layer 1
10
9.912861
20
8.596047
11
9.434965
21
8.552202
0
LINE
8
Layer 1
10
9.434965
20
8.552202
11
8.614115
21
8.061504
0
LINE
8
Layer 1
10
8.614115
20
8.061504
11
8.234598
21
7.569211
0
LINE
8
Layer 1
10
8.234598
20
7.569211
11
7.992128
21
6.993904
0
LINE
8
Layer 1
10
7.992128
20
6.993904
11
7.920609
21
6.380211
0
LINE
8
Layer 1
10
7.920609
20
6.380211
11
8.053943
21
5.772758
0
LINE
8
Layer 1
10
8.053943
20
5.772758
11
8.447617
21
5.177637
0
LINE
8
Layer 1
10
8.447617
20
5.177637
11
9.036311
21
4.774370
0
LINE
8
Layer 1
10
9.036311
20
4.774370
11
10.718376
21
3.853497
0
LINE
8
Layer 1
10
10.718376
20
3.853497
11
10.461028
21
3.330532
0
LINE
8
Layer 1
10
10.461028
20
3.330532
11
12.065062
21
2.467537
0
LINE
8
Layer 1
10
12.065062
20
2.467537
11
12.591644
21
3.515534
0
LINE
8
Layer 1
10
12.591644
20
3.515534
11
15.231273
21
2.138874
0
LINE
8
Layer 1
10
15.231273
20
2.138874
11
16.414140
21
1.514520
0
LINE
8
Layer 1
10
16.414140
20
1.514520
11
17.724658
21
1.194750
0
LINE
8
Layer 1
10
17.724658
20
1.194750
11
19.705844
21
0.867308
0
LINE
8
Layer 1
10
19.705844
20
0.867308
11
21.709939
21
0.770486
0
LINE
8
Layer 1
10
21.709939
20
0.770486
11
23.117297
21
1.008669
0
LINE
8
Layer 1
10
23.117297
20
1.008669
11
24.444135
21
1.544597
0
LINE
8
Layer 1
10
24.444135
20
1.544597
11
27.366949
21
3.226146
0
LINE
8
Layer 1
10
27.366949
20
3.226146
11
29.859347
21
5.236457
0
LINE
8
Layer 1
10
29.859347
20
5.236457
11
32.152182
21
7.477561
0
LINE
8
Layer 1
10
32.152182
20
7.477561
11
32.944006
21
8.148498
0
LINE
8
Layer 1
10
32.944006
20
8.148498
11
33.887992
21
8.545193
0
LINE
8
Layer 1
10
33.887992
20
8.545193
11
34.325700
21
8.503733
0
LINE
8
Layer 1
10
34.325700
20
8.503733
11
34.718710
21
8.319221
0
LINE
8
Layer 1
10
34.718710
20
8.319221
11
35.392805
21
7.748346
0
LINE
8
Layer 1
10
35.392805
20
7.748346
11
36.297289
21
6.670399
0
LINE
8
Layer 1
10
36.297289
20
6.670399
11
37.095730
21
5.509895
0
LINE
8
Layer 1
10
37.095730
20
5.509895
11
37.890718
21
4.346335
0
LINE
8
Layer 1
10
37.890718
20
4.346335
11
38.784844
21
3.259219
0
LINE
8
Layer 1
10
38.784844
20
3.259219
11
39.782376
21
2.363956
0
LINE
8
Layer 1
10
39.782376
20
2.363956
11
40.882386
21
1.596273
0
LINE
8
Layer 1
10
40.882386
20
1.596273
11
42.507344
21
0.897832
0
LINE
8
Layer 1
10
42.507344
20
0.897832
11
44.263572
21
0.655246
0
LINE
8
Layer 1
10
44.263572
20
0.655246
11
45.059842
21
0.645191
0
LINE
8
Layer 1
10
45.059842
20
0.645191
11
45.847969
21
0.739998
0
LINE
8
Layer 1
10
45.847969
20
0.739998
11
47.711593
21
1.144815
0
LINE
8
Layer 1
10
47.711593
20
1.144815
11
49.537145
21
1.693941
0
LINE
8
Layer 1
10
49.537145
20
1.693941
11
50.324173
21
-0.000009
0
LINE
8
Layer 1
10
50.324173
20
-0.000009
11
54.200936
21
1.800912
0
LINE
8
Layer 1
10
54.200936
20
1.800912
11
54.436492
21
1.890044
0
LINE
8
Layer 1
10
54.436492
20
1.890044
11
54.448464
21
2.068596
0
LINE
8
Layer 1
10
54.448464
20
2.068596
11
54.005600
21
3.020476
0
LINE
8
Layer 1
10
54.005600
20
3.020476
11
54.150356
21
2.923570
0
LINE
8
Layer 1
10
54.150356
20
2.923570
11
54.247445
21
2.695430
0
LINE
8
Layer 1
10
54.247445
20
2.695430
11
54.578173
21
1.983847
0
LINE
8
Layer 1
10
54.578173
20
1.983847
11
56.629723
21
2.895418
0
LINE
8
Layer 1
10
56.629723
20
2.895418
11
56.989908
21
3.109875
0
LINE
8
Layer 1
10
56.989908
20
3.109875
11
58.735021
21
3.923778
0
LINE
8
Layer 1
10
58.735021
20
3.923778
11
57.288599
21
7.035210
0
LINE
8
Layer 1
10
57.288599
20
7.035210
11
53.123483
21
5.075127
0
LINE
8
Layer 1
10
53.123483
20
5.075127
11
52.983032
21
5.197543
0
LINE
8
Layer 1
10
52.983032
20
5.197543
11
52.882673
21
5.430144
0
LINE
8
Layer 1
10
52.882673
20
5.430144
11
52.371593
21
6.527232
0
LINE
8
Layer 1
10
52.371593
20
6.527232
11
54.132385
21
7.094290
0
LINE
8
Layer 1
10
54.132385
20
7.094290
11
55.723839
21
8.034114
0
LINE
8
Layer 1
10
55.723839
20
8.034114
11
57.673588
21
9.624713
0
LINE
8
Layer 1
10
57.673588
20
9.624713
11
58.790313
21
10.615349
0
LINE
8
Layer 1
10
58.790313
20
10.615349
11
60.606737
21
8.934318
0
LINE
8
Layer 1
10
60.606737
20
8.934318
11
66.790332
21
12.426605
0
LINE
8
Layer 1
10
66.790332
20
12.426605
11
66.788894
21
12.961358
0
LINE
8
Layer 1
10
66.788894
20
12.961358
11
66.881799
21
13.483386
0
LINE
8
Layer 1
10
66.881799
20
13.483386
11
68.771604
21
20.363063
0
LINE
8
Layer 1
10
68.771604
20
20.363063
11
60.683736
21
21.991384
0
LINE
8
Layer 1
10
60.683736
20
21.991384
11
59.499314
21
17.084713
0
LINE
8
Layer 1
10
59.499314
20
17.084713
11
54.674291
21
15.417634
0
LINE
8
Layer 1
10
54.674291
20
15.417634
11
54.674291
21
14.469374
0
LINE
8
Layer 1
10
54.674291
20
14.469374
11
56.709823
21
12.569750
0
LINE
8
Layer 1
10
56.709823
20
12.569750
11
55.172451
21
12.032831
0
LINE
8
Layer 1
10
55.172451
20
12.032831
11
53.305384
21
11.502115
0
LINE
8
Layer 1
10
53.305384
20
11.502115
11
51.677530
21
11.407984
0
LINE
8
Layer 1
10
51.677530
20
11.407984
11
50.097315
21
11.811140
0
LINE
8
Layer 1
10
50.097315
20
11.811140
11
48.683250
21
12.583001
0
LINE
8
Layer 1
10
48.683250
20
12.583001
11
47.388440
21
13.547984
0
LINE
8
Layer 1
10
47.388440
20
13.547984
11
47.013077
21
13.897708
0
LINE
8
Layer 1
10
47.013077
20
13.897708
11
46.789511
21
14.343800
0
LINE
8
Layer 1
10
46.789511
20
14.343800
11
47.066685
21
14.691059
0
LINE
8
Layer 1
10
47.066685
20
14.691059
11
47.481459
21
14.894670
0
LINE
8
Layer 1
10
47.481459
20
14.894670
11
49.919033
21
15.977290
0
LINE
8
Layer 1
10
49.919033
20
15.977290
11
52.366047
21
17.168999
0
LINE
8
Layer 1
10
52.366047
20
17.168999
11
54.645354
21
18.645340
0
LINE
8
Layer 1
10
54.645354
20
18.645340
11
56.317899
21
20.381376
0
LINE
8
Layer 1
10
56.317899
20
20.381376
11
57.795542
21
22.292656
0
LINE
8
Layer 1
10
57.795542
20
22.292656
11
58.745478
21
23.984901
0
LINE
8
Layer 1
10
58.745478
20
23.984901
11
59.428517
21
25.797865
0
LINE
8
Layer 1
10
59.428517
20
25.797865
11
60.065170
21
28.379616
0
LINE
8
Layer 1
10
60.065170
20
28.379616
11
60.112999
21
30.022653
0
LINE
8
Layer 1
10
60.112999
20
30.022653
11
60.015473
21
31.665170
0
LINE
8
Layer 1
10
60.015473
20
31.665170
11
59.740094
21
33.283542
0
LINE
8
Layer 1
10
59.740094
20
33.283542
11
59.254368
21
34.854147
0
LINE
8
Layer 1
10
59.254368
20
34.854147
11
58.672492
21
35.970874
0
LINE
8
Layer 1
10
58.672492
20
35.970874
11
58.079815
21
36.711195
0
LINE
8
Layer 1
10
58.079815
20
36.711195
11
57.564032
21
37.500494
0
LINE
8
Layer 1
10
57.564032
20
37.500494
11
57.471233
21
38.358379
0
LINE
8
Layer 1
10
57.471233
20
38.358379
11
57.647233
21
39.210982
0
LINE
8
Layer 1
10
57.647233
20
39.210982
11
57.945405
21
40.302903
0
LINE
8
Layer 1
10
57.945405
20
40.302903
11
57.927778
21
40.997886
0
LINE
8
Layer 1
10
57.927778
20
40.997886
11
57.670458
21
41.642181
0
LINE
8
Layer 1
10
57.670458
20
41.642181
11
57.216136
21
42.166802
0
LINE
8
Layer 1
10
57.216136
20
42.166802
11
56.607504
21
42.502766
0
LINE
8
Layer 1
10
56.607504
20
42.502766
11
55.659667
21
42.593655
0
LINE
8
Layer 1
10
55.659667
20
42.593655
11
54.772475
21
42.244901
0
LINE
8
Layer 1
10
54.772475
20
42.244901
11
54.090900
21
41.838094
0
LINE
8
Layer 1
10
54.090900
20
41.838094
11
53.549280
21
41.263869
0
LINE
8
Layer 1
10
53.549280
20
41.263869
11
53.147452
21
40.575676
0
LINE
8
Layer 1
10
53.147452
20
40.575676
11
52.885255
21
39.826964
0
LINE
8
Layer 1
10
52.885255
20
39.826964
11
52.688796
21
38.100489
0
LINE
8
Layer 1
10
52.688796
20
38.100489
11
52.864591
21
36.367232
0
LINE
8
Layer 1
10
52.864591
20
36.367232
11
53.527819
21
34.118049
0
LINE
8
Layer 1
10
53.527819
20
34.118049
11
54.252617
21
31.886374
0
LINE
8
Layer 1
10
54.252617
20
31.886374
11
54.281020
21
30.172435
0
LINE
8
Layer 1
10
54.281020
20
30.172435
11
53.853676
21
28.505706
0
LINE
8
Layer 1
10
53.853676
20
28.505706
11
53.649553
21
28.005479
0
LINE
8
Layer 1
10
53.649553
20
28.005479
11
53.276230
21
27.283415
0
LINE
8
Layer 1
10
53.276230
20
27.283415
11
52.748836
21
26.672746
0
LINE
8
Layer 1
10
52.748836
20
26.672746
11
51.842574
21
25.864941
0
LINE
8
Layer 1
10
51.842574
20
25.864941
11
50.820272
21
25.217539
0
LINE
8
Layer 1
10
50.820272
20
25.217539
11
49.205387
21
24.587088
0
LINE
8
Layer 1
10
49.205387
20
24.587088
11
47.340386
21
23.985575
0
LINE
8
Layer 1
10
47.340386
20
23.985575
11
46.644824
21
23.704455
0
LINE
8
Layer 1
10
46.644824
20
23.704455
11
47.039182
21
24.492211
0
LINE
8
Layer 1
10
47.039182
20
24.492211
11
47.516604
21
25.240277
0
LINE
8
Layer 1
10
47.516604
20
25.240277
11
48.207064
21
26.727299
0
LINE
8
Layer 1
10
48.207064
20
26.727299
11
48.681989
21
28.293641
0
LINE
8
Layer 1
10
48.681989
20
28.293641
11
49.194018
21
31.533424
0
LINE
8
Layer 1
10
49.194018
20
31.533424
11
49.325670
21
33.859043
0
LINE
8
Layer 1
10
49.325670
20
33.859043
11
49.224696
21
36.188785
0
LINE
8
Layer 1
10
49.224696
20
36.188785
11
48.858011
21
38.487474
0
LINE
8
Layer 1
10
48.858011
20
38.487474
11
48.192529
21
40.719932
0
LINE
8
Layer 1
10
48.192529
20
40.719932
11
46.983308
21
43.165018
0
LINE
8
Layer 1
10
46.983308
20
43.165018
11
45.302272
21
45.312927
0
LINE
8
Layer 1
10
45.302272
20
45.312927
11
43.114799
21
47.289891
0
LINE
8
Layer 1
10
43.114799
20
47.289891
11
41.892591
21
48.112439
0
LINE
8
Layer 1
10
41.892591
20
48.112439
11
40.576467
21
48.777827
0
LINE
8
Layer 1
10
40.576467
20
48.777827
11
38.518153
21
49.543816
0
LINE
8
Layer 1
10
38.518153
20
49.543816
11
36.383923
21
50.068968
0
LINE
8
Layer 1
10
36.383923
20
50.068968
11
34.203721
21
50.331729
0
LINE
8
Layer 1
10
34.203721
20
50.331729
11
32.007492
21
50.310548
0
LINE
8
Layer 1
10
32.007492
20
50.310548
11
29.407684
21
49.834179
0
LINE
8
Layer 1
10
29.407684
20
49.834179
11
28.161590
21
49.391826
0
LINE
8
Layer 1
10
28.161590
20
49.391826
11
26.974216
21
48.807283
0
LINE
8
Layer 1
10
26.974216
20
48.807283
11
24.790182
21
47.363360
0
LINE
8
Layer 1
10
24.790182
20
47.363360
11
22.861563
21
45.591445
0
LINE
8
Layer 1
10
22.861563
20
45.591445
11
21.244031
21
43.534026
0
LINE
8
Layer 1
10
21.244031
20
43.534026
11
19.993255
21
41.233595
0
LINE
8
Layer 1
10
19.993255
20
41.233595
11
18.676848
21
37.649067
0
LINE
8
Layer 1
10
18.676848
20
37.649067
11
18.238727
21
35.790459
0
LINE
8
Layer 1
10
18.238727
20
35.790459
11
17.979427
21
33.898135
0
LINE
8
Layer 1
10
17.979427
20
33.898135
11
17.930684
21
32.160624
0
LINE
8
Layer 1
10
17.930684
20
32.160624
11
18.050490
21
30.426172
0
LINE
8
Layer 1
10
18.050490
20
30.426172
11
18.337853
21
28.711658
0
LINE
8
Layer 1
10
18.337853
20
28.711658
11
18.791780
21
27.033963
0
LINE
8
Layer 1
10
18.791780
20
27.033963
11
19.769032
21
24.924706
0
LINE
8
Layer 1
10
19.769032
20
24.924706
11
21.024199
21
22.973751
0
LINE
8
Layer 1
10
21.024199
20
22.973751
11
21.216435
21
22.628036
0
LINE
8
Layer 1
10
21.216435
20
22.628036
11
19.066698
21
23.778869
0
LINE
8
Layer 1
10
19.066698
20
23.778869
11
18.234212
21
24.326439
0
LINE
8
Layer 1
10
18.234212
20
24.326439
11
17.511756
21
25.010834
0
LINE
8
Layer 1
10
17.511756
20
25.010834
11
16.667406
21
25.988288
0
LINE
8
Layer 1
10
16.667406
20
25.988288
11
15.984720
21
27.083573
0
LINE
8
Layer 1
10
15.984720
20
27.083573
11
15.376489
21
28.749102
0
LINE
8
Layer 1
10
15.376489
20
28.749102
11
15.286834
21
29.603042
0
LINE
8
Layer 1
10
15.286834
20
29.603042
11
15.342296
21
30.458480
0
LINE
8
Layer 1
10
15.342296
20
30.458480
11
15.697916
21
32.141655
0
LINE
8
Layer 1
10
15.697916
20
32.141655
11
16.263700
21
34.207010
0
LINE
8
Layer 1
10
16.263700
20
34.207010
11
16.657029
21
36.309871
0
LINE
8
Layer 1
10
16.657029
20
36.309871
11
16.691278
21
37.718008
0
LINE
8
Layer 1
10
16.691278
20
37.718008
11
16.567629
21
39.118998
0
LINE
8
Layer 1
10
16.567629
20
39.118998
11
16.279643
21
40.446497
0
LINE
8
Layer 1
10
16.279643
20
40.446497
11
15.843643
21
41.729171
0
LINE
8
Layer 1
10
15.843643
20
41.729171
11
15.377731
21
42.411516
0
LINE
8
Layer 1
10
15.377731
20
42.411516
11
14.698495
21
42.869668
0
LINE
8
Layer 1
10
14.698495
20
42.869668
11
15.232829
21
43.584869
0
LINE
8
Layer 1
10
15.232829
20
43.584869
11
15.632484
21
43.786478
0
LINE
8
Layer 1
10
15.632484
20
43.786478
11
15.928957
21
44.118387
0
LINE
8
Layer 1
10
15.928957
20
44.118387
11
16.091694
21
44.532352
0
LINE
8
Layer 1
10
16.091694
20
44.532352
11
16.090139
21
44.980131
0
LINE
8
Layer 1
10
16.090139
20
44.980131
11
16.022960
21
45.358402
0
LINE
8
Layer 1
10
16.022960
20
45.358402
11
17.664718
21
47.421839
0
LINE
8
Layer 1
10
17.664718
20
47.421839
11
18.001648
21
48.269332
0
LINE
8
Layer 1
10
18.001648
20
48.269332
11
18.810383
21
49.528685
0
LINE
8
Layer 1
10
18.810383
20
49.528685
11
18.760630
21
50.059469
0
LINE
8
Layer 1
10
18.760630
20
50.059469
11
18.314807
21
50.352406
0
LINE
8
Layer 1
10
18.314807
20
50.352406
11
18.204220
21
50.359641
0
LINE
8
Layer 1
10
18.204220
20
50.359641
11
18.204214
21
50.359664
0
LINE
8
Layer 1
10
33.570698
20
49.828948
11
35.533602
21
49.670386
0
LINE
8
Layer 1
10
35.533602
20
49.670386
11
37.464396
21
49.291138
0
LINE
8
Layer 1
10
37.464396
20
49.291138
11
39.316958
21
48.717516
0
LINE
8
Layer 1
10
39.316958
20
48.717516
11
41.045166
21
47.975834
0
LINE
8
Layer 1
10
41.045166
20
47.975834
11
42.269575
21
47.246599
0
LINE
8
Layer 1
10
42.269575
20
47.246599
11
43.464898
21
46.329628
0
LINE
8
Layer 1
10
43.464898
20
46.329628
11
45.541010
21
44.252035
0
LINE
8
Layer 1
10
45.541010
20
44.252035
11
46.512131
21
42.924623
0
LINE
8
Layer 1
10
46.512131
20
42.924623
11
47.294061
21
41.490844
0
LINE
8
Layer 1
10
47.294061
20
41.490844
11
47.898927
21
39.971774
0
LINE
8
Layer 1
10
47.898927
20
39.971774
11
48.338854
21
38.388488
0
LINE
8
Layer 1
10
48.338854
20
38.388488
11
48.772403
21
35.113577
0
LINE
8
Layer 1
10
48.772403
20
35.113577
11
48.691717
21
31.834722
0
LINE
8
Layer 1
10
48.691717
20
31.834722
11
48.471012
21
29.986953
0
LINE
8
Layer 1
10
48.471012
20
29.986953
11
48.102192
21
28.155016
0
LINE
8
Layer 1
10
48.102192
20
28.155016
11
47.504396
21
26.398571
0
LINE
8
Layer 1
10
47.504396
20
26.398571
11
46.596760
21
24.777280
0
LINE
8
Layer 1
10
46.596760
20
24.777280
11
46.152567
21
23.918074
0
LINE
8
Layer 1
10
46.152567
20
23.918074
11
46.171473
21
23.343454
0
LINE
8
Layer 1
10
46.171473
20
23.343454
11
46.353916
21
23.199660
0
LINE
8
Layer 1
10
46.353916
20
23.199660
11
46.651327
21
23.171168
0
LINE
8
Layer 1
10
46.651327
20
23.171168
11
47.589978
21
23.518961
0
LINE
8
Layer 1
10
47.589978
20
23.518961
11
50.121603
21
24.322528
0
LINE
8
Layer 1
10
50.121603
20
24.322528
11
51.908407
21
25.244881
0
LINE
8
Layer 1
10
51.908407
20
25.244881
11
53.406669
21
26.559081
0
LINE
8
Layer 1
10
53.406669
20
26.559081
11
53.983705
21
27.474501
0
LINE
8
Layer 1
10
53.983705
20
27.474501
11
54.546080
21
28.910723
0
LINE
8
Layer 1
10
54.546080
20
28.910723
11
54.856430
21
30.624651
0
LINE
8
Layer 1
10
54.856430
20
30.624651
11
54.842920
21
31.509788
0
LINE
8
Layer 1
10
54.842920
20
31.509788
11
54.677392
21
32.373189
0
LINE
8
Layer 1
10
54.677392
20
32.373189
11
53.677235
21
35.318217
0
LINE
8
Layer 1
10
53.677235
20
35.318217
11
53.336459
21
36.732128
0
LINE
8
Layer 1
10
53.336459
20
36.732128
11
53.220635
21
38.398653
0
LINE
8
Layer 1
10
53.220635
20
38.398653
11
53.342370
21
39.468516
0
LINE
8
Layer 1
10
53.342370
20
39.468516
11
53.677353
21
40.456630
0
LINE
8
Layer 1
10
53.677353
20
40.456630
11
54.241313
21
41.262602
0
LINE
8
Layer 1
10
54.241313
20
41.262602
11
55.049978
21
41.786039
0
LINE
8
Layer 1
10
55.049978
20
41.786039
11
55.464394
21
42.006858
0
LINE
8
Layer 1
10
55.464394
20
42.006858
11
55.943461
21
42.086279
0
LINE
8
Layer 1
10
55.943461
20
42.086279
11
56.525235
21
41.968863
0
LINE
8
Layer 1
10
56.525235
20
41.968863
11
57.000455
21
41.648716
0
LINE
8
Layer 1
10
57.000455
20
41.648716
11
57.320927
21
41.173989
0
LINE
8
Layer 1
10
57.320927
20
41.173989
11
57.438461
21
40.592832
0
LINE
8
Layer 1
10
57.438461
20
40.592832
11
57.402287
21
40.272438
0
LINE
8
Layer 1
10
57.402287
20
40.272438
11
57.267270
21
39.692101
0
LINE
8
Layer 1
10
57.267270
20
39.692101
11
57.043653
21
39.025487
0
LINE
8
Layer 1
10
57.043653
20
39.025487
11
56.950662
21
37.794816
0
LINE
8
Layer 1
10
56.950662
20
37.794816
11
57.241864
21
36.960405
0
LINE
8
Layer 1
10
57.241864
20
36.960405
11
58.490073
21
35.306339
0
LINE
8
Layer 1
10
58.490073
20
35.306339
11
59.092919
21
33.670414
0
LINE
8
Layer 1
10
59.092919
20
33.670414
11
59.443889
21
31.989856
0
LINE
8
Layer 1
10
59.443889
20
31.989856
11
59.579951
21
30.248784
0
LINE
8
Layer 1
10
59.579951
20
30.248784
11
59.538070
21
28.431316
0
LINE
8
Layer 1
10
59.538070
20
28.431316
11
58.743889
21
25.361570
0
LINE
8
Layer 1
10
58.743889
20
25.361570
11
58.231338
21
24.132882
0
LINE
8
Layer 1
10
58.231338
20
24.132882
11
57.343891
21
22.568632
0
LINE
8
Layer 1
10
57.343891
20
22.568632
11
55.726403
21
20.497562
0
LINE
8
Layer 1
10
55.726403
20
20.497562
11
54.307202
21
19.052714
0
LINE
8
Layer 1
10
54.307202
20
19.052714
11
52.439027
21
17.812175
0
LINE
8
Layer 1
10
52.439027
20
17.812175
11
49.474616
21
16.354033
0
LINE
8
Layer 1
10
49.474616
20
16.354033
11
47.258217
21
15.375285
0
LINE
8
Layer 1
10
47.258217
20
15.375285
11
46.505248
21
14.904538
0
LINE
8
Layer 1
10
46.505248
20
14.904538
11
46.288956
21
14.539561
0
LINE
8
Layer 1
10
46.288956
20
14.539561
11
46.297035
21
14.083892
0
LINE
8
Layer 1
10
46.297035
20
14.083892
11
46.548319
21
13.632309
0
LINE
8
Layer 1
10
46.548319
20
13.632309
11
46.958074
21
13.217005
0
LINE
8
Layer 1
10
46.958074
20
13.217005
11
47.840610
21
12.538251
0
LINE
8
Layer 1
10
47.840610
20
12.538251
11
49.746199
21
11.383182
0
LINE
8
Layer 1
10
49.746199
20
11.383182
11
50.795438
21
11.022594
0
LINE
8
Layer 1
10
50.795438
20
11.022594
11
51.900821
21
10.857218
0
LINE
8
Layer 1
10
51.900821
20
10.857218
11
53.069734
21
10.922782
0
LINE
8
Layer 1
10
53.069734
20
10.922782
11
54.197676
21
11.174151
0
LINE
8
Layer 1
10
54.197676
20
11.174151
11
56.425087
21
11.872142
0
LINE
8
Layer 1
10
56.425087
20
11.872142
11
57.634313
21
12.431280
0
LINE
8
Layer 1
10
57.634313
20
12.431280
11
55.203457
21
14.699357
0
LINE
8
Layer 1
10
55.203457
20
14.699357
11
55.203457
21
15.040420
0
LINE
8
Layer 1
10
55.203457
20
15.040420
11
59.945279
21
16.679078
0
LINE
8
Layer 1
10
59.945279
20
16.679078
11
61.078544
21
21.372325
0
LINE
8
Layer 1
10
61.078544
20
21.372325
11
68.111178
21
19.956394
0
LINE
8
Layer 1
10
68.111178
20
19.956394
11
66.261166
21
13.221928
0
LINE
8
Layer 1
10
66.261166
20
13.221928
11
66.261166
21
12.735654
0
LINE
8
Layer 1
10
66.261166
20
12.735654
11
60.682701
21
9.584946
0
LINE
8
Layer 1
10
60.682701
20
9.584946
11
58.792898
21
11.334192
0
LINE
8
Layer 1
10
58.792898
20
11.334192
11
57.271028
21
9.968385
0
LINE
8
Layer 1
10
57.271028
20
9.968385
11
55.796384
21
8.757615
0
LINE
8
Layer 1
10
55.796384
20
8.757615
11
54.453786
21
7.838999
0
LINE
8
Layer 1
10
54.453786
20
7.838999
11
52.764879
21
7.170528
0
LINE
8
Layer 1
10
52.764879
20
7.170528
11
50.251310
21
6.710191
0
LINE
8
Layer 1
10
50.251310
20
6.710191
11
48.799163
21
6.847895
0
LINE
8
Layer 1
10
48.799163
20
6.847895
11
47.103658
21
7.242032
0
LINE
8
Layer 1
10
47.103658
20
7.242032
11
45.532069
21
7.781464
0
LINE
8
Layer 1
10
45.532069
20
7.781464
11
44.451672
21
8.355048
0
LINE
8
Layer 1
10
44.451672
20
8.355048
11
43.131858
21
9.608717
0
LINE
8
Layer 1
10
43.131858
20
9.608717
11
42.705459
21
10.259414
0
LINE
8
Layer 1
10
42.705459
20
10.259414
11
42.162926
21
10.773504
0
LINE
8
Layer 1
10
42.162926
20
10.773504
11
41.783128
21
10.852217
0
LINE
8
Layer 1
10
41.783128
20
10.852217
11
41.513904
21
10.770248
0
LINE
8
Layer 1
10
41.513904
20
10.770248
11
41.248242
21
10.271901
0
LINE
8
Layer 1
10
41.248242
20
10.271901
11
41.248074
21
9.573738
0
LINE
8
Layer 1
10
41.248074
20
9.573738
11
41.395532
21
8.971032
0
LINE
8
Layer 1
10
41.395532
20
8.971032
11
42.119299
21
7.365673
0
LINE
8
Layer 1
10
42.119299
20
7.365673
11
43.033095
21
5.968173
0
LINE
8
Layer 1
10
43.033095
20
5.968173
11
44.251295
21
4.905896
0
LINE
8
Layer 1
10
44.251295
20
4.905896
11
45.010289
21
4.540267
0
LINE
8
Layer 1
10
45.010289
20
4.540267
11
45.888275
21
4.306206
0
LINE
8
Layer 1
10
45.888275
20
4.306206
11
48.949067
21
4.213189
0
LINE
8
Layer 1
10
48.949067
20
4.213189
11
48.892224
21
4.333077
0
LINE
8
Layer 1
10
48.892224
20
4.333077
11
48.592499
21
4.976966
0
LINE
8
Layer 1
10
48.592499
20
4.976966
11
48.604908
21
4.982126
0
LINE
8
Layer 1
10
48.604908
20
4.982126
11
50.746892
21
5.982580
0
LINE
8
Layer 1
10
50.746892
20
5.982580
11
50.746892
21
5.984168
0
LINE
8
Layer 1
10
50.746892
20
5.984168
11
51.809360
21
6.480261
0
LINE
8
Layer 1
10
51.809360
20
6.480261
11
52.805679
21
4.342409
0
LINE
8
Layer 1
10
52.805679
20
4.342409
11
54.617453
21
5.188868
0
LINE
8
Layer 1
10
54.617453
20
5.188868
11
57.026603
21
6.312827
0
LINE
8
Layer 1
10
57.026603
20
6.312827
11
57.039012
21
6.319019
0
LINE
8
Layer 1
10
57.039012
20
6.319019
11
57.536656
21
5.253453
0
LINE
8
Layer 1
10
57.536656
20
5.253453
11
57.533560
21
5.251865
0
LINE
8
Layer 1
10
57.533560
20
5.251865
11
58.032238
21
4.180098
0
LINE
8
Layer 1
10
58.032238
20
4.180098
11
56.968220
21
3.684521
0
LINE
8
Layer 1
10
56.968220
20
3.684521
11
56.968220
21
3.686108
0
LINE
8
Layer 1
10
56.968220
20
3.686108
11
56.957372
21
3.680949
0
LINE
8
Layer 1
10
56.957372
20
3.680949
11
56.459729
21
4.749615
0
LINE
8
Layer 1
10
56.459729
20
4.749615
11
55.410181
21
4.260759
0
LINE
8
Layer 1
10
55.410181
20
4.260759
11
55.908859
21
3.190023
0
LINE
8
Layer 1
10
55.908859
20
3.190023
11
55.896450
21
3.185366
0
LINE
8
Layer 1
10
55.896450
20
3.185366
11
54.844836
21
2.694440
0
LINE
8
Layer 1
10
54.844836
20
2.694440
11
54.843248
21
2.696557
0
LINE
8
Layer 1
10
54.843248
20
2.696557
11
54.832401
21
2.691398
0
LINE
8
Layer 1
10
54.832401
20
2.691398
11
54.335273
21
3.758514
0
LINE
8
Layer 1
10
54.335273
20
3.758514
11
53.302780
21
3.276891
0
LINE
8
Layer 1
10
53.302780
20
3.276891
11
53.798355
21
2.211323
0
LINE
8
Layer 1
10
53.798355
20
2.211323
11
53.783882
21
2.205634
0
LINE
8
Layer 1
10
53.783882
20
2.205634
11
53.785999
21
2.200475
0
LINE
8
Layer 1
10
53.785999
20
2.200475
11
52.930237
21
1.801015
0
LINE
8
Layer 1
10
52.930237
20
1.801015
11
52.930237
21
1.799428
0
LINE
8
Layer 1
10
52.930237
20
1.799428
11
51.547378
21
1.153991
0
LINE
8
Layer 1
10
51.547378
20
1.153991
11
51.531344
21
1.147270
0
LINE
8
Layer 1
10
51.531344
20
1.147270
11
50.581017
21
0.703887
0
LINE
8
Layer 1
10
50.581017
20
0.703887
11
49.807938
21
2.367866
0
LINE
8
Layer 1
10
49.807938
20
2.367866
11
47.707102
21
1.689623
0
LINE
8
Layer 1
10
47.707102
20
1.689623
11
45.310545
21
1.180343
0
LINE
8
Layer 1
10
45.310545
20
1.180343
11
43.554362
21
1.238348
0
LINE
8
Layer 1
10
43.554362
20
1.238348
11
42.211006
21
1.539351
0
LINE
8
Layer 1
10
42.211006
20
1.539351
11
41.062207
21
2.104879
0
LINE
8
Layer 1
10
41.062207
20
2.104879
11
39.889695
21
2.956460
0
LINE
8
Layer 1
10
39.889695
20
2.956460
11
38.600683
21
4.285281
0
LINE
8
Layer 1
10
38.600683
20
4.285281
11
37.535974
21
5.800448
0
LINE
8
Layer 1
10
37.535974
20
5.800448
11
36.481144
21
7.307228
0
LINE
8
Layer 1
10
36.481144
20
7.307228
11
35.221768
21
8.610887
0
LINE
8
Layer 1
10
35.221768
20
8.610887
11
34.625678
21
8.961872
0
LINE
8
Layer 1
10
34.625678
20
8.961872
11
34.049858
21
9.080594
0
LINE
8
Layer 1
10
34.049858
20
9.080594
11
33.495532
21
9.007250
0
LINE
8
Layer 1
10
33.495532
20
9.007250
11
32.963926
21
8.782040
0
LINE
8
Layer 1
10
32.963926
20
8.782040
11
31.973776
21
8.036821
0
LINE
8
Layer 1
10
31.973776
20
8.036821
11
31.089209
21
7.166533
0
LINE
8
Layer 1
10
31.089209
20
7.166533
11
28.871977
21
5.060266
0
LINE
8
Layer 1
10
28.871977
20
5.060266
11
26.421284
21
3.249980
0
LINE
8
Layer 1
10
26.421284
20
3.249980
11
24.856173
21
2.345612
0
LINE
8
Layer 1
10
24.856173
20
2.345612
11
23.216832
21
1.595820
0
LINE
8
Layer 1
10
23.216832
20
1.595820
11
21.805845
21
1.305200
0
LINE
8
Layer 1
10
21.805845
20
1.305200
11
20.356546
21
1.336921
0
LINE
8
Layer 1
10
20.356546
20
1.336921
11
17.444066
21
1.800975
0
LINE
8
Layer 1
10
17.444066
20
1.800975
11
16.262047
21
2.133574
0
LINE
8
Layer 1
10
16.262047
20
2.133574
11
15.513437
21
2.596791
0
LINE
8
Layer 1
10
15.513437
20
2.596791
11
12.359112
21
4.231832
0
LINE
8
Layer 1
10
12.359112
20
4.231832
11
11.836663
21
3.191587
0
LINE
8
Layer 1
10
11.836663
20
3.191587
11
11.161253
21
3.554872
0
LINE
8
Layer 1
10
11.161253
20
3.554872
11
11.417051
21
4.074220
0
LINE
8
Layer 1
10
11.417051
20
4.074220
11
8.988779
21
5.403334
0
LINE
8
Layer 1
10
8.988779
20
5.403334
11
8.597804
21
5.859119
0
LINE
8
Layer 1
10
8.597804
20
5.859119
11
8.448212
21
6.420858
0
LINE
8
Layer 1
10
8.448212
20
6.420858
11
8.630662
21
7.198056
0
LINE
8
Layer 1
10
8.630662
20
7.198056
11
9.246395
21
7.902944
0
LINE
8
Layer 1
10
9.246395
20
7.902944
11
9.811892
21
8.070387
0
LINE
8
Layer 1
10
9.811892
20
8.070387
11
10.225635
21
7.971808
0
LINE
8
Layer 1
10
10.225635
20
7.971808
11
10.386108
21
7.878632
0
LINE
8
Layer 1
10
10.386108
20
7.878632
11
12.687773
21
6.658037
0
LINE
8
Layer 1
10
12.687773
20
6.658037
11
12.981295
21
7.254899
0
LINE
8
Layer 1
10
12.981295
20
7.254899
11
13.701147
21
6.902982
0
LINE
8
Layer 1
10
13.701147
20
6.902982
11
13.211772
21
5.930433
0
LINE
8
Layer 1
10
13.211772
20
5.930433
11
15.873104
21
4.533623
0
LINE
8
Layer 1
10
15.873104
20
4.533623
11
16.902805
21
4.797008
0
LINE
8
Layer 1
10
16.902805
20
4.797008
11
18.063071
21
4.944709
0
LINE
8
Layer 1
10
18.063071
20
4.944709
11
19.819628
21
5.021448
0
LINE
8
Layer 1
10
19.819628
20
5.021448
11
20.527990
21
5.104534
0
LINE
8
Layer 1
10
20.527990
20
5.104534
11
21.198016
21
5.338257
0
LINE
8
Layer 1
10
21.198016
20
5.338257
11
22.384843
21
6.135588
0
LINE
8
Layer 1
10
22.384843
20
6.135588
11
23.311576
21
6.945783
0
LINE
8
Layer 1
10
23.311576
20
6.945783
11
24.282907
21
7.918757
0
LINE
8
Layer 1
10
24.282907
20
7.918757
11
24.981263
21
9.028635
0
LINE
8
Layer 1
10
24.981263
20
9.028635
11
25.128832
21
9.626828
0
LINE
8
Layer 1
10
25.128832
20
9.626828
11
25.089067
21
10.249545
0
LINE
8
Layer 1
10
25.089067
20
10.249545
11
24.848489
21
10.640221
0
LINE
8
Layer 1
10
24.848489
20
10.640221
11
24.435953
21
10.804571
0
LINE
8
Layer 1
10
24.435953
20
10.804571
11
23.513455
21
10.649004
0
LINE
8
Layer 1
10
23.513455
20
10.649004
11
21.547630
21
9.662181
0
LINE
8
Layer 1
10
21.547630
20
9.662181
11
19.582627
21
8.841295
0
LINE
8
Layer 1
10
19.582627
20
8.841295
11
18.576044
21
8.586049
0
LINE
8
Layer 1
10
18.576044
20
8.586049
11
17.540400
21
8.483851
0
LINE
8
Layer 1
10
17.540400
20
8.483851
11
16.465939
21
8.571891
0
LINE
8
Layer 1
10
16.465939
20
8.571891
11
15.342905
21
8.887355
0
LINE
8
Layer 1
10
15.342905
20
8.887355
11
14.213174
21
9.480640
0
LINE
8
Layer 1
10
14.213174
20
9.480640
11
13.233087
21
10.263408
0
LINE
8
Layer 1
10
13.233087
20
10.263408
11
11.450124
21
12.080438
0
LINE
8
Layer 1
10
11.450124
20
12.080438
11
10.153196
21
13.232922
0
LINE
8
Layer 1
10
10.153196
20
13.232922
11
8.801194
21
14.335076
0
LINE
8
Layer 1
10
8.801194
20
14.335076
11
8.248773
21
14.846158
0
LINE
8
Layer 1
10
8.248773
20
14.846158
11
6.864364
21
16.109127
0
LINE
8
Layer 1
10
6.864364
20
16.109127
11
6.861263
21
16.058485
0
LINE
8
Layer 1
10
6.861263
20
16.058485
11
6.870566
21
15.987688
0
LINE
8
Layer 1
10
6.870566
20
15.987688
11
6.933611
21
15.562908
0
LINE
8
Layer 1
10
6.933611
20
15.562908
11
6.709335
21
15.351551
0
LINE
8
Layer 1
10
6.709335
20
15.351551
11
6.706234
21
15.351551
0
LINE
8
Layer 1
10
6.706234
20
15.351551
11
6.700033
21
15.346895
0
LINE
8
Layer 1
10
6.700033
20
15.346895
11
6.665410
21
15.341735
0
LINE
8
Layer 1
10
6.665410
20
15.341735
11
6.523299
21
15.323135
0
LINE
8
Layer 1
10
6.523299
20
15.323135
11
6.452503
21
15.326231
0
LINE
8
Layer 1
10
6.452503
20
15.326231
11
6.365687
21
15.360854
0
LINE
8
Layer 1
10
6.365687
20
15.360854
11
6.341916
21
15.370168
0
LINE
8
Layer 1
10
6.341916
20
15.370168
11
5.954860
21
16.118443
0
LINE
8
Layer 1
10
5.954860
20
16.118443
11
5.381770
21
16.082269
0
LINE
8
Layer 1
10
5.381770
20
16.082269
11
5.336294
21
16.019224
0
LINE
8
Layer 1
10
5.336294
20
16.019224
11
5.149743
21
15.319526
0
LINE
8
Layer 1
10
5.149743
20
15.319526
11
5.025202
21
15.242527
0
LINE
8
Layer 1
10
5.025202
20
15.242527
11
5.023641
21
15.242527
0
LINE
8
Layer 1
10
5.023641
20
15.242527
11
4.968348
21
15.240940
0
LINE
8
Layer 1
10
4.968348
20
15.240940
11
4.881531
21
15.245597
0
LINE
8
Layer 1
10
4.881531
20
15.245597
11
4.805567
21
15.250253
0
LINE
8
Layer 1
10
4.805567
20
15.250253
11
4.598862
21
15.330869
0
LINE
8
Layer 1
10
4.598862
20
15.330869
11
4.546669
21
15.386162
0
LINE
8
Layer 1
10
4.546669
20
15.386162
11
4.528066
21
15.406825
0
LINE
8
Layer 1
10
4.528066
20
15.406825
11
4.529627
21
15.501393
0
LINE
8
Layer 1
10
4.529627
20
15.501393
11
4.532728
21
15.615081
0
LINE
8
Layer 1
10
4.532728
20
15.615081
11
4.537379
21
16.224345
0
LINE
8
Layer 1
10
4.537379
20
16.224345
11
4.330674
21
16.323563
0
LINE
8
Layer 1
10
4.330674
20
16.323563
11
4.103298
21
16.431050
0
LINE
8
Layer 1
10
4.103298
20
16.431050
11
4.007179
21
16.477043
0
LINE
8
Layer 1
10
4.007179
20
16.477043
11
4.004078
21
16.473947
0
LINE
8
Layer 1
10
4.004078
20
16.473947
11
3.781353
21
16.288945
0
LINE
8
Layer 1
10
3.781353
20
16.288945
11
3.388096
21
15.947882
0
LINE
8
Layer 1
10
3.388096
20
15.947882
11
3.380344
21
15.944786
0
LINE
8
Layer 1
10
3.380344
20
15.944786
11
3.378783
21
15.943199
0
LINE
8
Layer 1
10
3.378783
20
15.943199
11
3.374131
21
15.941611
0
LINE
8
Layer 1
10
3.374131
20
15.941611
11
3.326589
21
15.932298
0
LINE
8
Layer 1
10
3.326589
20
15.932298
11
3.157608
21
15.989144
0
LINE
8
Layer 1
10
3.157608
20
15.989144
11
3.089912
21
16.039785
0
LINE
8
Layer 1
10
3.089912
20
16.039785
11
3.004646
21
16.102830
0
LINE
8
Layer 1
10
3.004646
20
16.102830
11
2.894058
21
16.281114
0
LINE
8
Layer 1
10
2.894058
20
16.281114
11
2.881657
21
16.358628
0
LINE
8
Layer 1
10
2.881657
20
16.358628
11
2.878556
21
16.377229
0
LINE
8
Layer 1
10
2.878556
20
16.377229
11
2.932300
21
16.451643
0
LINE
8
Layer 1
10
2.932300
20
16.451643
11
3.121435
21
16.715194
0
LINE
8
Layer 1
10
3.121435
20
16.715194
11
3.383434
21
17.078477
0
LINE
8
Layer 1
10
3.383434
20
17.078477
11
3.089913
21
17.521862
0
LINE
8
Layer 1
10
3.089913
20
17.521862
11
2.616557
21
17.438146
0
LINE
8
Layer 1
10
2.616557
20
17.438146
11
2.549895
21
17.425737
0
LINE
8
Layer 1
10
2.549895
20
17.425737
11
2.398483
21
17.408168
0
LINE
8
Layer 1
10
2.398483
20
17.408168
11
2.344740
21
17.408168
0
LINE
8
Layer 1
10
2.344740
20
17.408168
11
2.253272
21
17.408168
0
LINE
8
Layer 1
10
2.253272
20
17.408168
11
2.235702
21
17.424176
0
LINE
8
Layer 1
10
2.235702
20
17.424176
11
2.234152
21
17.424176
0
LINE
8
Layer 1
10
2.234152
20
17.424176
11
2.194878
21
17.460347
0
LINE
8
Layer 1
10
2.194878
20
17.460347
11
2.065170
21
17.667052
0
LINE
8
Layer 1
10
2.065170
20
17.667052
11
2.057419
21
17.728549
0
LINE
8
Layer 1
10
2.057419
20
17.728549
11
2.055868
21
17.733206
0
LINE
8
Layer 1
10
2.055868
20
17.733206
11
2.041916
21
17.843794
0
LINE
8
Layer 1
10
2.041916
20
17.843794
11
2.041916
21
17.845381
0
LINE
8
Layer 1
10
2.041916
20
17.845381
11
2.085841
21
18.012812
0
LINE
8
Layer 1
10
2.085841
20
18.012812
11
2.108061
21
18.035037
0
LINE
8
Layer 1
10
2.108061
20
18.035037
11
2.117363
21
18.045885
0
LINE
8
Layer 1
10
2.117363
20
18.045885
11
2.123564
21
18.048980
0
LINE
8
Layer 1
10
2.123564
20
18.048980
11
2.126665
21
18.050568
0
LINE
8
Layer 1
10
2.126665
20
18.050568
11
2.758150
21
18.277945
0
LINE
8
Layer 1
10
2.758150
20
18.277945
11
2.851684
21
18.341506
0
LINE
8
Layer 1
10
2.851684
20
18.341506
11
2.873388
21
18.909431
0
LINE
8
Layer 1
10
2.873388
20
18.909431
11
2.142684
21
19.130604
0
LINE
8
Layer 1
10
2.142684
20
19.130604
11
2.104960
21
19.149733
0
LINE
8
Layer 1
10
2.104960
20
19.149733
11
2.041915
21
19.181255
0
LINE
8
Layer 1
10
2.041915
20
19.181255
11
2.030546
21
19.209677
0
LINE
8
Layer 1
10
2.030546
20
19.209677
11
2.013493
21
19.253603
0
LINE
8
Layer 1
10
2.013493
20
19.253603
11
1.994373
21
19.515601
0
LINE
8
Layer 1
10
1.994373
20
19.515601
11
2.027446
21
19.607067
0
LINE
8
Layer 1
10
2.027446
20
19.607067
11
2.028996
21
19.610692
0
LINE
8
Layer 1
10
2.028996
20
19.610692
11
2.076538
21
19.708360
0
LINE
8
Layer 1
10
2.076538
20
19.708360
11
2.155603
21
19.787426
0
LINE
8
Layer 1
10
2.155603
20
19.787426
11
2.164905
21
19.792082
0
LINE
8
Layer 1
10
2.164905
20
19.792082
11
2.914729
21
19.730588
0
LINE
8
Layer 1
10
2.914729
20
19.730588
11
2.998445
21
19.732705
0
LINE
8
Layer 1
10
2.998445
20
19.732705
11
3.063040
21
19.738393
0
LINE
8
Layer 1
10
3.063040
20
19.738393
11
3.298168
21
20.242239
0
LINE
8
Layer 1
10
3.298168
20
20.242239
11
2.971573
21
20.594152
0
LINE
8
Layer 1
10
2.971573
20
20.594152
11
2.880106
21
20.674768
0
LINE
8
Layer 1
10
2.880106
20
20.674768
11
2.783471
21
20.757966
0
LINE
8
Layer 1
10
2.783471
20
20.757966
11
2.772618
21
20.974491
0
LINE
8
Layer 1
10
2.772618
20
20.974491
11
2.850133
21
21.129004
0
LINE
8
Layer 1
10
2.850133
20
21.129004
11
2.862534
21
21.152764
0
LINE
8
Layer 1
10
2.862534
20
21.152764
11
2.900257
21
21.185837
0
LINE
8
Layer 1
10
2.900257
20
21.185837
11
2.988624
21
21.261801
0
LINE
8
Layer 1
10
2.988624
20
21.261801
11
3.018596
21
21.287122
0
LINE
8
Layer 1
10
3.018596
20
21.287122
11
3.022213
21
21.289238
0
LINE
8
Layer 1
10
3.022213
20
21.289238
11
3.205147
21
21.306278
0
LINE
8
Layer 1
10
3.205147
20
21.306278
11
3.773587
21
20.925940
0
LINE
8
Layer 1
10
3.773587
20
20.925940
11
3.860404
21
20.929035
0
LINE
8
Layer 1
10
3.860404
20
20.929035
11
3.907429
21
20.965725
0
LINE
8
Layer 1
10
3.907429
20
20.965725
11
4.236091
21
21.219455
0
LINE
8
Layer 1
10
4.236091
20
21.219455
11
4.308438
21
21.274750
0
LINE
8
Layer 1
10
4.308438
20
21.274750
11
4.115685
21
22.015273
0
LINE
8
Layer 1
10
4.115685
20
22.015273
11
4.112584
21
22.084519
0
LINE
8
Layer 1
10
4.112584
20
22.084519
11
4.142556
21
22.119659
0
LINE
8
Layer 1
10
4.142556
20
22.119659
11
4.170978
21
22.152732
0
LINE
8
Layer 1
10
4.170978
20
22.152732
11
4.224722
21
22.202857
0
LINE
8
Layer 1
10
4.224722
20
22.202857
11
4.349778
21
22.285023
0
LINE
8
Layer 1
10
4.349778
20
22.285023
11
4.354430
21
22.288119
0
LINE
8
Layer 1
10
4.354430
20
22.288119
11
4.355991
21
22.288119
0
LINE
8
Layer 1
10
4.355991
20
22.288119
11
4.363743
21
22.293278
0
LINE
8
Layer 1
10
4.363743
20
22.293278
11
4.701706
21
22.318599
0
LINE
8
Layer 1
10
4.701706
20
22.318599
11
5.124936
21
21.578076
0
LINE
8
Layer 1
10
5.124936
20
21.578076
11
5.653585
21
21.595141
0
LINE
8
Layer 1
10
5.653585
20
21.595141
11
5.917134
21
22.269516
0
LINE
8
Layer 1
10
5.917134
20
22.269516
11
5.940905
21
22.316543
0
LINE
8
Layer 1
10
5.940905
20
22.316543
11
5.967776
21
22.368734
0
LINE
8
Layer 1
10
5.967776
20
22.368734
11
5.975528
21
22.371830
0
LINE
8
Layer 1
10
5.975528
20
22.371830
11
5.977090
21
22.373947
0
LINE
8
Layer 1
10
5.977090
20
22.373947
11
6.304201
21
22.388419
0
LINE
8
Layer 1
10
6.304201
20
22.388419
11
6.580153
21
22.222539
0
LINE
8
Layer 1
10
6.580153
20
22.222539
11
6.501605
21
21.482532
0
LINE
8
Layer 1
10
6.501605
20
21.482532
11
6.510907
21
21.393651
0
LINE
8
Layer 1
10
6.510907
20
21.393651
11
6.897447
21
21.171441
0
LINE
8
Layer 1
10
6.897447
20
21.171441
11
7.067979
21
21.101678
0
LINE
8
Layer 1
10
7.067979
20
21.101678
11
7.409043
21
21.430341
0
LINE
8
Layer 1
10
7.409043
20
21.430341
11
7.455035
21
21.477365
0
LINE
8
Layer 1
10
7.455035
20
21.477365
11
7.505161
21
21.523357
0
LINE
8
Layer 1
10
7.505161
20
21.523357
11
7.510328
21
21.526453
0
LINE
8
Layer 1
10
7.510328
20
21.526453
11
7.648821
21
21.607069
0
LINE
8
Layer 1
10
7.648821
20
21.607069
11
7.658639
21
21.611725
0
LINE
8
Layer 1
10
7.658639
20
21.611725
11
7.926840
21
21.493385
0
LINE
8
Layer 1
10
7.926840
20
21.493385
11
8.119592
21
21.245339
0
LINE
8
Layer 1
10
8.119592
20
21.245339
11
7.892216
21
20.841231
0
LINE
8
Layer 1
10
7.892216
20
20.841231
11
7.735637
21
20.604553
0
LINE
8
Layer 1
10
7.735637
20
20.604553
11
7.710832
21
20.552359
0
LINE
8
Layer 1
10
7.710832
20
20.552359
11
8.005905
21
20.121377
0
LINE
8
Layer 1
10
8.005905
20
20.121377
11
8.015207
21
20.112064
0
LINE
8
Layer 1
10
8.015207
20
20.112064
11
8.086521
21
20.092934
0
LINE
8
Layer 1
10
8.086521
20
20.092934
11
8.173337
21
20.104311
0
LINE
8
Layer 1
10
8.173337
20
20.104311
11
8.251885
21
20.122912
0
LINE
8
Layer 1
10
8.251885
20
20.122912
11
8.772783
21
20.233499
0
LINE
8
Layer 1
10
8.772783
20
20.233499
11
8.957784
21
20.022143
0
LINE
8
Layer 1
10
8.957784
20
20.022143
11
9.009977
21
19.673327
0
LINE
8
Layer 1
10
9.009977
20
19.673327
11
8.858049
21
19.547237
0
LINE
8
Layer 1
10
8.858049
20
19.547237
11
8.856488
21
19.544142
0
LINE
8
Layer 1
10
8.856488
20
19.544142
11
8.687506
21
19.468696
0
LINE
8
Layer 1
10
8.687506
20
19.468696
11
8.675105
21
19.464039
0
LINE
8
Layer 1
10
8.675105
20
19.464039
11
8.665802
21
19.458880
0
LINE
8
Layer 1
10
8.665802
20
19.458880
11
8.460130
21
19.375163
0
LINE
8
Layer 1
10
8.460130
20
19.375163
11
8.458569
21
19.373576
0
LINE
8
Layer 1
10
8.458569
20
19.373576
11
8.302507
21
19.275907
0
LINE
8
Layer 1
10
8.302507
20
19.275907
11
8.293204
21
19.269716
0
LINE
8
Layer 1
10
8.293204
20
19.269716
11
8.318524
21
18.677505
0
LINE
8
Layer 1
10
8.318524
20
18.677505
11
9.023907
21
18.391737
0
LINE
8
Layer 1
10
9.023907
20
18.391737
11
9.106072
21
18.024316
0
LINE
8
Layer 1
10
9.106072
20
18.024316
11
8.878696
21
17.754050
0
LINE
8
Layer 1
10
8.878696
20
17.754050
11
8.869394
21
17.749393
0
LINE
8
Layer 1
10
8.869394
20
17.749393
11
8.766558
21
17.761802
0
LINE
8
Layer 1
10
8.766558
20
17.761802
11
8.625998
21
17.777809
0
LINE
8
Layer 1
10
8.625998
20
17.777809
11
8.602228
21
17.780905
0
LINE
8
Layer 1
10
8.602228
20
17.780905
11
8.136624
21
17.793314
0
LINE
8
Layer 1
10
8.136624
20
17.793314
11
8.889549
21
17.189215
0
LINE
8
Layer 1
10
8.889549
20
17.189215
11
11.072875
21
16.036832
0
LINE
8
Layer 1
10
11.072875
20
16.036832
11
11.284231
21
15.940198
0
LINE
8
Layer 1
10
11.284231
20
15.940198
11
11.278029
21
15.934007
0
LINE
8
Layer 1
10
11.278029
20
15.934007
11
12.921338
21
15.010552
0
LINE
8
Layer 1
10
12.921338
20
15.010552
11
14.353603
21
14.317653
0
LINE
8
Layer 1
10
14.353603
20
14.317653
11
15.839908
21
13.834615
0
LINE
8
Layer 1
10
15.839908
20
13.834615
11
17.269941
21
13.693695
0
LINE
8
Layer 1
10
17.269941
20
13.693695
11
17.929383
21
13.792860
0
LINE
8
Layer 1
10
17.929383
20
13.792860
11
18.533391
21
14.027150
0
LINE
8
Layer 1
10
18.533391
20
14.027150
11
19.373465
21
14.606132
0
LINE
8
Layer 1
10
19.373465
20
14.606132
11
20.186001
21
15.362468
0
LINE
8
Layer 1
10
20.186001
20
15.362468
11
16.726273
21
17.217806
0
LINE
8
Layer 1
10
16.726273
20
17.217806
11
14.484366
21
18.891564
0
LINE
8
Layer 1
10
14.484366
20
18.891564
11
12.944057
21
20.505706
0
LINE
8
Layer 1
10
12.944057
20
20.505706
11
11.589121
21
22.182198
0
LINE
8
Layer 1
10
11.589121
20
22.182198
11
10.794717
21
23.550841
0
LINE
8
Layer 1
10
10.794717
20
23.550841
11
10.112237
21
25.032703
0
LINE
8
Layer 1
10
10.112237
20
25.032703
11
9.625209
21
26.876151
0
LINE
8
Layer 1
10
9.625209
20
26.876151
11
9.417164
21
29.329554
0
LINE
8
Layer 1
10
9.417164
20
29.329554
11
10.316322
21
32.820826
0
LINE
8
Layer 1
10
10.316322
20
32.820826
11
10.944147
21
34.557927
0
LINE
8
Layer 1
10
10.944147
20
34.557927
11
11.672837
21
36.123963
0
LINE
8
Layer 1
10
11.672837
20
36.123963
11
12.153540
21
37.203220
0
LINE
8
Layer 1
10
12.153540
20
37.203220
11
12.496558
21
38.308839
0
LINE
8
Layer 1
10
12.496558
20
38.308839
11
12.615736
21
39.403850
0
LINE
8
Layer 1
10
12.615736
20
39.403850
11
12.461935
21
40.495266
0
LINE
8
Layer 1
10
12.461935
20
40.495266
11
12.373568
21
40.962421
0
LINE
8
Layer 1
10
12.373568
20
40.962421
11
11.216535
21
39.465873
0
LINE
8
Layer 1
10
11.216535
20
39.465873
11
10.499783
21
38.889682
0
LINE
8
Layer 1
10
10.499783
20
38.889682
11
9.385641
21
37.767271
0
LINE
8
Layer 1
10
9.385641
20
37.767271
11
9.338099
21
37.721279
0
LINE
8
Layer 1
10
9.338099
20
37.721279
11
9.322079
21
37.710426
0
LINE
8
Layer 1
10
9.322079
20
37.710426
11
9.282804
21
37.688206
0
LINE
8
Layer 1
10
9.282804
20
37.688206
11
9.263683
21
37.680454
0
LINE
8
Layer 1
10
9.263683
20
37.680454
11
9.215107
21
37.665984
0
LINE
8
Layer 1
10
9.215107
20
37.665984
11
9.200637
21
37.662883
0
LINE
8
Layer 1
10
9.200637
20
37.662883
11
9.134491
21
37.661322
0
LINE
8
Layer 1
10
9.134491
20
37.661322
11
8.216486
21
36.479424
0
LINE
8
Layer 1
10
8.216486
20
36.479424
11
7.515205
21
35.733263
0
LINE
8
Layer 1
10
7.515205
20
35.733263
11
6.772882
21
35.140549
0
LINE
8
Layer 1
10
6.772882
20
35.140549
11
6.189049
21
34.706800
0
LINE
8
Layer 1
10
6.189049
20
34.706800
11
5.221535
21
33.675622
0
LINE
8
Layer 1
10
5.221535
20
33.675622
11
4.749248
21
32.931153
0
LINE
8
Layer 1
10
4.749248
20
32.931153
11
4.367461
21
32.031513
0
LINE
8
Layer 1
10
4.367461
20
32.031513
11
4.138315
21
30.974766
0
LINE
8
Layer 1
10
4.138315
20
30.974766
11
4.123951
21
29.758972
0
LINE
8
Layer 1
10
4.123951
20
29.758972
11
3.933265
21
29.743470
0
LINE
8
Layer 1
10
3.933265
20
29.743470
11
3.948262
21
30.999757
0
LINE
8
Layer 1
10
3.948262
20
30.999757
11
4.185129
21
32.091743
0
LINE
8
Layer 1
10
4.185129
20
32.091743
11
4.579689
21
33.021420
0
LINE
8
Layer 1
10
4.579689
20
33.021420
11
5.067761
21
33.790780
0
LINE
8
Layer 1
10
5.067761
20
33.790780
11
6.067727
21
34.856515
0
LINE
8
Layer 1
10
6.067727
20
34.856515
11
6.671596
21
35.304881
0
LINE
8
Layer 1
10
6.671596
20
35.304881
11
7.370910
21
35.862963
0
LINE
8
Layer 1
10
7.370910
20
35.862963
11
8.043178
21
36.575713
0
LINE
8
Layer 1
10
8.043178
20
36.575713
11
8.956208
21
37.743488
0
LINE
8
Layer 1
10
8.956208
20
37.743488
11
8.872492
21
37.879397
0
LINE
8
Layer 1
10
8.872492
20
37.879397
11
8.870931
21
37.882498
0
LINE
8
Layer 1
10
8.870931
20
37.882498
11
8.861112
21
37.927973
0
LINE
8
Layer 1
10
8.861112
20
37.927973
11
8.861112
21
37.937792
0
LINE
8
Layer 1
10
8.861112
20
37.937792
11
8.861112
21
37.980167
0
LINE
8
Layer 1
10
8.861112
20
37.980167
11
8.864213
21
37.999288
0
LINE
8
Layer 1
10
8.864213
20
37.999288
11
8.870931
21
38.032361
0
LINE
8
Layer 1
10
8.870931
20
38.032361
11
8.881782
21
38.059233
0
LINE
8
Layer 1
10
8.881782
20
38.059233
11
8.891084
21
38.083003
0
LINE
8
Layer 1
10
8.891084
20
38.083003
11
8.921057
21
38.130029
0
LINE
8
Layer 1
10
8.921057
20
38.130029
11
9.661579
21
39.386798
0
LINE
8
Layer 1
10
9.661579
20
39.386798
11
9.759050
21
39.906576
0
LINE
8
Layer 1
10
9.759050
20
39.906576
11
10.067238
21
40.453915
0
LINE
8
Layer 1
10
10.067238
20
40.453915
11
12.400440
21
43.470688
0
LINE
8
Layer 1
10
12.400440
20
43.470688
11
12.605595
21
43.699615
0
LINE
8
Layer 1
10
12.605595
20
43.699615
11
12.915137
21
44.302161
0
LINE
8
Layer 1
10
12.915137
20
44.302161
11
13.189538
21
44.638574
0
LINE
8
Layer 1
10
13.189538
20
44.638574
11
13.536803
21
44.958968
0
LINE
8
Layer 1
10
13.536803
20
44.958968
11
13.581245
21
45.467463
0
LINE
8
Layer 1
10
13.581245
20
45.467463
11
14.078685
21
45.845364
0
LINE
8
Layer 1
10
14.078685
20
45.845364
11
14.809592
21
45.770286
0
LINE
8
Layer 1
10
14.809592
20
45.770286
11
14.842665
21
45.814728
0
LINE
8
Layer 1
10
14.842665
20
45.814728
11
14.838014
21
45.844700
0
LINE
8
Layer 1
10
14.838014
20
45.844700
11
15.081136
21
46.361820
0
LINE
8
Layer 1
10
15.081136
20
46.361820
11
15.646176
21
47.144426
0
LINE
8
Layer 1
10
15.646176
20
47.144426
11
16.583641
21
48.244034
0
LINE
8
Layer 1
10
16.583641
20
48.244034
11
17.284725
21
48.835955
0
LINE
8
Layer 1
10
17.284725
20
48.835955
11
17.747893
21
49.375824
0
LINE
8
Layer 1
10
17.747893
20
49.375824
11
18.052423
21
49.742538
0
LINE
8
Layer 1
10
18.052423
20
49.742538
11
18.277592
21
49.814996
0
LINE
8
Layer 1
10
18.277592
20
49.814996
11
18.263787
21
49.604247
0
LINE
8
Layer 1
10
18.263787
20
49.604247
11
17.964510
21
49.189130
0
LINE
8
Layer 1
10
17.964510
20
49.189130
11
17.567655
21
48.582585
0
LINE
8
Layer 1
10
17.567655
20
48.582585
11
17.261118
21
47.797550
0
LINE
8
Layer 1
10
17.261118
20
47.797550
11
16.470019
21
46.719072
0
LINE
8
Layer 1
10
16.470019
20
46.719072
11
15.455029
21
45.505187
0
LINE
8
Layer 1
10
15.455029
20
45.505187
11
15.316020
21
45.459712
0
LINE
8
Layer 1
10
15.316020
20
45.459712
11
15.293800
21
45.429223
0
LINE
8
Layer 1
10
15.293800
20
45.429223
11
15.558483
21
44.943266
0
LINE
8
Layer 1
10
15.558483
20
44.943266
11
15.511874
21
44.448922
0
LINE
8
Layer 1
10
15.511874
20
44.448922
11
15.243895
21
44.163420
0
LINE
8
Layer 1
10
15.243895
20
44.163420
11
14.844216
21
44.046880
0
LINE
8
Layer 1
10
14.844216
20
44.046880
11
14.563096
21
43.541485
0
LINE
8
Layer 1
10
14.563096
20
43.541485
11
14.288178
21
43.203522
0
LINE
8
Layer 1
10
14.288178
20
43.203522
11
13.738858
21
42.766339
0
LINE
8
Layer 1
10
13.738858
20
42.766339
11
13.554374
21
42.483670
0
LINE
8
Layer 1
10
13.554374
20
42.483670
11
13.483577
21
42.392203
0
LINE
8
Layer 1
10
13.483577
20
42.392203
11
14.433905
21
42.400471
0
LINE
8
Layer 1
10
14.433905
20
42.400471
11
15.060754
21
41.975314
0
LINE
8
Layer 1
10
15.060754
20
41.975314
11
15.473507
21
41.263091
0
LINE
8
Layer 1
10
15.473507
20
41.263091
11
15.944406
21
39.524164
0
LINE
8
Layer 1
10
15.944406
20
39.524164
11
16.160413
21
37.582166
0
LINE
8
Layer 1
10
16.160413
20
37.582166
11
16.102018
21
36.096988
0
LINE
8
Layer 1
10
16.102018
20
36.096988
11
15.335141
21
32.805720
0
LINE
8
Layer 1
10
15.335141
20
32.805720
11
14.845168
21
30.710594
0
LINE
8
Layer 1
10
14.845168
20
30.710594
11
14.767301
21
29.285439
0
LINE
8
Layer 1
10
14.767301
20
29.285439
11
14.955526
21
28.253326
0
LINE
8
Layer 1
10
14.955526
20
28.253326
11
15.263828
21
27.337328
0
LINE
8
Layer 1
10
15.263828
20
27.337328
11
16.217187
21
25.701249
0
LINE
8
Layer 1
10
16.217187
20
25.701249
11
17.417182
21
24.339581
0
LINE
8
Layer 1
10
17.417182
20
24.339581
11
18.640456
21
23.415575
0
LINE
8
Layer 1
10
18.640456
20
23.415575
11
19.987047
21
22.646147
0
LINE
8
Layer 1
10
19.987047
20
22.646147
11
21.251568
21
22.049285
0
LINE
8
Layer 1
10
21.251568
20
22.049285
11
21.689440
21
21.953816
0
LINE
8
Layer 1
10
21.689440
20
21.953816
11
21.971389
21
22.015919
0
LINE
8
Layer 1
10
21.971389
20
22.015919
11
22.051299
21
22.240691
0
LINE
8
Layer 1
10
22.051299
20
22.240691
11
21.883053
21
22.633228
0
LINE
8
Layer 1
10
21.883053
20
22.633228
11
20.305608
21
25.051566
0
LINE
8
Layer 1
10
20.305608
20
25.051566
11
19.651457
21
26.293232
0
LINE
8
Layer 1
10
19.651457
20
26.293232
11
19.132839
21
27.708364
0
LINE
8
Layer 1
10
19.132839
20
27.708364
11
18.733019
21
29.436373
0
LINE
8
Layer 1
10
18.733019
20
29.436373
11
18.506165
21
31.198847
0
LINE
8
Layer 1
10
18.506165
20
31.198847
11
18.460098
21
32.975401
0
LINE
8
Layer 1
10
18.460098
20
32.975401
11
18.602639
21
34.745651
0
LINE
8
Layer 1
10
18.602639
20
34.745651
11
18.926827
21
36.496771
0
LINE
8
Layer 1
10
18.926827
20
36.496771
11
19.413756
21
38.259880
0
LINE
8
Layer 1
10
19.413756
20
38.259880
11
20.749275
21
41.601554
0
LINE
8
Layer 1
10
20.749275
20
41.601554
11
22.040728
21
43.759365
0
LINE
8
Layer 1
10
22.040728
20
43.759365
11
23.679631
21
45.678561
0
LINE
8
Layer 1
10
23.679631
20
45.678561
11
25.606476
21
47.314958
0
LINE
8
Layer 1
10
25.606476
20
47.314958
11
27.761758
21
48.624372
0
LINE
8
Layer 1
10
27.761758
20
48.624372
11
29.124950
21
49.192856
0
LINE
8
Layer 1
10
29.124950
20
49.192856
11
30.562079
21
49.574904
0
LINE
8
Layer 1
10
30.562079
20
49.574904
11
32.051283
21
49.782830
0
LINE
8
Layer 1
10
32.051283
20
49.782830
11
33.570698
21
49.828948
0
LINE
8
Layer 1
10
33.570698
20
49.828948
11
33.570698
21
49.828948
0
LINE
8
Layer 1
10
55.856646
20
48.591299
11
55.087220
21
48.275994
0
LINE
8
Layer 1
10
55.087220
20
48.275994
11
54.822333
21
47.953105
0
LINE
8
Layer 1
10
54.822333
20
47.953105
11
54.691862
21
47.552088
0
LINE
8
Layer 1
10
54.691862
20
47.552088
11
54.800960
21
46.736915
0
LINE
8
Layer 1
10
54.800960
20
46.736915
11
55.039398
21
46.400287
0
LINE
8
Layer 1
10
55.039398
20
46.400287
11
55.386392
21
46.169745
0
LINE
8
Layer 1
10
55.386392
20
46.169745
11
56.086769
21
46.033544
0
LINE
8
Layer 1
10
56.086769
20
46.033544
11
56.804391
21
45.974408
0
LINE
8
Layer 1
10
56.804391
20
45.974408
11
58.107661
21
45.596357
0
LINE
8
Layer 1
10
58.107661
20
45.596357
11
59.273832
21
44.904390
0
LINE
8
Layer 1
10
59.273832
20
44.904390
11
60.237389
21
43.950066
0
LINE
8
Layer 1
10
60.237389
20
43.950066
11
60.932817
21
42.784943
0
LINE
8
Layer 1
10
60.932817
20
42.784943
11
61.285216
21
41.665713
0
LINE
8
Layer 1
10
61.285216
20
41.665713
11
61.398419
21
40.496714
0
LINE
8
Layer 1
10
61.398419
20
40.496714
11
61.717508
21
39.724765
0
LINE
8
Layer 1
10
61.717508
20
39.724765
11
62.043489
21
39.460425
0
LINE
8
Layer 1
10
62.043489
20
39.460425
11
62.447449
21
39.331411
0
LINE
8
Layer 1
10
62.447449
20
39.331411
11
63.255450
21
39.446081
0
LINE
8
Layer 1
10
63.255450
20
39.446081
11
63.588570
21
39.683778
0
LINE
8
Layer 1
10
63.588570
20
39.683778
11
63.817390
21
40.028009
0
LINE
8
Layer 1
10
63.817390
20
40.028009
11
63.948204
21
40.778677
0
LINE
8
Layer 1
10
63.948204
20
40.778677
11
63.889738
21
41.548328
0
LINE
8
Layer 1
10
63.889738
20
41.548328
11
63.495341
21
43.250490
0
LINE
8
Layer 1
10
63.495341
20
43.250490
11
62.736408
21
44.823294
0
LINE
8
Layer 1
10
62.736408
20
44.823294
11
61.658200
21
46.197543
0
LINE
8
Layer 1
10
61.658200
20
46.197543
11
60.305983
21
47.304041
0
LINE
8
Layer 1
10
60.305983
20
47.304041
11
59.277795
21
47.870668
0
LINE
8
Layer 1
10
59.277795
20
47.870668
11
58.177062
21
48.279669
0
LINE
8
Layer 1
10
58.177062
20
48.279669
11
57.028456
21
48.522671
0
LINE
8
Layer 1
10
57.028456
20
48.522671
11
55.856646
21
48.591299
0
LINE
8
Layer 1
10
55.856646
20
48.591299
11
55.856646
21
48.591299
0
LINE
8
Layer 1
10
55.917109
20
48.065751
11
55.948631
21
48.065751
0
LINE
8
Layer 1
10
55.948631
20
48.065751
11
57.453853
21
47.913918
0
LINE
8
Layer 1
10
57.453853
20
47.913918
11
58.855773
21
47.478459
0
LINE
8
Layer 1
10
58.855773
20
47.478459
11
60.124373
21
46.789432
0
LINE
8
Layer 1
10
60.124373
20
46.789432
11
61.229632
21
45.876896
0
LINE
8
Layer 1
10
61.229632
20
45.876896
11
62.141533
21
44.770909
0
LINE
8
Layer 1
10
62.141533
20
44.770909
11
62.830057
21
43.501530
0
LINE
8
Layer 1
10
62.830057
20
43.501530
11
63.265186
21
42.098818
0
LINE
8
Layer 1
10
63.265186
20
42.098818
11
63.416899
21
40.592832
0
LINE
8
Layer 1
10
63.416899
20
40.592832
11
63.322968
21
40.218695
0
LINE
8
Layer 1
10
63.322968
20
40.218695
11
63.100774
21
39.961476
0
LINE
8
Layer 1
10
63.100774
20
39.961476
11
62.668624
21
39.844558
0
LINE
8
Layer 1
10
62.668624
20
39.844558
11
62.236837
21
39.961476
0
LINE
8
Layer 1
10
62.236837
20
39.961476
11
62.015164
21
40.218695
0
LINE
8
Layer 1
10
62.015164
20
40.218695
11
61.921902
21
40.592832
0
LINE
8
Layer 1
10
61.921902
20
40.592832
11
61.800576
21
41.797420
0
LINE
8
Layer 1
10
61.800576
20
41.797420
11
61.452594
21
42.919456
0
LINE
8
Layer 1
10
61.452594
20
42.919456
11
60.901951
21
43.934882
0
LINE
8
Layer 1
10
60.901951
20
43.934882
11
60.172641
21
44.819636
0
LINE
8
Layer 1
10
60.172641
20
44.819636
11
59.288659
21
45.549661
0
LINE
8
Layer 1
10
59.288659
20
45.549661
11
58.274001
21
46.100895
0
LINE
8
Layer 1
10
58.274001
20
46.100895
11
57.152660
21
46.449279
0
LINE
8
Layer 1
10
57.152660
20
46.449279
11
55.948631
21
46.570753
0
LINE
8
Layer 1
10
55.948631
20
46.570753
11
55.575269
21
46.664486
0
LINE
8
Layer 1
10
55.575269
20
46.664486
11
55.318582
21
46.886655
0
LINE
8
Layer 1
10
55.318582
20
46.886655
11
55.201907
21
47.319027
0
LINE
8
Layer 1
10
55.201907
20
47.319027
11
55.293548
21
47.710286
0
LINE
8
Layer 1
10
55.293548
20
47.710286
11
55.505883
21
47.933907
0
LINE
8
Layer 1
10
55.505883
20
47.933907
11
55.917109
21
48.065751
0
LINE
8
Layer 1
10
55.917109
20
48.065751
11
55.917109
21
48.065751
0
LINE
8
Layer 1
10
55.906261
20
45.603372
11
55.118295
21
45.300464
0
LINE
8
Layer 1
10
55.118295
20
45.300464
11
54.839413
21
44.982522
0
LINE
8
Layer 1
10
54.839413
20
44.982522
11
54.694968
21
44.580180
0
LINE
8
Layer 1
10
54.694968
20
44.580180
11
54.796265
21
43.764403
0
LINE
8
Layer 1
10
54.796265
20
43.764403
11
55.032846
21
43.425905
0
LINE
8
Layer 1
10
55.032846
20
43.425905
11
55.377611
21
43.191636
0
LINE
8
Layer 1
10
55.377611
20
43.191636
11
56.036345
21
43.045940
0
LINE
8
Layer 1
10
56.036345
20
43.045940
11
56.705177
21
42.932737
0
LINE
8
Layer 1
10
56.705177
20
42.932737
11
57.397565
21
42.580405
0
LINE
8
Layer 1
10
57.397565
20
42.580405
11
57.941260
21
42.027620
0
LINE
8
Layer 1
10
57.941260
20
42.027620
11
58.292210
21
41.336087
0
LINE
8
Layer 1
10
58.292210
20
41.336087
11
58.406364
21
40.567510
0
LINE
8
Layer 1
10
58.406364
20
40.567510
11
58.688788
21
39.775149
0
LINE
8
Layer 1
10
58.688788
20
39.775149
11
59.001395
21
39.491778
0
LINE
8
Layer 1
10
59.001395
20
39.491778
11
59.400617
21
39.341747
0
LINE
8
Layer 1
10
59.400617
20
39.341747
11
60.229129
21
39.427780
0
LINE
8
Layer 1
10
60.229129
20
39.427780
11
60.576881
21
39.658721
0
LINE
8
Layer 1
10
60.576881
20
39.658721
11
60.819649
21
40.003721
0
LINE
8
Layer 1
10
60.819649
20
40.003721
11
60.958618
21
40.800913
0
LINE
8
Layer 1
10
60.958618
20
40.800913
11
60.854788
21
41.614990
0
LINE
8
Layer 1
10
60.854788
20
41.614990
11
60.428279
21
42.840268
0
LINE
8
Layer 1
10
60.428279
20
42.840268
11
59.698984
21
43.912321
0
LINE
8
Layer 1
10
59.698984
20
43.912321
11
58.723741
21
44.766659
0
LINE
8
Layer 1
10
58.723741
20
44.766659
11
57.559389
21
45.338789
0
LINE
8
Layer 1
10
57.559389
20
45.338789
11
55.906261
21
45.603372
0
LINE
8
Layer 1
10
55.906261
20
45.603372
11
55.906261
21
45.603372
0
LINE
8
Layer 1
10
55.948637
20
45.075756
11
56.851604
21
44.984640
0
LINE
8
Layer 1
10
56.851604
20
44.984640
11
57.692717
21
44.723330
0
LINE
8
Layer 1
10
57.692717
20
44.723330
11
58.453932
21
44.309889
0
LINE
8
Layer 1
10
58.453932
20
44.309889
11
59.117204
21
43.762377
0
LINE
8
Layer 1
10
59.117204
20
43.762377
11
59.664492
21
43.098854
0
LINE
8
Layer 1
10
59.664492
20
43.098854
11
60.077752
21
42.337382
0
LINE
8
Layer 1
10
60.077752
20
42.337382
11
60.338939
21
41.496021
0
LINE
8
Layer 1
10
60.338939
20
41.496021
11
60.430011
21
40.592832
0
LINE
8
Layer 1
10
60.430011
20
40.592832
11
60.336080
21
40.218695
0
LINE
8
Layer 1
10
60.336080
20
40.218695
11
60.113886
21
39.961476
0
LINE
8
Layer 1
10
60.113886
20
39.961476
11
59.681736
21
39.844558
0
LINE
8
Layer 1
10
59.681736
20
39.844558
11
59.249951
21
39.961476
0
LINE
8
Layer 1
10
59.249951
20
39.961476
11
59.028276
21
40.218695
0
LINE
8
Layer 1
10
59.028276
20
40.218695
11
58.935011
21
40.592832
0
LINE
8
Layer 1
10
58.935011
20
40.592832
11
58.700286
21
41.755982
0
LINE
8
Layer 1
10
58.700286
20
41.755982
11
58.060212
21
42.705717
0
LINE
8
Layer 1
10
58.060212
20
42.705717
11
57.110944
21
43.345991
0
LINE
8
Layer 1
10
57.110944
20
43.345991
11
55.948637
21
43.580759
0
LINE
8
Layer 1
10
55.948637
20
43.580759
11
55.575274
21
43.682706
0
LINE
8
Layer 1
10
55.575274
20
43.682706
11
55.318588
21
43.905465
0
LINE
8
Layer 1
10
55.318588
20
43.905465
11
55.201912
21
44.327482
0
LINE
8
Layer 1
10
55.201912
20
44.327482
11
55.318588
21
44.749744
0
LINE
8
Layer 1
10
55.318588
20
44.749744
11
55.575274
21
44.973036
0
LINE
8
Layer 1
10
55.575274
20
44.973036
11
55.948637
21
45.075756
0
LINE
8
Layer 1
10
55.948637
20
45.075756
11
55.948637
21
45.075756
0
LINE
8
Layer 1
10
3.016531
20
25.592733
11
3.048054
21
25.589632
0
LINE
8
Layer 1
10
3.048054
20
25.589632
11
3.049615
21
25.589632
0
LINE
8
Layer 1
10
3.049615
20
25.589632
11
3.074935
21
25.586532
0
LINE
8
Layer 1
10
3.074935
20
25.586532
11
3.076497
21
25.586532
0
LINE
8
Layer 1
10
3.076497
20
25.586532
11
3.151944
21
25.562761
0
LINE
8
Layer 1
10
3.151944
20
25.562761
11
3.153505
21
25.562761
0
LINE
8
Layer 1
10
3.153505
20
25.562761
11
3.205698
21
25.537441
0
LINE
8
Layer 1
10
3.205698
20
25.537441
11
3.207260
21
25.537441
0
LINE
8
Layer 1
10
3.207260
20
25.537441
11
3.254802
21
25.504368
0
LINE
8
Layer 1
10
3.254802
20
25.504368
11
3.256363
21
25.504368
0
LINE
8
Layer 1
10
3.256363
20
25.504368
11
3.316307
21
25.456826
0
LINE
8
Layer 1
10
3.316307
20
25.456826
11
3.317868
21
25.456826
0
LINE
8
Layer 1
10
3.317868
20
25.456826
11
3.248105
21
24.863581
0
LINE
8
Layer 1
10
3.248105
20
24.863581
11
3.324069
21
24.772114
0
LINE
8
Layer 1
10
3.324069
20
24.772114
11
3.373162
21
24.723021
0
LINE
8
Layer 1
10
3.373162
20
24.723021
11
3.374723
21
24.723021
0
LINE
8
Layer 1
10
3.374723
20
24.723021
11
3.428467
21
24.677029
0
LINE
8
Layer 1
10
3.428467
20
24.677029
11
3.430028
21
24.677029
0
LINE
8
Layer 1
10
3.430028
20
24.677029
11
3.483771
21
24.636205
0
LINE
8
Layer 1
10
3.483771
20
24.636205
11
3.484803
21
24.636205
0
LINE
8
Layer 1
10
3.484803
20
24.636205
11
3.540097
21
24.601582
0
LINE
8
Layer 1
10
3.540097
20
24.601582
11
3.542160
21
24.601582
0
LINE
8
Layer 1
10
3.542160
20
24.601582
11
3.595387
21
24.576261
0
LINE
8
Layer 1
10
3.595387
20
24.576261
11
3.644480
21
24.561791
0
LINE
8
Layer 1
10
3.644480
20
24.561791
11
3.646041
21
24.561791
0
LINE
8
Layer 1
10
3.646041
20
24.561791
11
3.679114
21
24.574711
0
LINE
8
Layer 1
10
3.679114
20
24.574711
11
3.715804
21
24.590213
0
LINE
8
Layer 1
10
3.715804
20
24.590213
11
3.795902
21
24.633104
0
LINE
8
Layer 1
10
3.795902
20
24.633104
11
3.964884
21
24.733873
0
LINE
8
Layer 1
10
3.964884
20
24.733873
11
4.043949
21
24.782966
0
LINE
8
Layer 1
10
4.043949
20
24.782966
11
4.113195
21
24.820689
0
LINE
8
Layer 1
10
4.113195
20
24.820689
11
4.141617
21
24.833609
0
LINE
8
Layer 1
10
4.141617
20
24.833609
11
4.168489
21
24.842912
0
LINE
8
Layer 1
10
4.168489
20
24.842912
11
4.189161
21
24.846013
0
LINE
8
Layer 1
10
4.189161
20
24.846013
11
4.205181
21
24.842912
0
LINE
8
Layer 1
10
4.205181
20
24.842912
11
4.206742
21
24.842912
0
LINE
8
Layer 1
10
4.206742
20
24.842912
11
4.253768
21
24.812940
0
LINE
8
Layer 1
10
4.253768
20
24.812940
11
4.255329
21
24.812940
0
LINE
8
Layer 1
10
4.255329
20
24.812940
11
4.301321
21
24.773665
0
LINE
8
Layer 1
10
4.301321
20
24.773665
11
4.405707
21
24.643958
0
LINE
8
Layer 1
10
4.405707
20
24.643958
11
4.481154
21
24.388160
0
LINE
8
Layer 1
10
4.481154
20
24.388160
11
4.462552
21
24.366456
0
LINE
8
Layer 1
10
4.462552
20
24.366456
11
4.460991
21
24.366456
0
LINE
8
Layer 1
10
4.460991
20
24.366456
11
4.413448
21
24.325115
0
LINE
8
Layer 1
10
4.413448
20
24.325115
11
4.271338
21
24.205226
0
LINE
8
Layer 1
10
4.271338
20
24.205226
11
4.126128
21
24.085337
0
LINE
8
Layer 1
10
4.126128
20
24.085337
11
4.077035
21
24.040895
0
LINE
8
Layer 1
10
4.077035
20
24.040895
11
4.054815
21
24.017125
0
LINE
8
Layer 1
10
4.054815
20
24.017125
11
4.107009
21
23.553071
0
LINE
8
Layer 1
10
4.107009
20
23.553071
11
4.141632
21
23.532910
0
LINE
8
Layer 1
10
4.141632
20
23.532910
11
4.143193
21
23.532910
0
LINE
8
Layer 1
10
4.143193
20
23.532910
11
4.182984
21
23.513781
0
LINE
8
Layer 1
10
4.182984
20
23.513781
11
4.184545
21
23.513781
0
LINE
8
Layer 1
10
4.184545
20
23.513781
11
4.272911
21
23.477607
0
LINE
8
Layer 1
10
4.272911
20
23.477607
11
4.274975
21
23.477607
0
LINE
8
Layer 1
10
4.274975
20
23.477607
11
4.369543
21
23.446085
0
LINE
8
Layer 1
10
4.369543
20
23.446085
11
4.371104
21
23.446085
0
LINE
8
Layer 1
10
4.371104
20
23.446085
11
4.464122
21
23.417663
0
LINE
8
Layer 1
10
4.464122
20
23.417663
11
4.466185
21
23.417663
0
LINE
8
Layer 1
10
4.466185
20
23.417663
11
4.623798
21
23.370120
0
LINE
8
Layer 1
10
4.623798
20
23.370120
11
4.625359
21
23.370120
0
LINE
8
Layer 1
10
4.625359
20
23.370120
11
4.672901
21
23.350991
0
LINE
8
Layer 1
10
4.672901
20
23.350991
11
4.674965
21
23.350991
0
LINE
8
Layer 1
10
4.674965
20
23.350991
11
4.687885
21
23.343239
0
LINE
8
Layer 1
10
4.687885
20
23.343239
11
4.695637
21
23.333925
0
LINE
8
Layer 1
10
4.695637
20
23.333925
11
4.701839
21
23.088980
0
LINE
8
Layer 1
10
4.701839
20
23.088980
11
4.605721
21
22.863153
0
LINE
8
Layer 1
10
4.605721
20
22.863153
11
4.604160
21
22.863153
0
LINE
8
Layer 1
10
4.604160
20
22.863153
11
4.586589
21
22.849209
0
LINE
8
Layer 1
10
4.586589
20
22.849209
11
4.567470
21
22.839896
0
LINE
8
Layer 1
10
4.567470
20
22.839896
11
4.548867
21
22.836800
0
LINE
8
Layer 1
10
4.548867
20
22.836800
11
4.546804
21
22.836800
0
LINE
8
Layer 1
10
4.546804
20
22.836800
11
4.472390
21
22.836800
0
LINE
8
Layer 1
10
4.472390
20
22.836800
11
4.470326
21
22.836800
0
LINE
8
Layer 1
10
4.470326
20
22.836800
11
4.405731
21
22.840425
0
LINE
8
Layer 1
10
4.405731
20
22.840425
11
4.404170
21
22.840425
0
LINE
8
Layer 1
10
4.404170
20
22.840425
11
4.285831
21
22.854369
0
LINE
8
Layer 1
10
4.285831
20
22.854369
11
4.283767
21
22.854369
0
LINE
8
Layer 1
10
4.283767
20
22.854369
11
4.222272
21
22.862121
0
LINE
8
Layer 1
10
4.222272
20
22.862121
11
4.220711
21
22.862121
0
LINE
8
Layer 1
10
4.220711
20
22.862121
11
4.147847
21
22.867280
0
LINE
8
Layer 1
10
4.147847
20
22.867280
11
4.146286
21
22.867280
0
LINE
8
Layer 1
10
4.146286
20
22.867280
11
4.061020
21
22.869926
0
LINE
8
Layer 1
10
4.061020
20
22.869926
11
3.955601
21
22.864767
0
LINE
8
Layer 1
10
3.955601
20
22.864767
11
3.954039
21
22.864767
0
LINE
8
Layer 1
10
3.954039
20
22.864767
11
3.915799
21
22.828596
0
LINE
8
Layer 1
10
3.915799
20
22.828596
11
3.696691
21
22.454457
0
LINE
8
Layer 1
10
3.696691
20
22.454457
11
3.933369
21
21.932008
0
LINE
8
Layer 1
10
3.933369
20
21.932008
11
3.797460
21
21.749076
0
LINE
8
Layer 1
10
3.797460
20
21.749076
11
3.795899
21
21.746430
0
LINE
8
Layer 1
10
3.795899
20
21.746430
11
3.773679
21
21.728862
0
LINE
8
Layer 1
10
3.773679
20
21.728862
11
3.451736
21
21.640494
0
LINE
8
Layer 1
10
3.451736
20
21.640494
11
3.076048
21
22.080776
0
LINE
8
Layer 1
10
3.076048
20
22.080776
11
2.601142
21
22.001713
0
LINE
8
Layer 1
10
2.601142
20
22.001713
11
2.504508
21
21.761935
0
LINE
8
Layer 1
10
2.504508
20
21.761935
11
2.455932
21
21.616723
0
LINE
8
Layer 1
10
2.455932
20
21.616723
11
2.403739
21
21.469962
0
LINE
8
Layer 1
10
2.403739
20
21.469962
11
2.143290
21
21.452394
0
LINE
8
Layer 1
10
2.143290
20
21.452394
11
2.141739
21
21.452394
0
LINE
8
Layer 1
10
2.141739
20
21.452394
11
2.097298
21
21.468401
0
LINE
8
Layer 1
10
2.097298
20
21.468401
11
2.095747
21
21.468401
0
LINE
8
Layer 1
10
2.095747
20
21.468401
11
2.054923
21
21.485969
0
LINE
8
Layer 1
10
2.054923
20
21.485969
11
2.053373
21
21.485969
0
LINE
8
Layer 1
10
2.053373
20
21.485969
11
2.015649
21
21.504569
0
LINE
8
Layer 1
10
2.015649
20
21.504569
11
2.014098
21
21.504569
0
LINE
8
Layer 1
10
2.014098
20
21.504569
11
1.978958
21
21.526794
0
LINE
8
Layer 1
10
1.978958
20
21.526794
11
1.977408
21
21.526794
0
LINE
8
Layer 1
10
1.977408
20
21.526794
11
1.947436
21
21.550554
0
LINE
8
Layer 1
10
1.947436
20
21.550554
11
1.945885
21
21.550554
0
LINE
8
Layer 1
10
1.945885
20
21.550554
11
1.919013
21
21.575874
0
LINE
8
Layer 1
10
1.919013
20
21.575874
11
1.875089
21
21.627550
0
LINE
8
Layer 1
10
1.875089
20
21.627550
11
1.928832
21
22.194440
0
LINE
8
Layer 1
10
1.928832
20
22.194440
11
1.862169
21
22.265753
0
LINE
8
Layer 1
10
1.862169
20
22.265753
11
1.860619
21
22.265753
0
LINE
8
Layer 1
10
1.860619
20
22.265753
11
1.808426
21
22.308129
0
LINE
8
Layer 1
10
1.808426
20
22.308129
11
1.806875
21
22.308129
0
LINE
8
Layer 1
10
1.806875
20
22.308129
11
1.750031
21
22.352571
0
LINE
8
Layer 1
10
1.750031
20
22.352571
11
1.748481
21
22.352571
0
LINE
8
Layer 1
10
1.748481
20
22.352571
11
1.688536
21
22.393394
0
LINE
8
Layer 1
10
1.688536
20
22.393394
11
1.686986
21
22.393394
0
LINE
8
Layer 1
10
1.686986
20
22.393394
11
1.630142
21
22.429567
0
LINE
8
Layer 1
10
1.630142
20
22.429567
11
1.628591
21
22.429567
0
LINE
8
Layer 1
10
1.628591
20
22.429567
11
1.579499
21
22.454888
0
LINE
8
Layer 1
10
1.579499
20
22.454888
11
1.577948
21
22.454888
0
LINE
8
Layer 1
10
1.577948
20
22.454888
11
1.540225
21
22.469361
0
LINE
8
Layer 1
10
1.540225
20
22.469361
11
1.538674
21
22.469361
0
LINE
8
Layer 1
10
1.538674
20
22.469361
11
1.388296
21
22.387197
0
LINE
8
Layer 1
10
1.388296
20
22.387197
11
1.239985
21
22.311233
0
LINE
8
Layer 1
10
1.239985
20
22.311233
11
1.170739
21
22.278160
0
LINE
8
Layer 1
10
1.170739
20
22.278160
11
1.106143
21
22.249738
0
LINE
8
Layer 1
10
1.106143
20
22.249738
11
1.047749
21
22.230609
0
LINE
8
Layer 1
10
1.047749
20
22.230609
11
0.997106
21
22.218200
0
LINE
8
Layer 1
10
0.997106
20
22.218200
11
0.965583
21
22.233705
0
LINE
8
Layer 1
10
0.965583
20
22.233705
11
0.964033
21
22.233705
0
LINE
8
Layer 1
10
0.964033
20
22.233705
11
0.889619
21
22.290548
0
LINE
8
Layer 1
10
0.889619
20
22.290548
11
0.813655
21
22.387184
0
LINE
8
Layer 1
10
0.813655
20
22.387184
11
0.732006
21
22.613008
0
LINE
8
Layer 1
10
0.732006
20
22.613008
11
0.769730
21
22.663136
0
LINE
8
Layer 1
10
0.769730
20
22.663136
11
0.826574
21
22.718429
0
LINE
8
Layer 1
10
0.826574
20
22.718429
11
0.894270
21
22.775272
0
LINE
8
Layer 1
10
0.894270
20
22.775272
11
0.968684
21
22.833668
0
LINE
8
Layer 1
10
0.968684
20
22.833668
11
1.112344
21
22.945803
0
LINE
8
Layer 1
10
1.112344
20
22.945803
11
1.167638
21
22.996447
0
LINE
8
Layer 1
10
1.167638
20
22.996447
11
1.205362
21
23.038823
0
LINE
8
Layer 1
10
1.205362
20
23.038823
11
1.129397
21
23.452750
0
LINE
8
Layer 1
10
1.129397
20
23.452750
11
1.100975
21
23.479621
0
LINE
8
Layer 1
10
1.100975
20
23.479621
11
1.099425
21
23.479621
0
LINE
8
Layer 1
10
1.099425
20
23.479621
11
1.053950
21
23.504412
0
LINE
8
Layer 1
10
1.053950
20
23.504412
11
1.052399
21
23.504412
0
LINE
8
Layer 1
10
1.052399
20
23.504412
11
0.994005
21
23.526637
0
LINE
8
Layer 1
10
0.994005
20
23.526637
11
0.991938
21
23.526637
0
LINE
8
Layer 1
10
0.991938
20
23.526637
11
0.924242
21
23.550397
0
LINE
8
Layer 1
10
0.924242
20
23.550397
11
0.922626
21
23.550397
0
LINE
8
Layer 1
10
0.922626
20
23.550397
11
0.768093
21
23.599577
0
LINE
8
Layer 1
10
0.768093
20
23.599577
11
0.766026
21
23.599577
0
LINE
8
Layer 1
10
0.766026
20
23.599577
11
0.687478
21
23.627999
0
LINE
8
Layer 1
10
0.687478
20
23.627999
11
0.685927
21
23.627999
0
LINE
8
Layer 1
10
0.685927
20
23.627999
11
0.609963
21
23.657971
0
LINE
8
Layer 1
10
0.609963
20
23.657971
11
0.608412
21
23.657971
0
LINE
8
Layer 1
10
0.608412
20
23.657971
11
0.595493
21
23.668819
0
LINE
8
Layer 1
10
0.595493
20
23.668819
11
0.540200
21
23.953038
0
LINE
8
Layer 1
10
0.540200
20
23.953038
11
0.616164
21
24.139073
0
LINE
8
Layer 1
10
0.616164
20
24.139073
11
0.638385
21
24.156644
0
LINE
8
Layer 1
10
0.638385
20
24.156644
11
0.663706
21
24.169045
0
LINE
8
Layer 1
10
0.663706
20
24.169045
11
0.722100
21
24.189717
0
LINE
8
Layer 1
10
0.722100
20
24.189717
11
0.807366
21
24.192818
0
LINE
8
Layer 1
10
0.807366
20
24.192818
11
0.891082
21
24.191257
0
LINE
8
Layer 1
10
0.891082
20
24.191257
11
0.892632
21
24.191257
0
LINE
8
Layer 1
10
0.892632
20
24.191257
11
1.047145
21
24.186606
0
LINE
8
Layer 1
10
1.047145
20
24.186606
11
1.048695
21
24.186606
0
LINE
8
Layer 1
10
1.048695
20
24.186606
11
1.116908
21
24.186606
0
LINE
8
Layer 1
10
1.116908
20
24.186606
11
1.176853
21
24.188167
0
LINE
8
Layer 1
10
1.176853
20
24.188167
11
1.228529
21
24.195919
0
LINE
8
Layer 1
10
1.228529
20
24.195919
11
1.269870
21
24.208839
0
LINE
8
Layer 1
10
1.269870
20
24.208839
11
1.519467
21
24.565405
0
LINE
8
Layer 1
10
1.519467
20
24.565405
11
1.263669
21
25.105423
0
LINE
8
Layer 1
10
1.263669
20
25.105423
11
1.365988
21
25.298176
0
LINE
8
Layer 1
10
1.365988
20
25.298176
11
1.418181
21
25.346752
0
LINE
8
Layer 1
10
1.418181
20
25.346752
11
1.441952
21
25.361222
0
LINE
8
Layer 1
10
1.441952
20
25.361222
11
1.473475
21
25.378275
0
LINE
8
Layer 1
10
1.473475
20
25.378275
11
1.511199
21
25.394295
0
LINE
8
Layer 1
10
1.511199
20
25.394295
11
1.552540
21
25.406696
0
LINE
8
Layer 1
10
1.552540
20
25.406696
11
1.594914
21
25.418065
0
LINE
8
Layer 1
10
1.594914
20
25.418065
11
1.634705
21
25.422717
0
LINE
8
Layer 1
10
1.634705
20
25.422717
11
1.669328
21
25.422717
0
LINE
8
Layer 1
10
1.669328
20
25.422717
11
1.670879
21
25.422717
0
LINE
8
Layer 1
10
1.670879
20
25.422717
11
1.694650
21
25.414964
0
LINE
8
Layer 1
10
1.694650
20
25.414964
11
1.696200
21
25.414964
0
LINE
8
Layer 1
10
1.696200
20
25.414964
11
1.719455
21
25.398944
0
LINE
8
Layer 1
10
1.719455
20
25.398944
11
1.796969
21
25.328147
0
LINE
8
Layer 1
10
1.796969
20
25.328147
11
2.008326
21
25.080101
0
LINE
8
Layer 1
10
2.008326
20
25.080101
11
2.063619
21
25.026357
0
LINE
8
Layer 1
10
2.063619
20
25.026357
11
2.065686
21
25.026357
0
LINE
8
Layer 1
10
2.065686
20
25.026357
11
2.094108
21
25.002587
0
LINE
8
Layer 1
10
2.094108
20
25.002587
11
2.095658
21
25.002587
0
LINE
8
Layer 1
10
2.095658
20
25.002587
11
2.124080
21
24.982434
0
LINE
8
Layer 1
10
2.124080
20
24.982434
11
2.125631
21
24.982434
0
LINE
8
Layer 1
10
2.125631
20
24.982434
11
2.136483
21
24.977266
0
LINE
8
Layer 1
10
2.136483
20
24.977266
11
2.138033
21
24.977266
0
LINE
8
Layer 1
10
2.138033
20
24.977266
11
2.154053
21
24.975705
0
LINE
8
Layer 1
10
2.154053
20
24.975705
11
2.155604
21
24.975705
0
LINE
8
Layer 1
10
2.155604
20
24.975705
11
2.204696
21
24.975705
0
LINE
8
Layer 1
10
2.204696
20
24.975705
11
2.267741
21
24.980357
0
LINE
8
Layer 1
10
2.267741
20
24.980357
11
2.338538
21
24.991726
0
LINE
8
Layer 1
10
2.338538
20
24.991726
11
2.474447
21
25.018598
0
LINE
8
Layer 1
10
2.474447
20
25.018598
11
2.528190
21
25.032549
0
LINE
8
Layer 1
10
2.528190
20
25.032549
11
2.562813
21
25.045469
0
LINE
8
Layer 1
10
2.562813
20
25.045469
11
2.791739
21
25.566366
0
LINE
8
Layer 1
10
2.791739
20
25.566366
11
2.802593
21
25.575669
0
LINE
8
Layer 1
10
2.802593
20
25.575669
11
2.944703
21
25.590139
0
LINE
8
Layer 1
10
2.944703
20
25.590139
11
3.016016
21
25.591700
0
LINE
8
Layer 1
10
3.016016
20
25.591700
11
3.016519
21
25.592229
0
LINE
8
Layer 1
10
3.016519
20
25.592229
11
3.016531
21
25.592733
0
LINE
8
Layer 1
10
41.817211
20
10.321334
11
42.196542
21
10.068611
0
LINE
8
Layer 1
10
42.196542
20
10.068611
11
42.453864
21
9.667113
0
LINE
8
Layer 1
10
42.453864
20
9.667113
11
43.270883
21
8.673325
0
LINE
8
Layer 1
10
43.270883
20
8.673325
11
44.257886
21
7.841903
0
LINE
8
Layer 1
10
44.257886
20
7.841903
11
45.596236
21
7.184593
0
LINE
8
Layer 1
10
45.596236
20
7.184593
11
47.015854
21
6.717425
0
LINE
8
Layer 1
10
47.015854
20
6.717425
11
48.458856
21
6.372582
0
LINE
8
Layer 1
10
48.458856
20
6.372582
11
49.929368
21
6.184642
0
LINE
8
Layer 1
10
49.929368
20
6.184642
11
47.879882
21
5.253434
0
LINE
8
Layer 1
10
47.879882
20
5.253434
11
48.102092
21
4.777495
0
LINE
8
Layer 1
10
48.102092
20
4.777495
11
45.950804
21
4.833306
0
LINE
8
Layer 1
10
45.950804
20
4.833306
11
45.197879
21
5.034793
0
LINE
8
Layer 1
10
45.197879
20
5.034793
11
44.500406
21
5.378198
0
LINE
8
Layer 1
10
44.500406
20
5.378198
11
43.349932
21
6.418735
0
LINE
8
Layer 1
10
43.349932
20
6.418735
11
42.495298
21
7.791867
0
LINE
8
Layer 1
10
42.495298
20
7.791867
11
41.850284
21
9.277988
0
LINE
8
Layer 1
10
41.850284
20
9.277988
11
41.754973
21
9.803556
0
LINE
8
Layer 1
10
41.754973
20
9.803556
11
41.817211
21
10.321334
0
LINE
8
Layer 1
10
41.817211
20
10.321334
11
41.817211
21
10.321334
0
LINE
8
Layer 1
10
56.210113
20
4.014752
11
56.371342
21
3.687124
0
LINE
8
Layer 1
10
56.371342
20
3.687124
11
56.439038
21
3.540879
0
LINE
8
Layer 1
10
56.439038
20
3.540879
11
56.426069
21
3.355332
0
LINE
8
Layer 1
10
56.426069
20
3.355332
11
56.332586
21
3.533126
0
LINE
8
Layer 1
10
56.332586
20
3.533126
11
56.112961
21
4.004415
0
LINE
8
Layer 1
10
56.112961
20
4.004415
11
56.210113
21
4.014760
0
LINE
8
Layer 1
10
56.210113
20
4.014760
11
56.210113
21
4.014752
0
LINE
8
Layer 1
10
-1.775939
20
45.112042
11
-1.706957
21
45.126557
0
LINE
8
Layer 1
10
-1.706957
20
45.126557
11
-1.775939
21
45.112042
 0 
ENDSEC
 0 
EOF