999
"DXF R12 Output" (www.mydxf.blogspot.com)
 0 
SECTION
 2 
HEADER
 9 
$ACADVER
 1 
AC1009
 9 
$EXTMIN
 10 
 0 
 20 
 0 
 9 
$EXTMAX
 10 
 8.5 
 20 
 11 
 0 
ENDSEC
 0 
SECTION
 2 
ENTITIES
0
LINE
8
Ebene 1
10
18.597380
20
52.563530
11
15.399826
21
50.786950
0
LINE
8
Ebene 1
10
15.399826
20
50.786950
11
12.415790
21
48.577066
0
LINE
8
Ebene 1
10
12.415790
20
48.577066
11
9.674965
21
45.995379
0
LINE
8
Ebene 1
10
9.674965
20
45.995379
11
7.207045
21
43.103389
0
LINE
8
Ebene 1
10
7.207045
20
43.103389
11
5.041722
21
39.962597
0
LINE
8
Ebene 1
10
5.041722
20
39.962597
11
3.208688
21
36.634505
0
LINE
8
Ebene 1
10
3.208688
20
36.634505
11
1.737636
21
33.180612
0
LINE
8
Ebene 1
10
1.737636
20
33.180612
11
0.658260
21
29.662420
0
LINE
8
Ebene 1
10
0.658260
20
29.662420
11
0.269907
21
27.478447
0
LINE
8
Ebene 1
10
0.269907
20
27.478447
11
0.154276
21
25.247977
0
LINE
8
Ebene 1
10
0.154276
20
25.247977
11
0.286970
21
22.994494
0
LINE
8
Ebene 1
10
0.286970
20
22.994494
11
0.643596
21
20.741483
0
LINE
8
Ebene 1
10
0.643596
20
20.741483
11
1.199758
21
18.512425
0
LINE
8
Ebene 1
10
1.199758
20
18.512425
11
1.931061
21
16.330804
0
LINE
8
Ebene 1
10
1.931061
20
16.330804
11
2.813110
21
14.220105
0
LINE
8
Ebene 1
10
2.813110
20
14.220105
11
3.821510
21
12.203810
0
LINE
8
Ebene 1
10
3.821510
20
12.203810
11
4.934247
21
10.037649
0
LINE
8
Ebene 1
10
4.934247
20
10.037649
11
6.352876
21
8.042462
0
LINE
8
Ebene 1
10
6.352876
20
8.042462
11
8.032634
21
6.241039
0
LINE
8
Ebene 1
10
8.032634
20
6.241039
11
9.928756
21
4.656169
0
LINE
8
Ebene 1
10
9.928756
20
4.656169
11
11.996479
21
3.310640
0
LINE
8
Ebene 1
10
11.996479
20
3.310640
11
14.191039
21
2.227241
0
LINE
8
Ebene 1
10
14.191039
20
2.227241
11
16.467670
21
1.428762
0
LINE
8
Ebene 1
10
16.467670
20
1.428762
11
18.781610
21
0.937990
0
LINE
8
Ebene 1
10
18.781610
20
0.937990
11
20.287296
21
0.855728
0
LINE
8
Ebene 1
10
20.287296
20
0.855728
11
21.797562
21
1.013696
0
LINE
8
Ebene 1
10
21.797562
20
1.013696
11
23.297113
21
1.380330
0
LINE
8
Ebene 1
10
23.297113
20
1.380330
11
24.770651
21
1.924064
0
LINE
8
Ebene 1
10
24.770651
20
1.924064
11
27.578510
21
3.416572
0
LINE
8
Ebene 1
10
27.578510
20
3.416572
11
30.098770
21
5.238700
0
LINE
8
Ebene 1
10
30.098770
20
5.238700
11
30.851610
21
5.895225
0
LINE
8
Ebene 1
10
30.851610
20
5.895225
11
31.704751
21
6.374391
0
LINE
8
Ebene 1
10
31.704751
20
6.374391
11
32.625227
21
6.672963
0
LINE
8
Ebene 1
10
32.625227
20
6.672963
11
33.580076
21
6.787709
0
LINE
8
Ebene 1
10
33.580076
20
6.787709
11
34.536334
21
6.715395
0
LINE
8
Ebene 1
10
34.536334
20
6.715395
11
35.461036
21
6.452787
0
LINE
8
Ebene 1
10
35.461036
20
6.452787
11
36.321219
21
5.996654
0
LINE
8
Ebene 1
10
36.321219
20
5.996654
11
37.083920
21
5.343760
0
LINE
8
Ebene 1
10
37.083920
20
5.343760
11
38.754663
21
3.745990
0
LINE
8
Ebene 1
10
38.754663
20
3.745990
11
40.520900
21
2.248293
0
LINE
8
Ebene 1
10
40.520900
20
2.248293
11
42.479077
21
1.077119
0
LINE
8
Ebene 1
10
42.479077
20
1.077119
11
43.560282
21
0.684744
0
LINE
8
Ebene 1
10
43.560282
20
0.684744
11
44.725640
21
0.458920
0
LINE
8
Ebene 1
10
44.725640
20
0.458920
11
47.109540
21
0.166369
0
LINE
8
Ebene 1
10
47.109540
20
0.166369
11
49.476467
21
0.248220
0
LINE
8
Ebene 1
10
49.476467
20
0.248220
11
51.802135
21
0.669235
0
LINE
8
Ebene 1
10
51.802135
20
0.669235
11
54.062260
21
1.394178
0
LINE
8
Ebene 1
10
54.062260
20
1.394178
11
56.232555
21
2.387810
0
LINE
8
Ebene 1
10
56.232555
20
2.387810
11
58.288736
21
3.614897
0
LINE
8
Ebene 1
10
58.288736
20
3.614897
11
60.206516
21
5.040199
0
LINE
8
Ebene 1
10
60.206516
20
5.040199
11
61.961610
21
6.628480
0
LINE
8
Ebene 1
10
61.961610
20
6.628480
11
63.740384
21
8.115609
0
LINE
8
Ebene 1
10
63.740384
20
8.115609
11
65.366328
21
9.794642
0
LINE
8
Ebene 1
10
65.366328
20
9.794642
11
66.800406
21
11.642885
0
LINE
8
Ebene 1
10
66.800406
20
11.642885
11
68.003580
21
13.637641
0
LINE
8
Ebene 1
10
68.003580
20
13.637641
11
68.936814
21
15.756215
0
LINE
8
Ebene 1
10
68.936814
20
15.756215
11
69.561072
21
17.975912
0
LINE
8
Ebene 1
10
69.561072
20
17.975912
11
69.837316
21
20.274035
0
LINE
8
Ebene 1
10
69.837316
20
20.274035
11
69.726510
21
22.627890
0
LINE
8
Ebene 1
10
69.726510
20
22.627890
11
69.430254
21
28.479051
0
LINE
8
Ebene 1
10
69.430254
20
28.479051
11
69.246465
21
31.429152
0
LINE
8
Ebene 1
10
69.246465
20
31.429152
11
68.934910
21
34.342940
0
LINE
8
Ebene 1
10
68.934910
20
34.342940
11
68.503067
21
36.800056
0
LINE
8
Ebene 1
10
68.503067
20
36.800056
11
67.867471
21
39.175174
0
LINE
8
Ebene 1
10
67.867471
20
39.175174
11
66.977867
21
41.442845
0
LINE
8
Ebene 1
10
66.977867
20
41.442845
11
65.784000
21
43.577620
0
LINE
8
Ebene 1
10
65.784000
20
43.577620
11
64.729385
21
45.033375
0
LINE
8
Ebene 1
10
64.729385
20
45.033375
11
63.527598
21
46.425073
0
LINE
8
Ebene 1
10
63.527598
20
46.425073
11
62.192520
21
47.716978
0
LINE
8
Ebene 1
10
62.192520
20
47.716978
11
60.738035
21
48.873356
0
LINE
8
Ebene 1
10
60.738035
20
48.873356
11
59.178023
21
49.858472
0
LINE
8
Ebene 1
10
59.178023
20
49.858472
11
57.526365
21
50.636591
0
LINE
8
Ebene 1
10
57.526365
20
50.636591
11
55.796944
21
51.171979
0
LINE
8
Ebene 1
10
55.796944
20
51.171979
11
54.003640
21
51.428900
0
LINE
8
Ebene 1
10
54.003640
20
51.428900
11
49.534640
21
51.833764
0
LINE
8
Ebene 1
10
49.534640
20
51.833764
11
44.999835
21
52.531150
0
LINE
8
Ebene 1
10
44.999835
20
52.531150
11
35.889116
21
54.068135
0
LINE
8
Ebene 1
10
35.889116
20
54.068135
11
31.391355
21
54.540061
0
LINE
8
Ebene 1
10
31.391355
20
54.540061
11
26.984095
21
54.569160
0
LINE
8
Ebene 1
10
26.984095
20
54.569160
11
24.826613
21
54.360201
0
LINE
8
Ebene 1
10
24.826613
20
54.360201
11
22.706411
21
53.971596
0
LINE
8
Ebene 1
10
22.706411
20
53.971596
11
20.628371
21
53.380365
0
LINE
8
Ebene 1
10
20.628371
20
53.380365
11
18.597380
21
52.563530
0
LINE
8
Ebene 1
10
18.597380
20
52.563530
11
18.597380
21
52.563530
 0 
ENDSEC
 0 
EOF