999
"DXF R12 Output" (www.mydxf.blogspot.com)
 0 
SECTION
 2 
HEADER
 9 
$ACADVER
 1 
AC1009
 9 
$EXTMIN
 10 
 0 
 20 
 0 
 9 
$EXTMAX
 10 
 8.5 
 20 
 11 
 0 
ENDSEC
 0 
SECTION
 2 
ENTITIES
0
LINE
8
Ebene 1
10
64.707070
20
44.998890
11
63.505330
21
46.390600
0
LINE
8
Ebene 1
10
65.761700
20
43.543150
11
64.707070
21
44.998890
0
LINE
8
Ebene 1
10
66.955760
20
41.408500
11
65.761700
21
43.543150
0
LINE
8
Ebene 1
10
67.845290
20
39.140750
11
66.955760
21
41.408500
0
LINE
8
Ebene 1
10
68.480820
20
36.765590
11
67.845290
21
39.140750
0
LINE
8
Ebene 1
10
68.912620
20
34.308400
11
68.480820
21
36.765590
0
LINE
8
Ebene 1
10
69.224300
20
31.395340
11
68.912620
21
34.308400
0
LINE
8
Ebene 1
10
69.408190
20
28.445240
11
69.224300
21
31.395340
0
LINE
8
Ebene 1
10
69.704260
20
22.592650
11
69.408190
21
28.445240
0
LINE
8
Ebene 1
10
69.815120
20
20.240510
11
69.704260
21
22.592650
0
LINE
8
Ebene 1
10
69.538890
20
17.941280
11
69.815120
21
20.240510
0
LINE
8
Ebene 1
10
68.914740
20
15.721420
11
69.538890
21
17.941280
0
LINE
8
Ebene 1
10
67.981290
20
13.602110
11
68.914740
21
15.721420
0
LINE
8
Ebene 1
10
66.778230
20
11.607150
11
67.981290
21
13.602110
0
LINE
8
Ebene 1
10
65.344190
20
9.760360
11
66.778230
21
11.607150
0
LINE
8
Ebene 1
10
63.718320
20
8.080260
11
65.344190
21
9.760360
0
LINE
8
Ebene 1
10
61.939530
20
6.593300
11
63.718320
21
8.080260
0
LINE
8
Ebene 1
10
60.184280
20
5.005800
11
61.939530
21
6.593300
0
LINE
8
Ebene 1
10
58.266580
20
3.579690
11
60.184280
21
5.005800
0
LINE
8
Ebene 1
10
56.210240
20
2.354670
11
58.266580
21
3.579690
0
LINE
8
Ebene 1
10
54.040130
20
1.359840
11
56.210240
21
2.354670
0
LINE
8
Ebene 1
10
51.780060
20
0.634880
11
54.040130
21
1.359840
0
LINE
8
Ebene 1
10
49.454370
20
0.214190
11
51.780060
21
0.634880
0
LINE
8
Ebene 1
10
47.087410
20
0.132170
11
49.454370
21
0.214170
0
LINE
8
Ebene 1
10
44.703510
20
0.423190
11
47.087410
21
0.132150
0
LINE
8
Ebene 1
10
43.538020
20
0.650740
11
44.703510
21
0.423190
0
LINE
8
Ebene 1
10
42.456940
20
1.042320
11
43.538020
21
0.650740
0
LINE
8
Ebene 1
10
40.498750
20
2.214420
11
42.456940
21
1.042320
0
LINE
8
Ebene 1
10
38.732400
20
3.711970
11
40.498750
21
2.214420
0
LINE
8
Ebene 1
10
37.061820
20
5.310050
11
38.732400
21
3.711970
0
LINE
8
Ebene 1
10
36.299020
20
5.960920
11
37.061820
21
5.310050
0
LINE
8
Ebene 1
10
35.438860
20
6.418650
11
36.299020
21
5.960920
0
LINE
8
Ebene 1
10
34.514140
20
6.680590
11
35.438860
21
6.418650
0
LINE
8
Ebene 1
10
33.557940
20
6.752030
11
34.514140
21
6.680630
0
LINE
8
Ebene 1
10
32.603060
20
6.638330
11
33.557940
21
6.752100
0
LINE
8
Ebene 1
10
31.682570
20
6.339350
11
32.603060
21
6.638330
0
LINE
8
Ebene 1
10
30.829560
20
5.860450
11
31.682570
21
6.339350
0
LINE
8
Ebene 1
10
30.076550
20
5.204290
11
30.829560
21
5.860450
0
LINE
8
Ebene 1
10
27.556399
20
3.381310
11
30.076550
21
5.204290
0
LINE
8
Ebene 1
10
24.748483
20
1.889060
11
27.556399
21
3.381310
0
LINE
8
Ebene 1
10
23.274939
20
1.346660
11
24.748483
21
1.889060
0
LINE
8
Ebene 1
10
21.775387
20
0.978890
11
23.274939
21
1.346660
0
LINE
8
Ebene 1
10
20.265119
20
0.820140
11
21.775387
21
0.978890
0
LINE
8
Ebene 1
10
18.759428
20
0.904790
11
20.265119
21
0.820090
0
LINE
8
Ebene 1
10
16.445488
20
1.394240
11
18.759428
21
0.904760
0
LINE
8
Ebene 1
10
14.168854
20
2.193280
11
16.445488
21
1.394240
0
LINE
8
Ebene 1
10
11.974294
20
3.275420
11
14.168854
21
2.193280
0
LINE
8
Ebene 1
10
9.906576
20
4.622150
11
11.974294
21
3.275420
0
LINE
8
Ebene 1
10
8.010466
20
6.207010
11
9.906576
21
4.622150
0
LINE
8
Ebene 1
10
6.330705
20
8.008820
11
8.010466
21
6.207010
0
LINE
8
Ebene 1
10
4.912063
20
10.003780
11
6.330705
21
8.008820
0
LINE
8
Ebene 1
10
3.799331
20
12.168070
11
4.912063
21
10.003780
0
LINE
8
Ebene 1
10
2.790924
20
14.186840
11
3.799331
21
12.168070
0
LINE
8
Ebene 1
10
1.908883
20
16.295570
11
2.790924
21
14.186840
0
LINE
8
Ebene 1
10
1.177580
20
18.478380
11
1.908883
21
16.295570
0
LINE
8
Ebene 1
10
0.621418
20
20.706170
11
1.177580
21
18.478380
0
LINE
8
Ebene 1
10
0.264791
20
22.960420
11
0.621418
21
20.706170
0
LINE
8
Ebene 1
10
0.132097
20
25.214670
11
0.264791
21
22.960420
0
LINE
8
Ebene 1
10
0.247731
20
27.445110
11
0.132100
21
25.214670
0
LINE
8
Ebene 1
10
0.636084
20
29.627920
11
0.247731
21
27.445110
0
LINE
8
Ebene 1
10
1.715460
20
33.146090
11
0.636084
21
29.627920
0
LINE
8
Ebene 1
10
3.186506
20
36.599960
11
1.715460
21
33.146090
0
LINE
8
Ebene 1
10
5.019539
20
39.928150
11
3.186506
21
36.599960
0
LINE
8
Ebene 1
10
7.184863
20
43.069020
11
5.019539
21
39.928150
0
LINE
8
Ebene 1
10
9.652790
20
45.960920
11
7.184863
21
43.069020
0
LINE
8
Ebene 1
10
12.393609
20
48.542720
11
9.652790
21
45.960920
0
LINE
8
Ebene 1
10
63.505330
20
46.390600
11
62.170250
21
47.682560
0
LINE
8
Ebene 1
10
12.393609
20
48.542720
11
15.062897
21
50.612630
0
LINE
8
Ebene 1
10
15.062897
20
50.612630
11
16.651219
21
51.328200
0
LINE
8
Ebene 1
10
16.651219
20
51.328200
11
19.599054
21
52.089170
0
LINE
8
Ebene 1
10
19.599054
20
52.089170
11
23.320150
21
52.658530
0
LINE
8
Ebene 1
10
23.320150
20
52.658530
11
25.574058
21
53.390570
0
LINE
8
Ebene 1
10
25.574058
20
53.390570
11
27.731646
21
54.796850
0
LINE
8
Ebene 1
10
27.731646
20
54.796850
11
29.600269
21
57.647950
0
LINE
8
Ebene 1
10
29.600269
20
57.647950
11
32.721060
21
62.791490
0
LINE
8
Ebene 1
10
32.721060
20
62.791490
11
34.763060
21
66.759900
0
LINE
8
Ebene 1
10
34.763060
20
66.759900
11
36.554630
21
70.054080
0
LINE
8
Ebene 1
10
36.554630
20
70.054080
11
38.172820
21
72.250190
0
LINE
8
Ebene 1
10
38.172820
20
72.250190
11
40.176300
21
73.695010
0
LINE
8
Ebene 1
10
40.176300
20
73.695010
11
43.181510
21
74.330720
0
LINE
8
Ebene 1
10
43.181510
20
74.330720
11
45.088660
21
74.138080
0
LINE
8
Ebene 1
10
45.088660
20
74.138080
11
48.498420
21
72.250190
0
LINE
8
Ebene 1
10
48.498420
20
72.250190
11
50.232190
21
70.535680
0
LINE
8
Ebene 1
10
50.232190
20
70.535680
11
52.505370
21
67.896490
0
LINE
8
Ebene 1
10
52.505370
20
67.896490
11
53.179610
21
66.991070
0
LINE
8
Ebene 1
10
53.179610
20
66.991070
11
53.410780
21
65.758170
0
LINE
8
Ebene 1
10
53.410780
20
65.758170
11
53.102550
21
65.257300
0
LINE
8
Ebene 1
10
53.102550
20
65.257300
11
52.158610
21
65.103190
0
LINE
8
Ebene 1
10
52.158610
20
65.103190
11
50.270720
21
65.719640
0
LINE
8
Ebene 1
10
50.270720
20
65.719640
11
48.228720
21
66.914020
0
LINE
8
Ebene 1
10
48.228720
20
66.914020
11
47.304040
21
67.164450
0
LINE
8
Ebene 1
10
47.304040
20
67.164450
11
46.456420
21
66.721380
0
LINE
8
Ebene 1
10
46.456420
20
66.721380
11
45.801430
21
62.252090
0
LINE
8
Ebene 1
10
45.801430
20
62.252090
11
45.319830
21
59.535840
0
LINE
8
Ebene 1
10
45.319830
20
59.535840
11
45.570260
21
56.010500
0
LINE
8
Ebene 1
10
45.570260
20
56.010500
11
45.955550
21
53.236460
0
LINE
8
Ebene 1
10
45.955550
20
53.236460
11
47.130660
21
51.425620
0
LINE
8
Ebene 1
10
47.130660
20
51.425620
11
49.153400
21
50.616530
0
LINE
8
Ebene 1
10
49.153400
20
50.616530
11
53.892390
21
50.115660
0
LINE
8
Ebene 1
10
53.892390
20
50.115660
11
56.647160
21
50.077160
0
LINE
8
Ebene 1
10
56.647160
20
50.077160
11
59.536790
21
49.653350
0
LINE
8
Ebene 1
10
59.536790
20
49.653350
11
61.058660
21
48.882780
0
LINE
8
Ebene 1
10
61.058660
20
48.882780
11
62.170250
21
47.682590
 0 
ENDSEC
 0 
EOF